<svg width="32" height="32" viewBox="0 0 32 32" fill="none" xmlns="http://www.w3.org/2000/svg">
<path d="M11.7672 9.81331V0.533312C11.7672 0.238937 11.5282 0 11.2339 0H8.03385C7.73948 0 7.50054 0.238937 7.50054 0.533312V9.81331C5.5176 10.9354 4.29997 13.0133 4.30054 15.312V31.4667C4.30054 31.7616 4.53948 32 4.83385 32H14.4339C14.7282 32 14.9672 31.7616 14.9672 31.4667V15.3126C14.9677 13.0133 13.7501 10.9354 11.7672 9.81331ZM13.9005 30.9333H5.36716V15.312C5.3661 13.3083 6.47973 11.5067 8.27223 10.6107C8.45304 10.52 8.56716 10.3355 8.56716 10.1334V1.06669H10.7005V10.1334C10.7005 10.3355 10.8146 10.5206 10.9954 10.6107C12.788 11.5061 13.901 13.3078 13.9005 15.312V30.9333Z" fill="white"/>
<path d="M11.2322 2.66675H8.03223V3.73344H11.2322V2.66675Z" fill="white"/>
<path d="M27.6498 17.2628L26.6951 10.5908C26.6578 10.3284 26.4328 10.1332 26.1671 10.1332H19.7671C19.502 10.1332 19.277 10.3284 19.2386 10.5908L18.2845 17.2335C18.1938 17.8415 18.2269 18.4511 18.3784 19.0346L18.4712 19.4255C18.9885 21.4906 20.8371 22.9327 22.9661 22.9332C22.9693 22.9332 22.9714 22.9332 22.9741 22.9332C25.0893 22.9332 26.9347 21.5039 27.4648 19.4452L27.5523 19.073C27.7074 18.4777 27.7399 17.8676 27.6498 17.2628ZM26.5176 18.8159L26.4296 19.1892C26.0232 20.7662 24.6029 21.8665 22.9741 21.8665C22.9714 21.8665 22.9693 21.8665 22.9672 21.8665C21.3277 21.8665 19.9042 20.7561 19.508 19.1732L19.4141 18.7774C19.2952 18.3225 19.2707 17.8558 19.3405 17.3881L20.2291 11.1999H25.7048L26.5949 17.4169C26.6643 17.882 26.6397 18.3487 26.5176 18.8159Z" fill="white"/>
<path d="M23.4988 22.4H22.4321V29.3333H23.4988V22.4Z" fill="white"/>
<path d="M24.0339 28.7999H21.9006C20.4302 28.7999 19.2339 29.9962 19.2339 31.4666C19.2339 31.7616 19.4723 31.9999 19.7672 31.9999H26.1672C26.4621 31.9999 26.7005 31.7616 26.7005 31.4666C26.7006 29.9962 25.5043 28.7999 24.0339 28.7999ZM20.3918 30.9332C20.612 30.3124 21.2056 29.8666 21.9006 29.8666H24.0339C24.7293 29.8666 25.3224 30.3124 25.5427 30.9332H20.3918Z" fill="white"/>
<path d="M27.232 17.6H18.6987V18.6667H27.232V17.6Z" fill="white"/>
<path d="M11.2322 7.46667H8.03223V8.53337H11.2322V7.46667Z" fill="white"/>
<path d="M12.3005 16.5333H6.96715C6.67278 16.5333 6.43384 16.7717 6.43384 17.0666V26.6666C6.43384 26.9616 6.67278 27.2 6.96715 27.2H12.3005C12.5948 27.2 12.8338 26.9616 12.8338 26.6666V17.0666C12.8338 16.7718 12.5948 16.5333 12.3005 16.5333ZM11.7672 26.1333H7.50046V17.6H11.7672V26.1333Z" fill="white"/>
</svg>
