<svg width="32" height="32" viewBox="0 0 32 32" fill="none" xmlns="http://www.w3.org/2000/svg">
<g clip-path="url(#clip0)">
<path d="M24.3517 14.2715C24.8242 11.592 23.1794 8.93603 20.5031 8.20478C18.9031 7.76903 17.2168 8.09547 15.9048 9.07784C14.8994 8.32372 13.669 7.95091 12.4045 8.02503C10.9826 8.10666 9.67706 8.73759 8.72931 9.80103C7.63438 11.0298 7.17519 12.6709 7.45788 14.2714C6.308 14.744 5.36825 15.5957 4.78 16.7087C4.11438 17.9679 3.97894 19.4111 4.39919 20.7727C5.09356 23.0234 7.14 24.5338 9.49356 24.5338C9.98156 24.5365 10.4877 24.465 10.9672 24.3263C12.2194 25.8463 14.0546 26.6512 15.9128 26.6512C17.2163 26.6512 18.532 26.2549 19.6659 25.4314C20.1038 25.113 20.4979 24.7418 20.8413 24.3258C21.3171 24.4634 21.8072 24.5332 22.3032 24.5332C22.3069 24.5332 22.3096 24.5332 22.3133 24.5332C23.7341 24.5332 25.0706 23.9812 26.0786 22.9785C27.0872 21.9737 27.6445 20.6351 27.6471 19.2105C27.6514 17.0187 26.3458 15.0912 24.3517 14.2715ZM25.325 22.2219C24.5202 23.0246 23.4509 23.4662 22.3127 23.4662C21.8066 23.4747 21.3117 23.3776 20.837 23.2011C20.613 23.1195 20.3602 23.1936 20.2194 23.3878C19.8903 23.8417 19.493 24.239 19.0391 24.568C16.6604 26.2971 13.3181 25.7685 11.5895 23.3878C11.4866 23.2465 11.3244 23.168 11.1575 23.168C11.0956 23.168 11.0327 23.1792 10.9714 23.2017C10.4994 23.3777 10.0055 23.4667 9.50312 23.4667C9.49994 23.4667 9.49725 23.4667 9.49456 23.4667C7.61138 23.4667 5.9735 22.2582 5.41881 20.4577C5.08281 19.3686 5.19056 18.2139 5.72331 17.2059C6.25556 16.199 7.14894 15.4587 8.238 15.1227C8.51319 15.0379 8.67106 14.7505 8.59531 14.4726C8.21344 13.0737 8.56119 11.5926 9.526 10.5099C10.2844 9.65872 11.3287 9.15416 12.4663 9.08859C13.6017 9.02509 14.6988 9.40484 15.55 10.1633C15.7527 10.3435 16.0572 10.3435 16.2599 10.1633C17.3426 9.19847 18.8226 8.85022 20.222 9.23259C22.4919 9.85234 23.8337 12.2033 23.214 14.4726C23.1382 14.7499 23.2961 15.0379 23.5713 15.1227C25.3751 15.679 26.5841 17.3206 26.5804 19.2075C26.5784 20.3467 26.1325 21.4177 25.325 22.2219Z" fill="white"/>
<path d="M18.0375 25.6001V30.9334H13.7708V25.6001H12.7041V31.4668C12.7041 31.7617 12.943 32.0001 13.2374 32.0001H18.5707C18.8657 32.0001 19.104 31.7617 19.104 31.4668V25.6001H18.0375Z" fill="white"/>
<path d="M18.5711 28.7999H16.4377V29.8666H18.5711V28.7999Z" fill="white"/>
<path d="M14.8375 27.7333H13.2375V28.8H14.8375V27.7333Z" fill="white"/>
<path d="M16.4375 23.4667H15.3708V24.5334H16.4375V23.4667Z" fill="white"/>
<path d="M16.4375 19.2H15.3708V20.2666H16.4375V19.2Z" fill="white"/>
<path d="M14.3042 20.2667H13.2375V21.3334H14.3042V20.2667Z" fill="white"/>
<path d="M14.3042 22.3999H13.2375V23.4666H14.3042V22.3999Z" fill="white"/>
<path d="M18.5708 22.3999H17.5042V23.4666H18.5708V22.3999Z" fill="white"/>
<path d="M13.2376 14.9333H12.1709V16H13.2376V14.9333Z" fill="white"/>
<path d="M13.2376 10.6667H12.1709V11.7334H13.2376V10.6667Z" fill="white"/>
<path d="M11.1043 11.7333H10.0376V12.8H11.1043V11.7333Z" fill="white"/>
<path d="M19.6377 14.9333H18.571V16H19.6377V14.9333Z" fill="white"/>
<path d="M17.5044 11.7333H16.4377V12.8H17.5044V11.7333Z" fill="white"/>
<path d="M21.771 11.7333H20.7043V12.8H21.771V11.7333Z" fill="white"/>
<path d="M17.5044 13.8667H16.4377V14.9334H17.5044V13.8667Z" fill="white"/>
<path d="M19.6377 12.8H18.571V13.8667H19.6377V12.8Z" fill="white"/>
<path d="M10.0376 16.5333H8.97095V17.6H10.0376V16.5333Z" fill="white"/>
<path d="M7.90433 17.6001H6.83765V18.6668H7.90433V17.6001Z" fill="white"/>
<path d="M7.90433 19.7333H6.83765V20.8H7.90433V19.7333Z" fill="white"/>
<path d="M12.1712 19.7333H11.1045V20.8H12.1712V19.7333Z" fill="white"/>
<path d="M10.0376 18.6667H8.97095V19.7334H10.0376V18.6667Z" fill="white"/>
<path d="M22.8377 20.8H21.771V21.8667H22.8377V20.8Z" fill="white"/>
<path d="M22.8377 16.5333H21.771V17.6H22.8377V16.5333Z" fill="white"/>
<path d="M24.971 17.6001H23.9043V18.6668H24.971V17.6001Z" fill="white"/>
<path d="M20.7044 19.7333H19.6377V20.8H20.7044V19.7333Z" fill="white"/>
<path d="M24.971 19.7333H23.9043V20.8H24.971V19.7333Z" fill="white"/>
<path d="M7.16775 8.53334H2.2435C1.67175 8.52696 1.13631 8.74771 0.730935 9.14771C0.32506 9.54771 0.0994972 10.0821 0.0957472 10.6512C0.0951847 10.7397 0.0999972 10.8282 0.110685 10.9168L2.3875 29.9249C2.51812 31.1078 3.51387 32.0001 4.70431 32.0001C5.89418 32.0001 6.89043 31.1083 7.02112 29.9259L5.96087 29.8081C5.88993 30.4497 5.34968 30.9334 4.70431 30.9334C4.059 30.9334 3.51868 30.4496 3.44781 29.8032L1.17043 10.7904C1.16512 10.7472 1.163 10.7035 1.163 10.6592C1.16462 10.3744 1.27768 10.1072 1.48031 9.90721C1.6835 9.70721 1.96456 9.59415 2.24031 9.60003H7.16775C7.756 9.60003 8.23444 10.0784 8.23444 10.6667H9.30112C9.30106 9.49015 8.34431 8.53334 7.16775 8.53334Z" fill="white"/>
<path d="M6.72947 23.4033L5.96091 29.8081C5.88997 30.4498 5.34972 30.9334 4.70435 30.9334V32.0001C5.89422 32.0001 6.89047 31.1084 7.0201 29.9303L7.7881 23.5303L6.72947 23.4033Z" fill="white"/>
<path d="M1.49522 0.435246L0.446777 0.631836L2.04694 9.16573L3.09539 8.96914L1.49522 0.435246Z" fill="white"/>
<path d="M7.91282 0.435143L6.31445 8.96875L7.3629 9.16513L8.96126 0.631521L7.91282 0.435143Z" fill="white"/>
<path d="M5.23759 0H4.1709V7.46669H5.23759V0Z" fill="white"/>
<path d="M3.63763 11.7333H0.970947V12.8H3.63763V11.7333Z" fill="white"/>
<path d="M3.10439 14.9333H1.50439V16H3.10439V14.9333Z" fill="white"/>
<path d="M4.17091 21.3333H2.0376V22.3999H4.17091V21.3333Z" fill="white"/>
<path d="M7.37103 24.5333H4.70435V25.6H7.37103V24.5333Z" fill="white"/>
<path d="M4.17118 27.7333H3.10449V28.8H4.17118V27.7333Z" fill="white"/>
<path d="M6.30435 11.7333H4.70435V12.8H6.30435V11.7333Z" fill="white"/>
<path d="M25.5045 0C21.9754 0 19.1045 2.87094 19.1045 6.4V8.53331H20.1712V6.4C20.1712 3.45919 22.5637 1.06669 25.5045 1.06669C28.4453 1.06669 30.8378 3.45925 30.8378 6.4V19.7339C30.8389 21.3008 30.2293 22.7749 29.1216 23.8848L25.5039 27.512L21.8986 23.912L21.8341 23.8442C21.7812 23.7899 21.7284 23.7344 21.6804 23.6763L20.8586 24.3563C20.9226 24.4336 20.9929 24.5077 21.0623 24.5808L25.1274 28.6443C25.2271 28.744 25.3631 28.8 25.5044 28.8C25.6468 28.8 25.7823 28.744 25.8821 28.6432L29.8768 24.6379C31.1856 23.3269 31.9056 21.5856 31.9045 19.7333V6.4C31.9045 2.87094 29.0336 0 25.5045 0Z" fill="white"/>
<path d="M26.0376 22.9333H24.9709V32H26.0376V22.9333Z" fill="white"/>
<path d="M26.0376 3.7334H24.9709V15.4667H26.0376V3.7334Z" fill="white"/>
<path d="M28.3272 4.9563L25.5043 7.77924L22.6814 4.9563L21.9272 5.71042L25.1272 8.91042C25.2312 9.01442 25.3678 9.06667 25.5043 9.06667C25.6409 9.06667 25.7774 9.01442 25.8814 8.91042L29.0814 5.71042L28.3272 4.9563Z" fill="white"/>
<path d="M28.3268 19.3562L25.127 22.556L25.8812 23.3103L29.0811 20.1104L28.3268 19.3562Z" fill="white"/>
<path d="M28.3272 9.75635L25.5043 12.5793L23.748 10.823L22.9939 11.5772L25.1272 13.7105C25.2312 13.8145 25.3678 13.8667 25.5043 13.8667C25.6408 13.8667 25.7773 13.8145 25.8813 13.7105L29.0813 10.5105L28.3272 9.75635Z" fill="white"/>
<path d="M28.3243 14.5566L26.1909 16.6899L26.9452 17.4442L29.0785 15.3108L28.3243 14.5566Z" fill="white"/>
</g>
<defs>
<clipPath id="clip0">
<rect width="32" height="32" fill="white"/>
</clipPath>
</defs>
</svg>
