<svg width="32" height="32" viewBox="0 0 32 32" fill="none" xmlns="http://www.w3.org/2000/svg">
<path d="M25.0667 2.1333H10.1333C4.54562 2.1333 0 6.67893 0 12.2667V15.4667C0 21.0544 4.54562 25.6 10.1333 25.6H13.8666C19.2751 25.6 23.7077 21.3408 23.9861 16H25.0666C28.8896 16 32 12.8896 32 9.06668C32 5.24374 28.8896 2.1333 25.0667 2.1333ZM25.0667 14.9333H23.4667C23.1718 14.9333 22.9334 15.1722 22.9334 15.4666C22.9334 20.4661 18.8662 24.5333 13.8667 24.5333H10.1334C5.13388 24.5333 1.06669 20.4661 1.06669 15.4666V12.2666C1.06669 7.26718 5.13388 3.19993 10.1334 3.19993H25.0667C28.3014 3.19993 30.9334 5.83193 30.9334 9.06661C30.9333 12.3013 28.3013 14.9333 25.0667 14.9333Z" fill="white"/>
<path d="M25.0667 2.1333H10.1333C4.54562 2.1333 0 6.67893 0 12.2667V19.7334C0 25.3211 4.54562 29.8667 10.1333 29.8667H13.8666C19.2751 29.8667 23.7077 25.6075 23.9861 20.2667H25.0666C28.8896 20.2667 32 17.1562 32 13.3333V9.06661C32 5.24374 28.8896 2.1333 25.0667 2.1333ZM30.9333 13.3333C30.9333 16.568 28.3013 19.2 25.0666 19.2H23.4666C23.1717 19.2 22.9333 19.4384 22.9333 19.7333C22.9333 24.7328 18.8661 28.8 13.8666 28.8H10.1333C5.13381 28.8 1.06662 24.7328 1.06662 19.7333V12.2667C1.06662 7.26724 5.13381 3.19999 10.1333 3.19999H25.0666C28.3013 3.19999 30.9333 5.83199 30.9333 9.06668V13.3333Z" fill="white"/>
<path d="M8.91036 4.95623C8.7018 4.74766 8.36474 4.74766 8.15624 4.95623L2.82293 10.2895C2.61436 10.4981 2.61436 10.8352 2.82293 11.0437C2.92693 11.1477 3.06349 11.1999 3.19999 11.1999C3.33655 11.1999 3.47305 11.1477 3.57705 11.0437L8.91036 5.71035C9.11892 5.50185 9.11892 5.16479 8.91036 4.95623Z" fill="white"/>
<path d="M14.7771 4.95623C14.5686 4.74766 14.2314 4.74766 14.0229 4.95623L2.82293 16.1562C2.61436 16.3647 2.61436 16.7019 2.82293 16.9104C2.92693 17.0144 3.06349 17.0666 3.19999 17.0666C3.33655 17.0666 3.47305 17.0144 3.57705 16.9104L14.7771 5.71035C14.9856 5.50185 14.9856 5.16479 14.7771 4.95623Z" fill="white"/>
<path d="M20.6437 4.95623C20.4352 4.74766 20.0981 4.74766 19.8896 4.95623L4.95623 19.8896C4.74766 20.0982 4.74766 20.4352 4.95623 20.6437C5.06023 20.7477 5.19679 20.8 5.33329 20.8C5.46985 20.8 5.60635 20.7477 5.71035 20.6437L20.6437 5.71035C20.8522 5.50185 20.8522 5.16479 20.6437 4.95623Z" fill="white"/>
<path d="M26.5104 4.95623C26.3018 4.74766 25.9648 4.74766 25.7563 4.95623L8.68962 22.0229C8.48106 22.2315 8.48106 22.5685 8.68962 22.777C8.79362 22.881 8.93019 22.9333 9.06669 22.9333C9.20325 22.9333 9.33975 22.881 9.44375 22.777L26.5104 5.71035C26.7189 5.50185 26.7189 5.16479 26.5104 4.95623Z" fill="white"/>
<path d="M28.9103 8.42298C28.7017 8.21448 28.3646 8.21448 28.1561 8.42298L15.0895 21.4896C14.881 21.6982 14.881 22.0353 15.0895 22.2438C15.1935 22.3478 15.3301 22.4 15.4666 22.4C15.6032 22.4 15.7397 22.3478 15.8437 22.2438L28.9103 9.1771C29.1188 8.9686 29.1188 8.63148 28.9103 8.42298Z" fill="white"/>
</svg>
