<svg width="32" height="32" viewBox="0 0 32 32" fill="none" xmlns="http://www.w3.org/2000/svg">
<g clip-path="url(#clip0)">
<path d="M31.8439 14.5566L29.3281 12.0409C29.2102 9.49852 27.1041 7.46703 24.5335 7.46703H12.6119C11.8439 5.92517 10.1986 4.80037 8.64555 4.80037H4.83383C4.36077 4.78918 3.89146 4.94543 3.4989 5.2238L0.959724 7.03179C0.354415 7.46378 -0.00452054 8.16565 0.000291927 8.90646C0.000291927 10.171 1.0291 11.1998 2.29359 11.1998H5.86688C7.33725 11.1998 8.53356 10.0035 8.53356 8.53309H7.46687C7.46687 9.41521 6.749 10.1331 5.86688 10.1331H2.29359C1.61734 10.1331 1.06691 9.5827 1.06691 8.90321C1.06422 8.5059 1.25572 8.13147 1.57891 7.90159L4.11758 6.09361C4.3272 5.9448 4.56502 5.84186 4.83226 5.86692H8.64555C9.87648 5.86692 11.2493 6.89091 11.7714 8.19809C11.8525 8.40078 12.0487 8.53353 12.2668 8.53353H24.5335C26.5916 8.53353 28.2668 10.2082 28.2668 12.2668C28.2668 12.4081 28.3233 12.5436 28.423 12.6434L30.6582 14.8785C30.1969 15.1415 29.4331 15.3442 28.6438 14.5559L27.8897 15.31C28.5334 15.9537 29.2001 16.183 29.8113 16.183C30.6844 16.183 31.4412 15.7127 31.8439 15.3105C32.0524 15.1022 32.0524 14.7652 31.8439 14.5566Z" fill="#CD9138"/>
<path d="M5.33328 6.93311H4.2666V7.99979H5.33328V6.93311Z" fill="#CD9138"/>
<path d="M10.24 19.9465L8.64005 22.0798C8.57074 22.172 8.53336 22.284 8.53336 22.3997V26.133H7.46669V19.9571C7.46669 19.74 7.33494 19.5443 7.13338 19.4627C5.71526 18.8894 4.79952 17.5299 4.80008 15.9998V10.6665H3.7334V15.9998C3.73284 17.8446 4.76808 19.4958 6.40007 20.3021V26.6669C6.40007 26.9618 6.639 27.2002 6.93338 27.2002H9.06667C9.36105 27.2002 9.59998 26.9613 9.59998 26.6669V22.5779L11.0933 20.5859L10.24 19.9465Z" fill="#CD9138"/>
<path d="M29.866 17.6003V15.467H28.7993V17.6003C28.7993 18.4825 28.0814 19.2003 27.1993 19.2003C26.97 19.2003 26.7662 19.3475 26.6937 19.5651C26.6211 19.7828 26.6958 20.0228 26.8798 20.1603L28.7998 21.6003V26.1336H27.7331V22.4003C27.7331 22.1054 27.4947 21.867 27.1998 21.867H26.1331C24.3683 21.867 22.9331 20.4318 22.9331 18.667V16.0004H21.8665V18.667C21.8665 21.0196 23.7806 22.9337 26.1331 22.9337H26.6664V26.667C26.6664 26.9619 26.9048 27.2003 27.1997 27.2003H29.333C29.628 27.2003 29.8663 26.9614 29.8653 26.667V21.3337C29.8653 21.1657 29.7863 21.0073 29.652 20.907L28.4104 19.9758C29.274 19.5336 29.866 18.6345 29.866 17.6003Z" fill="#CD9138"/>
<path d="M12.2668 19.7336C10.7964 19.7336 9.60013 18.5374 9.60013 17.0669V16.0002H8.53345V17.0669C8.53345 19.125 10.2081 20.8002 12.2667 20.8002H22.4V19.7335H12.2668V19.7336Z" fill="#CD9138"/>
<path d="M9.06647 6.93359V8.44239C8.44566 8.22214 7.99979 7.62909 7.99979 6.93359H6.93311C6.93311 8.40395 8.12935 9.60026 9.59978 9.60026C9.89415 9.60026 10.1331 9.36132 10.1331 9.06695V6.93366H9.06647V6.93359Z" fill="#CD9138"/>
</g>
<defs>
<clipPath id="clip0">
<rect width="32" height="32" fill="white"/>
</clipPath>
</defs>
</svg>
