<svg width="32" height="32" viewBox="0 0 32 32" fill="none" xmlns="http://www.w3.org/2000/svg">
<path d="M31.4655 20.2675H0.534288C0.239914 20.2675 0.000976562 20.5058 0.000976562 20.8008C0.000976562 26.9758 5.02466 32 11.2002 32H20.7996C26.9746 32 31.9988 26.9758 31.9988 20.8008C31.9988 20.5058 31.7604 20.2675 31.4655 20.2675ZM20.7996 30.9334H11.2002C5.79203 30.9334 1.35979 26.6745 1.08141 21.334H30.9183C30.64 26.6745 26.2077 30.9334 20.7996 30.9334Z" fill="white"/>
<path d="M27.2012 7.4716C27.2012 7.43266 27.2007 7.39372 27.197 7.33454C27.1149 6.45035 26.5069 5.72398 25.7043 5.45148L26.308 4.84779C27.3549 3.82229 27.4599 2.18186 26.5437 1.02355C25.5624 -0.168888 23.794 -0.338513 22.602 0.642235C22.5343 0.698235 22.4687 0.757423 22.4031 0.823047L21.7472 1.48861C21.472 0.690235 20.7441 0.0865488 19.8471 0.00336147C18.6658 -0.0611384 17.6659 0.845422 17.6024 2.01973C17.6003 2.05867 17.5997 2.09761 17.5997 2.13598V2.95354C17.2862 2.77167 16.923 2.66717 16.5353 2.66661C16.4969 2.66661 16.4574 2.66767 16.3982 2.67086C15.2581 2.77698 14.3808 3.75667 14.4 4.89254V5.61785C14.08 5.43279 13.7153 5.3336 13.3356 5.33304C13.2972 5.33304 13.2583 5.3341 13.1991 5.33729C12.0583 5.44341 11.1811 6.4231 11.2003 7.55903V15.4678C11.2003 15.7628 11.4392 16.0011 11.7336 16.0011H20.7996C21.9761 16.0011 22.9328 15.0444 22.9322 13.869C22.9322 13.4808 22.8282 13.1165 22.6459 12.8025H23.3664C24.5119 12.8339 25.4915 11.9438 25.5987 10.7828C25.6217 10.3487 25.5129 9.93809 25.307 9.58934C25.7859 9.53603 26.2291 9.32428 26.5747 8.97978C26.9777 8.57766 27.2007 8.04222 27.2012 7.4716ZM25.8215 8.2246C25.62 8.4251 25.3528 8.53553 25.0675 8.53553C25.0669 8.53553 25.0664 8.53553 25.0659 8.53553H23.466C23.171 8.53553 22.9327 8.77447 22.9327 9.06884C22.9327 9.36322 23.171 9.60216 23.466 9.60216L23.5247 9.60378C24.1124 9.63522 24.5646 10.1387 24.5347 10.705C24.4804 11.2927 23.9817 11.7477 23.3754 11.7353H20.7996C20.5046 11.7353 20.2662 11.9743 20.2662 12.2687C20.2662 12.563 20.5046 12.802 20.7996 12.802C21.3878 12.802 21.8662 13.2803 21.8662 13.8686C21.8662 14.4568 21.3878 14.9352 20.7996 14.9352H12.2668V7.54997C12.2566 6.9596 12.7099 6.4546 13.2768 6.40122L13.3349 6.3996C13.9221 6.4001 14.3994 6.87797 14.3999 7.4646V7.46835C14.3999 7.76272 14.6383 8.00166 14.9327 8.00166C14.9333 8.00166 14.9333 8.00166 14.9333 8.00166C15.2276 8.00166 15.466 7.76328 15.4666 7.46891V7.46841V4.88348C15.4564 4.2931 15.9098 3.7881 16.4766 3.73473L16.5342 3.7331C17.1219 3.73417 17.5992 4.21198 17.5998 4.79917V4.80235C17.5998 5.09673 17.8382 5.33566 18.1326 5.33566C18.1331 5.33566 18.1331 5.33566 18.1331 5.33566C18.4275 5.33566 18.6659 5.09729 18.6664 4.80292V4.80235V2.13592L18.6681 2.07673C18.699 1.48955 19.1907 1.03736 19.7688 1.06667C20.3576 1.12161 20.8103 1.62661 20.7991 2.22711V2.66973C20.7991 2.88573 20.9298 3.08092 21.1303 3.16304C21.3292 3.24517 21.5607 3.19823 21.7121 3.04361L23.1589 1.57542C23.1984 1.53648 23.2389 1.49967 23.281 1.46505C24.0191 0.858172 25.1129 0.963735 25.7145 1.6933C26.284 2.41429 26.2184 3.44248 25.5582 4.08942L24.1557 5.49198C24.0032 5.64448 23.9573 5.87379 24.0399 6.07329C24.122 6.27222 24.3172 6.40235 24.5327 6.40235H24.9753C24.9865 6.40235 24.9945 6.40235 25.0035 6.40235C25.5859 6.40235 26.0808 6.85141 26.133 7.41241L26.1347 7.4711C26.134 7.75585 26.0232 8.02353 25.8215 8.2246Z" fill="white"/>
<path d="M23.0895 3.35702L8.15747 18.2891L8.91164 19.0432L23.8437 4.11119L23.0895 3.35702Z" fill="white"/>
<path d="M20.7988 4.27173H19.7322V6.93822H20.7988V4.27173Z" fill="white"/>
<path d="M17.5986 6.93823H16.532V10.138H17.5986V6.93823Z" fill="white"/>
<path d="M14.3989 9.59937H13.3323V13.3324H14.3989V9.59937Z" fill="white"/>
<path d="M22.9316 6.40491H20.2651V7.47147H22.9316V6.40491Z" fill="white"/>
<path d="M20.2652 9.59937H17.0654V10.6659H20.2652V9.59937Z" fill="white"/>
<path d="M17.5988 12.7992H13.8657V13.8658H17.5988V12.7992Z" fill="white"/>
<path d="M9.95493 2.46706C9.95443 2.46599 9.9533 2.46493 9.9528 2.46387C9.2003 1.33699 7.67081 1.03087 6.5445 1.78337C6.50931 1.80631 6.47462 1.83081 6.43518 1.86018L6.24319 2.00631L6.05869 1.87349C5.08275 0.963182 3.54844 0.999995 2.61944 1.96418C2.16457 2.43562 1.92032 3.05637 1.93257 3.7118C1.94482 4.36724 2.21094 4.97837 2.68188 5.43274C2.81894 5.56499 2.97144 5.68124 3.13569 5.7783L3.58475 6.12924V6.4023C3.58475 7.87261 4.78094 9.0688 6.25125 9.0688C7.72156 9.0688 8.91774 7.87205 8.91718 6.4018V6.12874L9.38918 5.76024C10.4104 4.9853 10.6584 3.53849 9.95493 2.46706ZM8.73849 4.91543L8.05587 5.44874C7.92681 5.54955 7.85106 5.70474 7.85106 5.86899V6.4023C7.85106 7.28436 7.13325 8.00218 6.25119 8.00218C5.36912 8.00218 4.65131 7.28436 4.65131 6.4023V5.86899C4.65131 5.70474 4.57613 5.54955 4.4465 5.44874L3.76388 4.91543C3.74363 4.89943 3.72175 4.88505 3.69938 4.87224C3.59913 4.81518 3.50632 4.74587 3.42313 4.6653C3.1565 4.40824 3.00607 4.06268 2.99913 3.69255C2.99219 3.32243 3.13032 2.97156 3.38738 2.70487C3.65882 2.42331 4.022 2.28143 4.38569 2.28143C4.73231 2.28143 5.0795 2.40993 5.34831 2.66968C5.36644 2.68674 5.38562 2.70331 5.40644 2.71818L5.93975 3.10218C6.12962 3.23924 6.38718 3.23606 6.57387 3.09418L7.136 2.67131C7.44531 2.46437 7.81593 2.39187 8.18074 2.46387C8.54443 2.53637 8.85856 2.74599 9.06493 3.05424C9.46062 3.65899 9.3198 4.47387 8.73849 4.91543Z" fill="white"/>
<path d="M12.7993 0.533325H11.7327V1.59989H12.7993V0.533325Z" fill="white"/>
<path d="M15.9989 17.5988H14.9324V18.6653H15.9989V17.5988Z" fill="white"/>
<path d="M28.7991 3.20251V4.26914C29.3873 4.26914 29.8657 4.74751 29.8657 5.3357C29.8657 5.92388 29.3873 6.40232 28.7991 6.40232V7.46888C29.9755 7.46888 30.9323 6.51213 30.9323 5.3357C30.9323 4.15926 29.9755 3.20251 28.7991 3.20251Z" fill="white"/>
<path d="M2.13321 8.00476H1.06665V9.07138H2.13321V8.00476Z" fill="white"/>
<path d="M1.06754 5.87158H0.000976562V6.9382H1.06754V5.87158Z" fill="white"/>
<path d="M20.7997 17.0676C19.6233 17.0676 18.6665 18.0244 18.6665 19.2008H19.7331C19.7331 18.6126 20.2115 18.1342 20.7997 18.1342C21.3879 18.1342 21.8663 18.6126 21.8663 19.2008H22.9329C22.9329 18.0244 21.9761 17.0676 20.7997 17.0676Z" fill="white"/>
<path d="M6.40077 12.268H6.33358C6.09571 11.3491 5.26002 10.6681 4.26759 10.6681C3.27515 10.6681 2.4389 11.3491 2.20159 12.268H2.1344C0.957969 12.268 0.0012207 13.2247 0.0012207 14.4011C0.0012207 15.5776 0.957969 16.5343 2.1344 16.5343H6.40077C7.57721 16.5343 8.53395 15.5776 8.53395 14.4011C8.53395 13.2247 7.57721 12.268 6.40077 12.268ZM6.40077 15.4683H2.13434C1.54609 15.4683 1.06772 14.9899 1.06772 14.4017C1.06772 13.8135 1.54609 13.3351 2.13434 13.3351H2.66765C2.96203 13.3351 3.20096 13.0961 3.20096 12.8018C3.20096 12.2135 3.67934 11.7352 4.26759 11.7352C4.85584 11.7352 5.33421 12.2136 5.33421 12.8018C5.33421 13.0961 5.57315 13.3351 5.86752 13.3351H6.40083C6.98908 13.3351 7.46746 13.8135 7.46746 14.4017C7.46733 14.99 6.98896 15.4683 6.40077 15.4683Z" fill="white"/>
<path d="M5.33398 15.4678H3.20079C2.90642 15.4678 2.66748 15.7067 2.66748 16.0011V18.1343C2.66748 18.4292 2.90642 18.6676 3.20079 18.6676H5.33398C5.62835 18.6676 5.86729 18.4292 5.86729 18.1343V16.0011C5.86729 15.7067 5.62835 15.4678 5.33398 15.4678ZM4.80066 17.6009H3.7341V16.5344H4.80073V17.6009H4.80066Z" fill="white"/>
<path d="M28.2659 13.8679C27.3838 13.8679 26.666 14.5857 26.666 15.4678C26.666 16.3499 27.3838 17.0677 28.2659 17.0677C29.1479 17.0677 29.8658 16.3499 29.8658 15.4678C29.8658 14.5857 29.1479 13.8679 28.2659 13.8679ZM28.2659 16.0016C27.9715 16.0016 27.7326 15.7622 27.7326 15.4683C27.7326 15.1744 27.9715 14.935 28.2659 14.935C28.5603 14.935 28.7992 15.1739 28.7992 15.4683C28.7992 15.7627 28.5603 16.0016 28.2659 16.0016Z" fill="white"/>
<path d="M28.266 11.7347C26.208 11.7347 24.533 13.4093 24.533 15.4678C24.533 17.5263 26.208 19.2009 28.266 19.2009C30.324 19.2009 31.9991 17.5263 31.9991 15.4678C31.9991 13.4093 30.324 11.7347 28.266 11.7347ZM28.266 18.1348C26.7957 18.1348 25.5995 16.9381 25.5995 15.4683C25.5995 13.998 26.7957 12.8018 28.266 12.8018C29.7363 12.8018 30.9325 13.998 30.9325 15.4683C30.9325 16.9386 29.7363 18.1348 28.266 18.1348Z" fill="white"/>
</svg>
