<svg width="32" height="32" viewBox="0 0 32 32" fill="none" xmlns="http://www.w3.org/2000/svg">
<g clip-path="url(#clip0)">
<path d="M24.5333 5.8667H12.1914C12.1914 5.8667 12.1914 5.8667 12.1909 5.8667C9.11781 5.8667 6.2805 7.66139 4.96369 10.4374L3.09594 14.3707C2.632 15.36 1.62613 15.9994 0.533312 16C0.238375 16 0 16.2389 0 16.5333V19.2C0 19.4656 0.195188 19.6907 0.457625 19.728L7.28431 20.704C7.38775 20.719 7.46619 20.8096 7.46669 20.912V25.6C7.46669 25.895 7.70563 26.1333 8 26.1333H10.1333C10.3877 26.1333 10.6064 25.9536 10.656 25.7045L11.5307 21.3275C11.5541 21.2123 11.6673 21.1365 11.8283 21.1765C13.6593 21.9803 15.6001 22.3915 17.6001 22.4C23.0913 22.4 25.3504 20.2042 25.4438 20.1103L24.6918 19.3541C24.6716 19.3738 22.6076 21.3333 17.6022 21.3333C15.7515 21.3258 13.9531 20.9445 12.2582 20.2C12.1739 20.1631 12.0859 20.1349 11.9952 20.1162C11.3014 19.9743 10.6262 20.4234 10.4849 21.1168L9.69606 25.0666H8.53337V20.9098C8.53069 20.2805 8.05869 19.7376 7.43525 19.648L1.06669 18.7376V17.0299C2.35787 16.8491 3.49869 16.0235 4.06031 14.8267L5.927 10.8955C7.06938 8.48857 9.52756 6.93339 12.1916 6.93339H12.1921H24.5334C28.0625 6.93339 30.9334 9.80432 30.9334 13.3334H32C32 9.21601 28.6507 5.8667 24.5333 5.8667Z" fill="white"/>
<path d="M6.56597 8.38677L7.30091 7.61346C6.54254 6.8929 5.54997 6.46252 4.47479 6.40015H2.13341C1.83904 6.40015 1.6001 6.63908 1.6001 6.93346C1.6001 8.2284 1.81666 9.81771 3.50572 10.6161C3.5281 10.6263 3.5516 10.6353 3.57504 10.6428L5.28704 11.1761L5.60385 10.158L3.92916 9.6359C3.1361 9.24921 2.76541 8.61883 2.68435 7.46683L4.44385 7.46571C5.23635 7.51265 5.98997 7.83952 6.56597 8.38677Z" fill="white"/>
<path d="M6.93339 14.9333H5.8667V16H6.93339V14.9333Z" fill="white"/>
<path d="M13.3322 10.9648C12.2208 12.0272 10.0389 12.2246 8.79089 11.4187L10.0453 10.144C10.7306 9.4608 11.641 9.07836 12.6085 9.06718L12.5962 8.00049C11.3493 8.01486 10.176 8.50768 9.28902 9.39143L7.61971 11.0874C7.51946 11.1898 7.46396 11.328 7.46665 11.4714C7.46933 11.6149 7.52958 11.7509 7.63408 11.8496C7.74183 11.9509 7.84902 12.0458 7.96633 12.1386C8.69808 12.7071 9.68258 12.9839 10.6869 12.9839C11.9333 12.9839 13.2096 12.5572 14.0698 11.7354L13.3322 10.9648Z" fill="white"/>
<path d="M30.9334 13.3332C30.9334 13.6271 30.6944 13.8665 30.4001 13.8665C30.1057 13.8665 29.8667 13.6271 29.8667 13.3332V12.2665C29.8667 11.3844 29.1489 10.6665 28.2667 10.6665C27.3846 10.6665 26.6667 11.3844 26.6667 12.2665V12.7998H27.7334V12.2665C27.7334 11.9726 27.9724 11.7332 28.2667 11.7332C28.5611 11.7332 28.8001 11.9726 28.8001 12.2665V13.3332C28.8001 14.2153 29.5179 14.9332 30.4001 14.9332C31.2822 14.9332 32.0001 14.2153 32.0001 13.3332H30.9334Z" fill="white"/>
<path d="M31.3781 17.6042C31.7813 16.3162 31.9898 14.977 31.9999 13.6213V13.3333H30.9333V13.6175C30.9242 14.8644 30.7316 16.0986 30.3562 17.3007C30.2815 17.5652 30.2186 17.8068 30.1839 17.9999C29.9546 19.3231 30.1845 20.6729 30.8303 21.8399L28.5253 25.0676L27.0495 25.0703L28.7295 22.1316C28.8489 21.9231 28.8138 21.6602 28.6436 21.49L28.2207 21.0671C27.5156 20.386 26.7236 19.802 25.8575 19.3252C24.7839 18.762 24.0884 17.7039 23.9983 16.4937L22.9348 16.5727C23.0527 18.1524 23.9599 19.5343 25.3529 20.2644C26.1273 20.6906 26.8426 21.2186 27.4735 21.8276L27.6015 21.9556L26.1204 24.546C26.0319 24.7054 25.985 24.8852 25.985 25.0644C25.9839 25.6532 26.4618 26.1321 27.0506 26.1332H28.7999C28.9722 26.1332 29.1338 26.05 29.2336 25.9097L31.9003 22.1764C32.0266 21.9993 32.0331 21.7636 31.9163 21.5801C31.272 20.57 31.0299 19.3631 31.2341 18.1854C31.2634 18.0229 31.3189 17.8164 31.3781 17.6042Z" fill="white"/>
</g>
<defs>
<clipPath id="clip0">
<rect width="32" height="32" fill="white"/>
</clipPath>
</defs>
</svg>
