<svg width="32" height="32" viewBox="0 0 32 32" fill="none" xmlns="http://www.w3.org/2000/svg">
<g clip-path="url(#clip0)">
<path d="M27.6528 15.9846L24.2017 10.4594C22.9265 8.4188 20.7286 7.20068 18.3227 7.20068C18.3217 7.20068 18.3206 7.20068 18.3201 7.20068H9.4134C9.41234 7.20068 9.41128 7.20068 9.41071 7.20068C7.00485 7.20068 4.80698 8.4188 3.5318 10.4594L0.0811872 15.9846C-0.0270624 16.1575 -0.0270624 16.3772 0.0811872 16.5495L3.53186 22.0753C4.80704 24.1159 7.00491 25.3334 9.41184 25.3334C9.41234 25.3334 9.4129 25.3334 9.41346 25.3334H18.3201C18.3206 25.3334 18.3212 25.3334 18.3217 25.3334C20.7276 25.3334 22.926 24.1153 24.2023 22.0748L27.653 16.5495C27.7606 16.3766 27.7606 16.1574 27.6528 15.9846ZM23.2977 21.5094C22.2182 23.2357 20.3579 24.2667 18.3217 24.2667C18.3212 24.2667 18.3206 24.2667 18.3201 24.2667H9.4134C9.41284 24.2667 9.41234 24.2667 9.41178 24.2667C7.37497 24.2667 5.51529 23.2357 4.43636 21.5099L1.16225 16.2667L4.43636 11.024C5.51579 9.29768 7.37503 8.26674 9.41127 8.26674C9.41184 8.26674 9.4129 8.26674 9.4134 8.26674H18.3201C18.3211 8.26674 18.3217 8.26674 18.3222 8.26674C20.3579 8.26674 22.2182 9.29768 23.2971 11.024L26.5718 16.2667L23.2977 21.5094Z" fill="white"/>
<path d="M7.46694 14.6667C6.58482 14.6667 5.86694 15.3846 5.86694 16.2667C5.86694 17.1489 6.58482 17.8667 7.46694 17.8667C8.34906 17.8667 9.06693 17.1489 9.06693 16.2667C9.06693 15.3846 8.34906 14.6667 7.46694 14.6667ZM7.46694 16.8001C7.17306 16.8001 6.93363 16.5611 6.93363 16.2667C6.93363 15.9729 7.17306 15.7334 7.46694 15.7334C7.76081 15.7334 8.00025 15.9729 8.00025 16.2667C8.00025 16.5611 7.76081 16.8001 7.46694 16.8001Z" fill="white"/>
<path d="M5.77723 19.9713L2.04393 14.3713L1.15649 14.9628L4.89035 20.5628C4.95385 20.6577 4.97673 20.7719 4.95435 20.8834C4.93198 20.9954 4.86798 21.0919 4.77035 21.157C4.67542 21.2205 4.56236 21.2418 4.44979 21.221C4.33836 21.1986 4.24179 21.1346 4.17836 21.0397L4.17779 21.0386L3.73355 21.3336L3.75486 21.3229L3.25617 21.5725C3.26255 21.5847 3.26949 21.5976 3.27699 21.6098C3.2818 21.6178 3.28661 21.6252 3.29192 21.6327C3.5138 21.9645 3.85136 22.189 4.24286 22.2669C4.34048 22.2866 4.43861 22.2962 4.53617 22.2962C4.82842 22.2962 5.11535 22.2098 5.36548 22.0423C5.69723 21.8204 5.92229 21.4829 6.00016 21.0919C6.07804 20.6999 5.9986 20.302 5.77723 19.9713Z" fill="white"/>
<path d="M31.4674 10.9329C31.4663 10.9329 31.4657 10.9329 31.4647 10.9329C30.2844 10.9329 29.1953 11.5734 28.622 12.6049L26.734 16.0075C26.6443 16.1686 26.6443 16.3643 26.734 16.5254L28.622 19.9286C29.1958 20.96 30.2849 21.6 31.4652 21.6C31.4657 21.6 31.4668 21.6 31.4673 21.5994C31.7617 21.5994 32.0001 21.3605 32.0001 21.0661V11.4662C32.0002 11.1718 31.7618 10.9329 31.4674 10.9329ZM30.934 20.4678C30.3554 20.3227 29.8524 19.9446 29.5549 19.4107L27.8103 16.2667L29.5549 13.1233C29.8525 12.5889 30.3554 12.2107 30.934 12.0657V20.4678Z" fill="white"/>
<path d="M31.4669 15.7334H27.2002V16.8001H31.4669V15.7334Z" fill="white"/>
<path d="M31.4666 13.6001H28.2666V14.6668H31.4666V13.6001Z" fill="white"/>
<path d="M31.4666 17.8667H28.2666V18.9334H31.4666V17.8667Z" fill="white"/>
<path d="M21.8038 4.28162C21.711 4.10831 21.5302 4 21.3334 4H12.3852C12.3835 4 12.3814 4 12.3799 4C11.1287 4 9.96811 4.62081 9.27374 5.66187L8.08975 7.43787C7.98043 7.60106 7.97031 7.81174 8.06306 7.98506C8.15587 8.15837 8.33668 8.26668 8.53343 8.26668H19.2001C19.3782 8.26668 19.5451 8.17762 19.6438 8.02881L21.7771 4.82881C21.8859 4.66562 21.8966 4.45494 21.8038 4.28162ZM18.9148 7.2H9.53024L10.1612 6.25331C10.6572 5.50987 11.486 5.06662 12.3804 5.06662C12.3814 5.06662 12.383 5.06662 12.3841 5.06662H20.3371L18.9148 7.2Z" fill="white"/>
<path d="M12.8905 4.23726L10.7571 7.4375L11.6447 8.02919L13.778 4.82895L12.8905 4.23726Z" fill="white"/>
<path d="M15.5572 4.23627L13.4238 7.43652L14.3114 8.02821L16.4448 4.82796L15.5572 4.23627Z" fill="white"/>
<path d="M18.224 4.23604L16.0906 7.43628L16.9782 8.02797L19.1116 4.82773L18.224 4.23604Z" fill="white"/>
<path d="M14.4 24.7999V26.5039L10.9493 24.3481L10.384 25.2521L14.6507 27.9188C14.7371 27.9727 14.8353 27.9999 14.9334 27.9999C15.0225 27.9999 15.1115 27.9775 15.1921 27.9332C15.3617 27.8388 15.4668 27.6601 15.4668 27.4665V24.7998H14.4V24.7999Z" fill="white"/>
<path d="M12.2389 13.6283L9.70562 11.0896L8.95044 11.8432L11.4837 14.3819C12.5216 15.4213 12.5216 17.112 11.4837 18.1515L8.95044 20.6902L9.70562 21.4433L12.2389 18.9051C13.6912 17.4501 13.6912 15.0832 12.2389 13.6283Z" fill="white"/>
<path d="M24.5333 15.7334H14.9333V16.8001H24.5333V15.7334Z" fill="white"/>
<path d="M20.249 19.3296C20.1871 19.096 19.9749 18.9333 19.7333 18.9333H14.4C14.1979 18.9333 14.0128 19.0475 13.9227 19.2283C13.8326 19.4091 13.8517 19.6251 13.9734 19.7867L15.5734 21.92C15.6774 22.0587 15.8374 22.1333 16.0005 22.1333C16.0907 22.1333 16.1813 22.1103 16.2645 22.0629L19.9978 19.9296C20.208 19.8096 20.3109 19.5632 20.249 19.3296ZM16.1445 20.9029L15.4667 20H17.7253L16.1445 20.9029Z" fill="white"/>
<path d="M27.6773 20.2949C27.5872 20.1141 27.4022 20 27.2 20H24.5334V21.0667H26.1334L24.4432 23.3174C23.9979 23.9104 23.2902 24.2656 22.5499 24.2667H18.3201V25.3334H22.5504C23.6245 25.3312 24.6512 24.8171 25.296 23.9579L27.6267 20.8539C27.7483 20.6922 27.7675 20.4757 27.6773 20.2949Z" fill="white"/>
<path d="M25.6 22.1333H22.9333V23.2H25.6V22.1333Z" fill="white"/>
<path d="M16 10.9333H14.9333V12H16V10.9333Z" fill="white"/>
<path d="M18.6665 10.9333H17.5999V12H18.6665V10.9333Z" fill="white"/>
<path d="M21.3333 10.9333H20.2666V12H21.3333V10.9333Z" fill="white"/>
<path d="M17.6001 13.0667H16.5334V14.1333H17.6001V13.0667Z" fill="white"/>
<path d="M20.2669 13.0667H19.2002V14.1333H20.2669V13.0667Z" fill="white"/>
<path d="M22.9336 13.0667H21.8669V14.1333H22.9336V13.0667Z" fill="white"/>
</g>
<defs>
<clipPath id="clip0">
<rect width="32" height="32" fill="white"/>
</clipPath>
</defs>
</svg>
