<svg width="32" height="32" viewBox="0 0 32 32" fill="none" xmlns="http://www.w3.org/2000/svg">
<g clip-path="url(#clip0)">
<path d="M4.55993 5.95458C4.41112 5.85589 4.2218 5.83883 4.05649 5.90977L0.323187 7.50977C0.126937 7.59352 0 7.78658 0 7.99989C0 8.21321 0.126937 8.40627 0.323187 8.49002L4.05649 10.09C4.12368 10.1188 4.19518 10.1332 4.26662 10.1332C4.36955 10.1332 4.47193 10.1033 4.55993 10.0452C4.7098 9.94652 4.79993 9.77908 4.79993 9.5999V6.39989C4.79993 6.22071 4.7098 6.05327 4.55993 5.95458ZM3.73331 8.7909L1.88743 7.99996L3.73331 7.20852V8.7909Z" fill="white"/>
<path d="M12.8001 0H10.1335C8.07477 0 6.40015 1.67468 6.40015 3.7333C6.40015 4.02768 6.63908 4.26662 6.93346 4.26662H9.60014C11.6588 4.26662 13.3334 2.59193 13.3334 0.533311C13.3335 0.238937 13.0946 0 12.8001 0ZM9.60014 3.19999H7.52071C7.76814 1.98456 8.84602 1.06669 10.1335 1.06669H12.2129C11.9655 2.28212 10.8881 3.19999 9.60014 3.19999Z" fill="white"/>
<path d="M8.00014 5.8667C7.11802 5.8667 6.40015 6.58458 6.40015 7.4667C6.40015 8.34883 7.11802 9.0667 8.00014 9.0667C8.88227 9.0667 9.60014 8.34883 9.60014 7.4667C9.60014 6.58458 8.88233 5.8667 8.00014 5.8667ZM8.00014 8.00008C7.70627 8.00008 7.46683 7.76064 7.46683 7.46676C7.46683 7.17289 7.70627 6.93345 8.00014 6.93345C8.29402 6.93345 8.53345 7.17289 8.53345 7.46676C8.53345 7.76064 8.29402 8.00008 8.00014 8.00008Z" fill="white"/>
<path d="M14.9334 27.2H13.8667V31.4666H14.9334V27.2Z" fill="white"/>
<path d="M20.2667 30.9333H11.7334V32.0001H20.2667V30.9333Z" fill="white"/>
<path d="M18.1333 27.2H17.0667V31.4666H18.1333V27.2Z" fill="white"/>
<path d="M16.0001 28.8H14.4001V29.8667H16.0001V28.8Z" fill="white"/>
<path d="M19.2001 28.8H17.6001V29.8667H19.2001V28.8Z" fill="white"/>
<path d="M4.53445 9.13857C4.3702 9.04314 4.16702 9.04257 4.00164 9.13751L1.2054 10.7381C0.473648 11.1604 0.0117743 11.9477 8.68572e-05 12.7999V13.0463C-0.00528813 13.6874 0.238961 14.2916 0.688586 14.7492C1.13821 15.2063 1.73871 15.4612 2.38402 15.4666H2.40002C3.72377 15.4666 4.80002 14.3903 4.80002 13.0666V9.59989C4.80002 9.41007 4.6987 9.23407 4.53445 9.13857ZM3.73339 13.0666C3.73339 13.8021 3.13552 14.3999 2.40008 14.3999V14.9332L2.38889 14.3999C2.03265 14.3967 1.69927 14.2553 1.44915 14.0015C1.19952 13.7476 1.06352 13.4116 1.06677 13.0511V12.8074C1.07315 12.3364 1.33077 11.8975 1.73715 11.6628L3.73339 10.5199V13.0666Z" fill="white"/>
<path d="M32 3.73334V3.20003H27.2C27.1994 3.20003 27.1994 3.20003 27.1984 3.20003C23.4309 3.20003 19.9487 5.3984 18.3296 8.80002L15.9999 13.6928L12.2779 5.88052C11.5909 4.36909 10.1371 3.34291 8.47095 3.20109C7.27895 3.12534 6.13552 3.51947 5.24271 4.30722C4.3499 5.09546 3.81709 6.18402 3.74246 7.37121C3.73609 7.46665 3.7334 7.56265 3.7334 7.65865V15.7338C3.73715 22.3466 9.11951 27.73 15.7334 27.7332C22.1611 27.7332 27.3787 22.0042 27.7163 17.0389C30.1211 16.7807 32 14.7391 32 12.2666V11.7333H30.2139C31.3025 10.8528 32 9.50614 32 8.00002V7.46671H30.2139C31.3024 6.58615 32 5.23946 32 3.73334ZM30.8955 8.53333C30.6357 10.3403 29.0779 11.7333 27.2 11.7333V12.8H30.8955C30.6357 14.6069 29.0779 16 27.2 16H26.6667V16.5333C26.6667 21.0949 21.6214 26.6666 15.7334 26.6666C9.70776 26.6634 4.80271 21.7589 4.80008 15.7333V7.65865C4.80008 7.58558 4.80221 7.51302 4.80702 7.4389C4.86358 6.53434 5.2689 5.70665 5.94833 5.10715C6.57446 4.55515 7.36327 4.25809 8.18139 4.25809C8.25127 4.25809 8.32164 4.26022 8.39258 4.26447C9.66245 4.37272 10.7793 5.16103 11.3109 6.33059L16.0006 16.1732L19.2928 9.25858C20.7366 6.22602 23.8395 4.26659 27.1984 4.26659C27.199 4.26659 27.1995 4.26659 27.2 4.26659H30.8955C30.6358 6.07352 29.0779 7.46658 27.2 7.46658V8.53327H30.8955V8.53333Z" fill="white"/>
<path d="M17.6 16V17.0667H23.8678C23.376 18.6219 21.9126 19.7312 20.239 19.7334L20.2289 20.8001C20.2326 20.8001 20.2358 20.8001 20.24 20.8001H21.7344C21.2427 22.3569 19.7765 23.4667 18.1008 23.4667C18.0992 23.4667 18.0976 23.4667 18.096 23.4667H16C12.1771 23.4667 9.06669 20.3564 9.06669 16.5334V16.0001H8V16.5334C8 20.9446 11.5888 24.5334 16 24.5334H18.0954C18.0975 24.5334 18.0992 24.5334 18.1013 24.5334C20.5152 24.5334 22.5903 22.7318 22.928 20.3414L22.984 19.9431C24.0805 19.1894 24.8645 17.9986 25.0613 16.6081L25.1472 16.0001H17.6V16Z" fill="white"/>
</g>
<defs>
<clipPath id="clip0">
<rect width="32" height="32" fill="white"/>
</clipPath>
</defs>
</svg>
