<svg width="32" height="32" viewBox="0 0 32 32" fill="none" xmlns="http://www.w3.org/2000/svg">
<g clip-path="url(#clip0)">
<path d="M23.593 14.1017H20.8811V15.1864H23.593V24.9492H20.8811V26.0339H23.593C24.1912 26.0339 24.6777 25.5474 24.6777 24.9492V15.1864C24.6777 14.5882 24.1912 14.1017 23.593 14.1017Z" fill="white"/>
<path d="M24.1354 11.9323H20.8811V13.017H24.1354C25.0324 13.017 25.7625 13.7471 25.7625 14.6441V25.4916C25.7625 26.3886 25.0324 27.1187 24.1354 27.1187H20.8811V28.2034H24.1354C25.6307 28.2034 26.8472 26.9869 26.8472 25.4916V14.6441C26.8472 13.1488 25.6307 11.9323 24.1354 11.9323Z" fill="white"/>
<path d="M20.8815 28.2034H5.69507V29.2881H20.8815V28.2034Z" fill="white"/>
<path d="M20.8816 10.8474H11.1189V11.9322H20.8816V10.8474Z" fill="white"/>
<path d="M8.94932 10.8474H5.69507V11.9322H8.94932V10.8474Z" fill="white"/>
<path d="M13.288 13.017C12.391 13.017 11.6609 13.747 11.6609 14.6441V25.4915C11.6609 26.3886 12.391 27.1187 13.288 27.1187C14.1851 27.1187 14.9151 26.3886 14.9151 25.4915V14.6441C14.9151 13.747 14.1851 13.017 13.288 13.017ZM13.8304 25.4915C13.8304 25.7909 13.5869 26.0339 13.288 26.0339C12.9891 26.0339 12.7456 25.7909 12.7456 25.4915V14.6441C12.7456 14.3452 12.9891 14.1017 13.288 14.1017C13.5869 14.1017 13.8304 14.3452 13.8304 14.6441V25.4915Z" fill="white"/>
<path d="M17.6271 13.017C16.7301 13.017 16 13.747 16 14.6441V25.4915C16 26.3886 16.7301 27.1187 17.6271 27.1187C18.5242 27.1187 19.2543 26.3886 19.2543 25.4915V14.6441C19.2543 13.747 18.5242 13.017 17.6271 13.017ZM18.1695 25.4915C18.1695 25.7909 17.9265 26.0339 17.6271 26.0339C17.3278 26.0339 17.0847 25.7909 17.0847 25.4915V14.6441C17.0847 14.3452 17.3278 14.1017 17.6271 14.1017C17.9265 14.1017 18.1695 14.3452 18.1695 14.6441V25.4915Z" fill="white"/>
<path d="M8.94916 13.017C8.05209 13.017 7.32202 13.747 7.32202 14.6441V25.4915C7.32202 26.3886 8.05209 27.1187 8.94916 27.1187C9.84622 27.1187 10.5763 26.3886 10.5763 25.4915V14.6441C10.5763 13.747 9.84629 13.017 8.94916 13.017ZM9.49153 25.4915C9.49153 25.7909 9.24803 26.0339 8.94916 26.0339C8.65028 26.0339 8.40678 25.7909 8.40678 25.4915V14.6441C8.40678 14.3452 8.65028 14.1017 8.94916 14.1017C9.24803 14.1017 9.49153 14.3452 9.49153 14.6441V25.4915Z" fill="white"/>
<path d="M18.1696 3.79662H16.0001C16.0001 1.70306 14.297 0 12.2035 0C10.1099 0 8.40684 1.70306 8.40684 3.79662C6.61215 3.79662 5.15259 5.25613 5.15259 7.05088H6.23734C6.23734 5.85438 7.21034 4.88137 8.40684 4.88137H8.94921C9.24859 4.88137 9.49159 4.63838 9.49159 4.339V3.79662C9.49159 2.30131 10.7081 1.08475 12.2035 1.08475C13.6988 1.08475 14.9153 2.30131 14.9153 3.79662V4.339C14.9153 4.63838 15.1583 4.88137 15.4577 4.88137H18.1696C19.3661 4.88137 20.3391 5.85438 20.3391 7.05088H21.4238C21.4238 5.25613 19.9643 3.79662 18.1696 3.79662Z" fill="white"/>
<path d="M20.8815 8.13565H11.1187C10.8193 8.13565 10.5763 8.37865 10.5763 8.67803V11.9323C10.5763 12.2312 10.3328 12.4747 10.034 12.4747C9.73509 12.4747 9.49159 12.2312 9.49159 11.9323V7.0509H8.40684V8.13565H5.69496C5.39559 8.13565 5.15259 8.37865 5.15259 8.67803V31.4577C5.15259 31.7577 5.39559 32.0001 5.69496 32.0001H20.8814C21.1813 32.0001 21.4238 31.7577 21.4238 31.4577V8.67803C21.4238 8.37865 21.1814 8.13565 20.8815 8.13565ZM20.3391 30.9153H6.2374V9.2204H8.4069V11.9323C8.4069 12.8293 9.13696 13.5594 10.034 13.5594C10.9311 13.5594 11.6611 12.8293 11.6611 11.9323V9.2204H20.3391V30.9153Z" fill="white"/>
</g>
<defs>
<clipPath id="clip0">
<rect width="32" height="32" fill="white"/>
</clipPath>
</defs>
</svg>
