<svg width="32" height="32" viewBox="0 0 32 32" fill="none" xmlns="http://www.w3.org/2000/svg">
<g clip-path="url(#clip0)">
<path d="M5.33326 9.06689H4.2666V10.1336H5.33326V9.06689Z" fill="white"/>
<path d="M31.9618 21.1356L31.1506 19.1085C31.0253 18.7948 31.0018 18.4557 31.0824 18.1298L31.9832 14.5299C31.9939 14.4878 31.9992 14.444 31.9992 14.4003V12.8003H30.9325V14.3346L30.0467 17.8711C29.9112 18.4178 29.9501 18.9825 30.1597 19.5047L30.8978 21.35L28.948 27.1999H27.8382L28.7896 21.9622C28.8216 21.79 28.7661 21.6134 28.6424 21.4896L25.8473 18.6945C25.3427 18.1911 25.0649 17.5202 25.0654 16.8055V15.4669H23.9988V16.8055C23.9982 17.8055 24.3876 18.7447 25.0937 19.4497L27.6909 22.0469L26.6744 27.6383C26.6456 27.7941 26.6883 27.9535 26.7896 28.0751C26.8909 28.1962 27.0408 28.2665 27.1992 28.2665H29.3324C29.5623 28.2665 29.7661 28.1199 29.8391 27.9023L31.9724 21.5025C32.0124 21.3825 32.0087 21.2529 31.9618 21.1356Z" fill="white"/>
<path d="M27.1993 6.40043H7.39925C7.16138 5.48151 6.32515 4.80047 5.33318 4.80047H1.82077L0.910352 3.89012C0.757793 3.73706 0.527987 3.69175 0.329054 3.77437C0.130122 3.85705 0 4.05174 0 4.26717V4.85915C0 6.29699 1.1701 7.46709 2.60793 7.46709H3.24204L0.389303 11.5411C-0.0896227 12.2285 -0.128559 13.1416 0.296492 13.8776C0.701795 14.5453 1.46021 14.9443 2.20788 14.9341H5.7966C5.98435 14.9363 6.15872 15.0381 6.28034 15.2435L9.59976 19.9041V27.7333C9.59976 28.0282 9.83869 28.2666 10.1331 28.2666H12.2663C12.5181 28.2666 12.7351 28.0911 12.7879 27.8453L14.2978 20.8001H26.666V19.7335H13.8663C13.6146 19.7335 13.3975 19.9089 13.3447 20.1548L11.8349 27.1999H10.6664V19.7335C10.6664 19.6225 10.6317 19.5143 10.5672 19.4242L7.17632 14.667C6.8947 14.1795 6.37046 13.8734 5.80248 13.867H2.19726C1.79939 13.8846 1.41596 13.667 1.21384 13.3337C1.00104 12.9646 1.02079 12.5001 1.26347 12.1518L4.70338 7.23997C4.8175 7.07679 4.83138 6.86398 4.73963 6.68742C4.64788 6.51143 4.46551 6.40049 4.26658 6.40049H2.60793C2.12738 6.40049 1.69808 6.17968 1.4149 5.83413C1.47359 5.856 1.53596 5.86719 1.59996 5.86719H5.33318C5.92141 5.86719 6.39984 6.34555 6.39984 6.93385C6.39984 7.22822 6.63877 7.46715 6.93314 7.46715H27.1993C29.2574 7.46715 30.9325 9.1418 30.9325 11.2004V12.8696H31.9992V11.2004C31.9992 8.554 29.8462 6.40043 27.1993 6.40043Z" fill="white"/>
<path d="M30.9327 11.7337V12.8003C30.9327 13.3886 30.4543 13.867 29.866 13.867C29.2777 13.867 28.7994 13.3886 28.7994 12.8003V12.267C28.7994 11.0905 27.8426 10.1338 26.6661 10.1338H25.0662V11.2004H26.6661C27.2544 11.2004 27.7328 11.6788 27.7328 12.2671V12.8004C27.7328 13.9769 28.6896 14.9337 29.866 14.9337C31.0425 14.9337 31.9994 13.9768 31.9994 12.8003V11.7336H30.9327V11.7337Z" fill="white"/>
</g>
<defs>
<clipPath id="clip0">
<rect width="32" height="32" fill="white"/>
</clipPath>
</defs>
</svg>
