<svg width="32" height="32" viewBox="0 0 32 32" fill="none" xmlns="http://www.w3.org/2000/svg">
<path d="M8.90854 23.8445L8.15435 23.0903L3.79743 27.4473C3.69718 27.547 3.64062 27.683 3.64062 27.8249C3.64062 27.9662 3.69662 28.1017 3.79687 28.2019C4.42037 28.8259 4.42087 29.8409 3.79793 30.4649C3.17444 31.0889 2.15844 31.0906 1.53494 30.4666C0.911444 29.8426 0.910944 28.8276 1.53388 28.2036C1.83575 27.9011 2.23788 27.7348 2.66512 27.7342L2.66406 26.6675C1.95207 26.6681 1.28269 26.9454 0.779757 27.4494C-0.259176 28.4899 -0.258114 30.1817 0.781882 31.2207C1.30138 31.7402 1.9835 31.9999 2.66619 31.9999C3.34943 31.9994 4.03318 31.7397 4.55262 31.2191C5.46249 30.3076 5.57505 28.8969 4.89024 27.8628L8.90854 23.8445Z" fill="white"/>
<path d="M11.8878 19.3564L10.2876 20.9565L11.0418 21.7108L12.642 20.1106L11.8878 19.3564Z" fill="white"/>
<path d="M17.2208 14.0234L15.6206 15.6235L16.3749 16.3778L17.975 14.7776L17.2208 14.0234Z" fill="white"/>
<path d="M20.9524 10.2917L19.3523 11.8918L20.1065 12.6461L21.7067 11.0459L20.9524 10.2917Z" fill="white"/>
<path d="M26.286 4.95819L24.6858 6.55835L25.44 7.3126L27.0402 5.71244L26.286 4.95819Z" fill="white"/>
<path d="M31.0864 0.156957L28.4202 2.82324L29.1744 3.57749L31.8407 0.911209L31.0864 0.156957Z" fill="white"/>
<path d="M31.8426 5.4899L26.5091 0.156421C26.3005 -0.0521404 25.9634 -0.0521404 25.7549 0.156421L23.6215 2.28979C23.4129 2.49835 23.4129 2.83541 23.6215 3.04397L28.955 8.37745C29.059 8.48145 29.1955 8.5337 29.332 8.5337C29.4686 8.5337 29.6051 8.48145 29.7091 8.37745L31.8425 6.24408C32.0511 6.03552 32.0511 5.6984 31.8426 5.4899ZM29.3321 7.24621L24.7528 2.66685L26.132 1.2876L30.7113 5.86696L29.3321 7.24621Z" fill="white"/>
<path d="M27.357 8.46799L23.5329 4.64388C22.9281 4.03907 21.8737 4.04014 21.2704 4.64388L19.0448 6.869C18.4213 7.4925 18.4213 8.50799 19.0448 9.13149L22.8694 12.9556C23.1713 13.2575 23.5729 13.4239 24.0007 13.4239C24.4279 13.4239 24.8301 13.2575 25.1319 12.9562L27.357 10.731C27.981 10.107 27.981 9.09205 27.357 8.46799ZM26.6029 9.9763L24.3778 12.2009C24.1761 12.4025 23.8247 12.402 23.6236 12.2009L19.7989 8.37681C19.5909 8.16881 19.5909 7.83068 19.7989 7.62262L22.0251 5.39751C22.2251 5.19694 22.576 5.19538 22.7787 5.39751L26.6028 9.22162C26.8109 9.43018 26.8109 9.7683 26.6029 9.9763Z" fill="white"/>
<path d="M22.7754 14.5568L17.4419 9.22332C17.2334 9.01475 16.8963 9.01475 16.6877 9.22332L14.5544 11.3567C14.3458 11.5653 14.3458 11.9024 14.5544 12.1109L19.8879 17.4444C19.9919 17.5484 20.1284 17.6007 20.2649 17.6007C20.4015 17.6007 20.538 17.5484 20.642 17.4444L22.7754 15.311C22.984 15.1024 22.984 14.7654 22.7754 14.5568ZM20.2649 16.3131L15.6856 11.7337L17.0648 10.3545L21.6442 14.9339L20.2649 16.3131Z" fill="white"/>
<path d="M18.29 17.5355L14.4659 13.7114C13.8414 13.0868 12.8265 13.0874 12.203 13.7114L9.97784 15.9365C9.67541 16.2384 9.50903 16.64 9.50903 17.0677C9.50903 17.4949 9.67541 17.8971 9.97784 18.199L13.8019 22.0231C14.1139 22.3351 14.5236 22.4909 14.9337 22.4909C15.3433 22.4909 15.7529 22.3351 16.0649 22.0231L18.29 19.798C18.5919 19.4961 18.7589 19.094 18.7589 18.6667C18.7589 18.239 18.5919 17.8369 18.29 17.5355ZM17.5364 19.0433L15.3113 21.2684C15.1028 21.477 14.7636 21.4764 14.5566 21.2684L10.7325 17.4443C10.6317 17.3435 10.5763 17.2096 10.5763 17.0672C10.5763 16.9243 10.6317 16.791 10.732 16.6907C10.732 16.6901 10.732 16.6901 10.732 16.6901L12.9571 14.465C13.0617 14.3615 13.1982 14.3092 13.3348 14.3092C13.4713 14.3092 13.6078 14.3615 13.7124 14.465L17.5365 18.2897C17.6373 18.3899 17.6927 18.5233 17.6927 18.6662C17.6927 18.8086 17.6367 18.9425 17.5364 19.0433Z" fill="white"/>
<path d="M13.7086 23.6237L8.37509 18.2902C8.16653 18.0816 7.82947 18.0816 7.6209 18.2902L5.48748 20.4236C5.27891 20.6321 5.27891 20.9692 5.48748 21.1778L10.821 26.5112C10.925 26.6152 11.0615 26.6675 11.198 26.6675C11.3346 26.6675 11.4711 26.6152 11.5751 26.5112L13.7085 24.3779C13.9171 24.1693 13.9171 23.8322 13.7086 23.6237ZM11.1981 25.38L6.61872 20.8006L7.99797 19.4214L12.5773 24.0008L11.1981 25.38Z" fill="white"/>
<path d="M22.3982 6.93359H21.3315V8.00028H22.3982V6.93359Z" fill="white"/>
<path d="M23.9986 8.53369H22.9319V9.60037H23.9986V8.53369Z" fill="white"/>
<path d="M13.865 16.0007H12.7983V17.0674H13.865V16.0007Z" fill="white"/>
</svg>
