<svg width="32" height="32" viewBox="0 0 32 32" fill="none" xmlns="http://www.w3.org/2000/svg">
<path d="M24.29 9.23993C24.224 9.21027 24.1524 9.19493 24.08 9.19493C24.0076 9.19493 23.936 9.21027 23.87 9.23993C23.8039 9.27174 23.7452 9.31712 23.6979 9.37312C23.6505 9.42912 23.6154 9.49448 23.595 9.56493L23.505 9.90993C22.8845 9.65745 22.2501 9.44044 21.605 9.25993L21.73 8.80493C21.7627 8.67637 21.744 8.5401 21.6776 8.4252C21.6113 8.3103 21.5027 8.22588 21.375 8.18993C20.2168 7.88349 19.0339 7.67937 17.84 7.57993C17.7232 7.57131 17.607 7.60348 17.5113 7.67096C17.4155 7.73843 17.3462 7.83703 17.315 7.94993L17.16 8.53493C16.455 8.49993 15.77 8.48993 15.095 8.51993L15.19 8.16993C15.2092 8.09326 15.2101 8.01318 15.1929 7.93606C15.1756 7.85894 15.1406 7.78692 15.0906 7.72573C15.0405 7.66454 14.9769 7.61588 14.9048 7.58363C14.8326 7.55137 14.754 7.53641 14.675 7.53993C13.3724 7.6187 12.0801 7.81958 10.815 8.13993C10.7292 8.16239 10.6507 8.207 10.5875 8.2693C10.5244 8.3316 10.4787 8.40941 10.455 8.49493L10.24 9.30493C9.45846 9.53055 8.69333 9.80954 7.95 10.1399L7.975 10.0449C7.98932 9.99797 7.99607 9.94902 7.995 9.89993C7.99546 9.77853 7.95147 9.66116 7.87133 9.56997C7.79119 9.47878 7.68045 9.42008 7.56 9.40493C7.43913 9.38944 7.31672 9.41783 7.215 9.48493C3.32 11.4449 1 14.6249 1 17.9999C1 24.0099 7.795 24.4999 16 24.4999C24.205 24.4999 31 24.0099 31 17.9999C31 14.4649 28.49 11.1899 24.29 9.23993ZM21.02 11.4499L21.345 10.2349C21.9888 10.4163 22.6216 10.635 23.24 10.8899L22.95 11.9699C22.9178 12.0971 22.8599 12.2164 22.7799 12.3204C22.7 12.4245 22.5996 12.5111 22.485 12.5749C22.3714 12.6414 22.2456 12.6846 22.1151 12.7017C21.9846 12.7189 21.8519 12.7098 21.725 12.6749C21.5978 12.6427 21.4785 12.5848 21.3745 12.5049C21.2705 12.4249 21.1839 12.3245 21.12 12.2099C21.0534 12.0964 21.0102 11.9706 20.993 11.8401C20.9758 11.7095 20.985 11.5769 21.02 11.4499ZM14.82 9.53493C15.511 9.49499 16.2035 9.48999 16.895 9.51993L15.93 13.1199C15.8612 13.3762 15.6936 13.5947 15.4641 13.7278C15.2345 13.8609 14.9616 13.8976 14.705 13.8299C14.5778 13.7977 14.4585 13.7398 14.3545 13.6599C14.2505 13.5799 14.1639 13.4795 14.1 13.3649C14.0334 13.2514 13.9902 13.1256 13.973 12.9951C13.9558 12.8645 13.965 12.7319 14 12.6049L14.82 9.53493ZM7.5 11.8299L7.61 11.4099C8.35929 11.0281 9.13653 10.7039 9.935 10.4399L9.425 12.3449C9.39303 12.4733 9.33581 12.5941 9.25667 12.7001C9.17754 12.8062 9.07807 12.8954 8.96409 12.9626C8.8501 13.0298 8.72387 13.0736 8.59277 13.0915C8.46166 13.1094 8.32831 13.101 8.20049 13.0668C8.07266 13.0326 7.95293 12.9733 7.84827 12.8923C7.74362 12.8114 7.65613 12.7104 7.59093 12.5952C7.52572 12.4801 7.4841 12.3531 7.46849 12.2217C7.45287 12.0903 7.46359 11.9571 7.5 11.8299ZM16 23.4999C6.92 23.4999 2 22.6249 2 17.9999C2 15.2899 3.74 12.6949 6.71 10.9049L6.53 11.5699C6.39275 12.0825 6.46472 12.6285 6.73009 13.088C6.99545 13.5474 7.43247 13.8827 7.945 14.0199C8.45753 14.1572 9.00359 14.0852 9.46306 13.8198C9.92252 13.5545 10.2578 13.1175 10.395 12.6049L11.345 9.03993C12.2315 8.82733 13.1322 8.67862 14.04 8.59493L13.03 12.3449C12.8942 12.8582 12.9661 13.4043 13.23 13.8649C13.428 14.2084 13.7235 14.4854 14.079 14.6607C14.4346 14.8361 14.8342 14.902 15.2272 14.8501C15.6203 14.7981 15.989 14.6307 16.2868 14.369C16.5846 14.1073 16.798 13.763 16.9 13.3799L18.175 8.61493C19.0016 8.70163 19.8216 8.84192 20.63 9.03493L20.05 11.1899C19.9121 11.7031 19.9837 12.2501 20.2491 12.7105C20.5144 13.1709 20.9518 13.507 21.465 13.6449C21.9782 13.7828 22.5252 13.7112 22.9856 13.4459C23.446 13.1805 23.7821 12.7431 23.92 12.2299L24.405 10.4099C27.92 12.2099 30 15.0149 30 17.9999C30 22.6249 25.08 23.4999 16 23.4999Z" fill="white"/>
</svg>
