<svg width="32" height="32" viewBox="0 0 32 32" fill="none" xmlns="http://www.w3.org/2000/svg">
<path d="M12 26H11C10.6022 26 10.2206 26.158 9.93934 26.4393C9.65804 26.7206 9.5 27.1022 9.5 27.5C9.5 27.8978 9.65804 28.2794 9.93934 28.5607C10.2206 28.842 10.6022 29 11 29H12C12.3978 29 12.7794 28.842 13.0607 28.5607C13.342 28.2794 13.5 27.8978 13.5 27.5C13.5 27.1022 13.342 26.7206 13.0607 26.4393C12.7794 26.158 12.3978 26 12 26ZM12 28H11C10.8674 28 10.7402 27.9473 10.6464 27.8536C10.5527 27.7598 10.5 27.6326 10.5 27.5C10.5 27.3674 10.5527 27.2402 10.6464 27.1464C10.7402 27.0527 10.8674 27 11 27H12C12.1326 27 12.2598 27.0527 12.3536 27.1464C12.4473 27.2402 12.5 27.3674 12.5 27.5C12.5 27.6326 12.4473 27.7598 12.3536 27.8536C12.2598 27.9473 12.1326 28 12 28Z" fill="#D0C9D6"/>
<path d="M16.5 26H15.5C15.1022 26 14.7206 26.158 14.4393 26.4393C14.158 26.7206 14 27.1022 14 27.5C14 27.8978 14.158 28.2794 14.4393 28.5607C14.7206 28.842 15.1022 29 15.5 29H16.5C16.8978 29 17.2794 28.842 17.5607 28.5607C17.842 28.2794 18 27.8978 18 27.5C18 27.1022 17.842 26.7206 17.5607 26.4393C17.2794 26.158 16.8978 26 16.5 26ZM16.5 28H15.5C15.3674 28 15.2402 27.9473 15.1464 27.8536C15.0527 27.7598 15 27.6326 15 27.5C15 27.3674 15.0527 27.2402 15.1464 27.1464C15.2402 27.0527 15.3674 27 15.5 27H16.5C16.6326 27 16.7598 27.0527 16.8536 27.1464C16.9473 27.2402 17 27.3674 17 27.5C17 27.6326 16.9473 27.7598 16.8536 27.8536C16.7598 27.9473 16.6326 28 16.5 28Z" fill="#D0C9D6"/>
<path d="M21 26H20C19.6022 26 19.2206 26.158 18.9393 26.4393C18.658 26.7206 18.5 27.1022 18.5 27.5C18.5 27.8978 18.658 28.2794 18.9393 28.5607C19.2206 28.842 19.6022 29 20 29H21C21.3978 29 21.7794 28.842 22.0607 28.5607C22.342 28.2794 22.5 27.8978 22.5 27.5C22.5 27.1022 22.342 26.7206 22.0607 26.4393C21.7794 26.158 21.3978 26 21 26ZM21 28H20C19.8674 28 19.7402 27.9473 19.6464 27.8536C19.5527 27.7598 19.5 27.6326 19.5 27.5C19.5 27.3674 19.5527 27.2402 19.6464 27.1464C19.7402 27.0527 19.8674 27 20 27H21C21.1326 27 21.2598 27.0527 21.3536 27.1464C21.4473 27.2402 21.5 27.3674 21.5 27.5C21.5 27.6326 21.4473 27.7598 21.3536 27.8536C21.2598 27.9473 21.1326 28 21 28Z" fill="#D0C9D6"/>
<path d="M12 22.5H11C10.6022 22.5 10.2206 22.658 9.93934 22.9393C9.65804 23.2206 9.5 23.6022 9.5 24C9.5 24.3978 9.65804 24.7794 9.93934 25.0607C10.2206 25.342 10.6022 25.5 11 25.5H12C12.3978 25.5 12.7794 25.342 13.0607 25.0607C13.342 24.7794 13.5 24.3978 13.5 24C13.5 23.6022 13.342 23.2206 13.0607 22.9393C12.7794 22.658 12.3978 22.5 12 22.5ZM12 24.5H11C10.8674 24.5 10.7402 24.4473 10.6464 24.3536C10.5527 24.2598 10.5 24.1326 10.5 24C10.5 23.8674 10.5527 23.7402 10.6464 23.6464C10.7402 23.5527 10.8674 23.5 11 23.5H12C12.1326 23.5 12.2598 23.5527 12.3536 23.6464C12.4473 23.7402 12.5 23.8674 12.5 24C12.5 24.1326 12.4473 24.2598 12.3536 24.3536C12.2598 24.4473 12.1326 24.5 12 24.5Z" fill="#D0C9D6"/>
<path d="M16.5 22.5H15.5C15.1022 22.5 14.7206 22.658 14.4393 22.9393C14.158 23.2206 14 23.6022 14 24C14 24.3978 14.158 24.7794 14.4393 25.0607C14.7206 25.342 15.1022 25.5 15.5 25.5H16.5C16.8978 25.5 17.2794 25.342 17.5607 25.0607C17.842 24.7794 18 24.3978 18 24C18 23.6022 17.842 23.2206 17.5607 22.9393C17.2794 22.658 16.8978 22.5 16.5 22.5ZM16.5 24.5H15.5C15.3674 24.5 15.2402 24.4473 15.1464 24.3536C15.0527 24.2598 15 24.1326 15 24C15 23.8674 15.0527 23.7402 15.1464 23.6464C15.2402 23.5527 15.3674 23.5 15.5 23.5H16.5C16.6326 23.5 16.7598 23.5527 16.8536 23.6464C16.9473 23.7402 17 23.8674 17 24C17 24.1326 16.9473 24.2598 16.8536 24.3536C16.7598 24.4473 16.6326 24.5 16.5 24.5Z" fill="#D0C9D6"/>
<path d="M21 22.5H20C19.6022 22.5 19.2206 22.658 18.9393 22.9393C18.658 23.2206 18.5 23.6022 18.5 24C18.5 24.3978 18.658 24.7794 18.9393 25.0607C19.2206 25.342 19.6022 25.5 20 25.5H21C21.3978 25.5 21.7794 25.342 22.0607 25.0607C22.342 24.7794 22.5 24.3978 22.5 24C22.5 23.6022 22.342 23.2206 22.0607 22.9393C21.7794 22.658 21.3978 22.5 21 22.5ZM21 24.5H20C19.8674 24.5 19.7402 24.4473 19.6464 24.3536C19.5527 24.2598 19.5 24.1326 19.5 24C19.5 23.8674 19.5527 23.7402 19.6464 23.6464C19.7402 23.5527 19.8674 23.5 20 23.5H21C21.1326 23.5 21.2598 23.5527 21.3536 23.6464C21.4473 23.7402 21.5 23.8674 21.5 24C21.5 24.1326 21.4473 24.2598 21.3536 24.3536C21.2598 24.4473 21.1326 24.5 21 24.5Z" fill="#D0C9D6"/>
<path d="M12 19H11C10.6022 19 10.2206 19.158 9.93934 19.4393C9.65804 19.7206 9.5 20.1022 9.5 20.5C9.5 20.8978 9.65804 21.2794 9.93934 21.5607C10.2206 21.842 10.6022 22 11 22H12C12.3978 22 12.7794 21.842 13.0607 21.5607C13.342 21.2794 13.5 20.8978 13.5 20.5C13.5 20.1022 13.342 19.7206 13.0607 19.4393C12.7794 19.158 12.3978 19 12 19ZM12 21H11C10.8674 21 10.7402 20.9473 10.6464 20.8536C10.5527 20.7598 10.5 20.6326 10.5 20.5C10.5 20.3674 10.5527 20.2402 10.6464 20.1464C10.7402 20.0527 10.8674 20 11 20H12C12.1326 20 12.2598 20.0527 12.3536 20.1464C12.4473 20.2402 12.5 20.3674 12.5 20.5C12.5 20.6326 12.4473 20.7598 12.3536 20.8536C12.2598 20.9473 12.1326 21 12 21Z" fill="#D0C9D6"/>
<path d="M16.5 19H15.5C15.1022 19 14.7206 19.158 14.4393 19.4393C14.158 19.7206 14 20.1022 14 20.5C14 20.8978 14.158 21.2794 14.4393 21.5607C14.7206 21.842 15.1022 22 15.5 22H16.5C16.8978 22 17.2794 21.842 17.5607 21.5607C17.842 21.2794 18 20.8978 18 20.5C18 20.1022 17.842 19.7206 17.5607 19.4393C17.2794 19.158 16.8978 19 16.5 19ZM16.5 21H15.5C15.3674 21 15.2402 20.9473 15.1464 20.8536C15.0527 20.7598 15 20.6326 15 20.5C15 20.3674 15.0527 20.2402 15.1464 20.1464C15.2402 20.0527 15.3674 20 15.5 20H16.5C16.6326 20 16.7598 20.0527 16.8536 20.1464C16.9473 20.2402 17 20.3674 17 20.5C17 20.6326 16.9473 20.7598 16.8536 20.8536C16.7598 20.9473 16.6326 21 16.5 21Z" fill="#D0C9D6"/>
<path d="M21 19H20C19.6022 19 19.2206 19.158 18.9393 19.4393C18.658 19.7206 18.5 20.1022 18.5 20.5C18.5 20.8978 18.658 21.2794 18.9393 21.5607C19.2206 21.842 19.6022 22 20 22H21C21.3978 22 21.7794 21.842 22.0607 21.5607C22.342 21.2794 22.5 20.8978 22.5 20.5C22.5 20.1022 22.342 19.7206 22.0607 19.4393C21.7794 19.158 21.3978 19 21 19ZM21 21H20C19.8674 21 19.7402 20.9473 19.6464 20.8536C19.5527 20.7598 19.5 20.6326 19.5 20.5C19.5 20.3674 19.5527 20.2402 19.6464 20.1464C19.7402 20.0527 19.8674 20 20 20H21C21.1326 20 21.2598 20.0527 21.3536 20.1464C21.4473 20.2402 21.5 20.3674 21.5 20.5C21.5 20.6326 21.4473 20.7598 21.3536 20.8536C21.2598 20.9473 21.1326 21 21 21Z" fill="#D0C9D6"/>
<path d="M11.5 16.5H20.5C20.6326 16.5 20.7598 16.4473 20.8536 16.3536C20.9473 16.2598 21 16.1326 21 16V13C21 12.8674 20.9473 12.7402 20.8536 12.6464C20.7598 12.5527 20.6326 12.5 20.5 12.5H11.5C11.3674 12.5 11.2402 12.5527 11.1464 12.6464C11.0527 12.7402 11 12.8674 11 13V16C11 16.1326 11.0527 16.2598 11.1464 16.3536C11.2402 16.4473 11.3674 16.5 11.5 16.5ZM12 13.5H20V15.5H12V13.5Z" fill="#D0C9D6"/>
<path d="M23 7.00004H22.41C22.3062 6.70867 22.1152 6.45635 21.8629 6.27741C21.6106 6.09848 21.3093 6.00163 21 6.00004V1.50004C21 1.48504 20.99 1.47004 20.99 1.45504C20.9887 1.42248 20.9819 1.39037 20.97 1.36004C20.9614 1.32733 20.9497 1.29552 20.935 1.26504C20.925 1.25004 20.925 1.23504 20.915 1.22504C20.9063 1.21234 20.8962 1.20061 20.885 1.19004L20.81 1.11504C20.7862 1.09666 20.7611 1.07995 20.735 1.06504C20.7059 1.05121 20.6758 1.03952 20.645 1.03004C20.6123 1.0205 20.5788 1.01381 20.545 1.01004C20.53 1.01004 20.515 1.00004 20.5 1.00004C20.4846 1.00097 20.4694 1.00434 20.455 1.01004C20.4209 1.01186 20.3872 1.0186 20.355 1.03004C20.3242 1.03952 20.2941 1.05121 20.265 1.06504C20.25 1.07504 20.235 1.07504 20.225 1.08504L19 1.90004L17.77 1.08504C17.6893 1.02888 17.5933 0.998781 17.495 0.998781C17.3967 0.998781 17.3007 1.02888 17.22 1.08504L15.995 1.90004L14.775 1.08504C14.6934 1.02886 14.5966 0.998779 14.4975 0.998779C14.3984 0.998779 14.3016 1.02886 14.22 1.08504L13 1.90004L11.78 1.08504C11.765 1.07504 11.75 1.07504 11.735 1.06504C11.7059 1.05121 11.6758 1.03952 11.645 1.03004C11.6128 1.0186 11.5791 1.01186 11.545 1.01004C11.53 1.01004 11.515 1.00004 11.5 1.00004C11.485 1.00004 11.47 1.01004 11.455 1.01004C11.4212 1.01381 11.3877 1.0205 11.355 1.03004C11.3242 1.03952 11.2941 1.05121 11.265 1.06504C11.2389 1.07995 11.2138 1.09666 11.19 1.11504C11.1642 1.13757 11.1407 1.1627 11.12 1.19004C11.1073 1.19877 11.0956 1.20883 11.085 1.22004C11.075 1.23504 11.075 1.25004 11.065 1.26504C11.0512 1.29415 11.0395 1.32423 11.03 1.35504C11.0186 1.38724 11.0118 1.42092 11.01 1.45504C11.01 1.47004 11 1.48504 11 1.50004V6.00004C10.6907 6.00163 10.3894 6.09848 10.1371 6.27741C9.88482 6.45635 9.69378 6.70867 9.59 7.00004H9C8.60254 7.00122 8.2217 7.15964 7.94065 7.44069C7.6596 7.72174 7.50119 8.10258 7.5 8.50004V29.5C7.50119 29.8975 7.6596 30.2783 7.94065 30.5594C8.2217 30.8404 8.60254 30.9989 9 31H23C23.3975 30.9989 23.7783 30.8404 24.0593 30.5594C24.3404 30.2783 24.4988 29.8975 24.5 29.5V8.50004C24.4988 8.10258 24.3404 7.72174 24.0593 7.44069C23.7783 7.15964 23.3975 7.00122 23 7.00004ZM12 2.43504L12.72 2.91504C12.8016 2.97122 12.8984 3.0013 12.9975 3.0013C13.0966 3.0013 13.1934 2.97122 13.275 2.91504L14.495 2.10004L15.72 2.91504C15.8012 2.96996 15.8969 2.99954 15.995 3.00004C16.0946 2.99958 16.1919 2.97003 16.275 2.91504L17.495 2.10004L18.72 2.91504C18.8016 2.97122 18.8984 3.0013 18.9975 3.0013C19.0966 3.0013 19.1934 2.97122 19.275 2.91504L20 2.43504V11H12V2.43504ZM10.5 7.50004C10.5 7.36743 10.5527 7.24025 10.6464 7.14648C10.7402 7.05272 10.8674 7.00004 11 7.00004V11.5C11 11.6326 11.0527 11.7598 11.1464 11.8536C11.2402 11.9474 11.3674 12 11.5 12H20.5C20.6326 12 20.7598 11.9474 20.8536 11.8536C20.9473 11.7598 21 11.6326 21 11.5V7.00004C21.1326 7.00004 21.2598 7.05272 21.3536 7.14648C21.4473 7.24025 21.5 7.36743 21.5 7.50004V16.5C21.5 16.6326 21.4473 16.7598 21.3536 16.8536C21.2598 16.9474 21.1326 17 21 17H11C10.8674 17 10.7402 16.9474 10.6464 16.8536C10.5527 16.7598 10.5 16.6326 10.5 16.5V7.50004ZM23.5 29.5C23.5 29.6326 23.4473 29.7598 23.3536 29.8536C23.2598 29.9474 23.1326 30 23 30H9C8.86739 30 8.74021 29.9474 8.64645 29.8536C8.55268 29.7598 8.5 29.6326 8.5 29.5V8.50004C8.5 8.36743 8.55268 8.24025 8.64645 8.14648C8.74021 8.05272 8.86739 8.00004 9 8.00004H9.5V16.5C9.50119 16.8975 9.6596 17.2783 9.94065 17.5594C10.2217 17.8404 10.6025 17.9989 11 18H21C21.3975 17.9989 21.7783 17.8404 22.0593 17.5594C22.3404 17.2783 22.4988 16.8975 22.5 16.5V8.00004H23C23.1326 8.00004 23.2598 8.05272 23.3536 8.14648C23.4473 8.24025 23.5 8.36743 23.5 8.50004V29.5Z" fill="#D0C9D6"/>
</svg>
