<svg width="24" height="24" viewBox="0 0 24 24" fill="none" xmlns="http://www.w3.org/2000/svg">
<path d="M12 23.5C5.64974 23.5 0.5 18.3503 0.5 12C0.5 5.64974 5.64974 0.5 12 0.5C18.3503 0.5 23.5 5.64974 23.5 12C23.5 18.3503 18.3503 23.5 12 23.5Z" stroke="white"/>
<path d="M15.1203 23.2053V14.7047H18.2403L18.7083 11.0831H15.1203V8.76952C15.1203 7.72072 15.4107 7.00552 16.9155 7.00552H18.8331V3.76792C18.5019 3.72472 17.3619 3.62632 16.0371 3.62632C13.2723 3.62632 11.3787 5.31352 11.3787 8.41432V11.0855H8.25146V14.7071H11.3787V23.9999L15.1203 23.2053Z" fill="white"/>
</svg>
