<svg width="32" height="32" viewBox="0 0 32 32" fill="none" xmlns="http://www.w3.org/2000/svg">
<path d="M10.9777 20.8079C9.78493 20.6661 8.66626 20.1552 7.77796 19.3467C6.85884 18.574 6.20739 17.5307 5.91679 16.3656C5.58169 14.9791 4.81406 13.7352 3.72495 12.8139C3.3303 12.4459 2.97301 12.1687 2.62635 11.9127C2.38924 11.7374 2.05496 11.7876 1.87972 12.0247C1.70448 12.2618 1.7546 12.5961 1.99171 12.7713C2.31169 13.006 2.64766 13.2833 3.02094 13.6139C3.94037 14.3854 4.59032 15.4295 4.8768 16.595C5.21753 17.9818 5.98853 19.225 7.07932 20.1467C8.14143 21.104 9.47677 21.7045 10.8977 21.8639H10.9457L10.9297 21.8746C11.2243 21.8878 11.4737 21.6599 11.487 21.3653C11.5003 21.0707 11.2723 20.8212 10.9777 20.8079Z" fill="white"/>
<path d="M24.9437 10.861C24.7552 10.6347 24.4189 10.6041 24.1926 10.7926C23.4157 11.4342 22.5308 11.9326 21.5795 12.2645C19.2773 13.0531 16.7639 12.9561 14.5293 11.9925C14.274 11.8966 13.9873 12.0088 13.865 12.2527C13.733 12.516 13.8394 12.8365 14.1027 12.9684C16.5889 14.032 19.3827 14.129 21.9368 13.2404C22.6419 12.9928 23.3165 12.6653 23.9473 12.2645C23.462 17.0641 19.8196 20.7972 15.4146 20.7972H11.1217C10.8271 20.7972 10.5884 21.0359 10.5884 21.3304C10.5884 21.625 10.8272 21.8637 11.1217 21.8637H15.4146C20.7369 21.8637 25.0672 17.0641 25.0672 11.1978C25.0662 11.0747 25.0225 10.9557 24.9437 10.861Z" fill="white"/>
<path d="M10.7831 20.8106C10.4975 20.7384 10.2074 20.9115 10.1352 21.1972C10.1352 21.2719 9.6819 22.9304 8.00202 22.9304C7.70748 22.9304 7.46875 23.1692 7.46875 23.4637C7.46875 23.7582 7.70748 23.997 8.00202 23.997C9.51022 23.9637 10.8087 22.9232 11.1698 21.4585C11.2419 21.1729 11.0688 20.8828 10.7831 20.8106Z" fill="white"/>
<path d="M18.1346 22.9304C16.476 22.9304 16.0014 21.2719 16.0014 21.1972C15.9293 20.9027 15.632 20.7225 15.3375 20.7946C15.0429 20.8668 14.8627 21.164 14.9348 21.4585C15.299 22.9345 16.6144 23.9782 18.1346 23.997C18.4291 23.997 18.6678 23.7583 18.6678 23.4638C18.6678 23.1692 18.429 22.9304 18.1346 22.9304Z" fill="white"/>
<path d="M24.534 22.9304H1.60236C1.30782 22.9304 1.06909 23.1692 1.06909 23.4637C1.06909 23.7582 1.30782 23.997 1.60236 23.997H24.5339C24.8285 23.997 25.0672 23.7582 25.0672 23.4637C25.0672 23.1692 24.8285 22.9304 24.534 22.9304Z" fill="white"/>
<path d="M21.8676 22.9305H4.26892C4.17762 22.9275 4.08712 22.948 4.00607 22.9901C3.74465 23.1257 3.64266 23.4476 3.77827 23.709L4.26892 24.6636C4.74501 25.5782 5.69644 26.1458 6.72742 26.1302H19.4091C20.4401 26.1458 21.3916 25.5782 21.8676 24.6636L22.3423 23.709C22.3817 23.6329 22.4022 23.5483 22.402 23.4626C22.4014 23.1681 22.1621 22.9299 21.8676 22.9305ZM20.9023 24.173C20.6116 24.7271 20.0347 25.0711 19.4091 25.0637H6.72742C6.10184 25.0712 5.52489 24.7271 5.23422 24.173L5.14354 23.9971H20.993L20.9023 24.173Z" fill="white"/>
<path d="M28.1177 5.98233C25.7453 5.46031 23.357 6.79302 22.5554 9.0861C22.3213 9.75598 22.3213 10.4854 22.5554 11.1553C22.833 11.9294 23.5786 12.4359 24.4006 12.4085C24.6952 12.379 24.91 12.1164 24.8806 11.8218C24.8511 11.5273 24.5885 11.3124 24.2939 11.3419C23.9487 11.3261 23.6502 11.0959 23.5473 10.7659C23.4111 10.3221 23.4261 9.84566 23.59 9.41132C24.216 7.66052 26.035 6.63734 27.8564 7.0115C29.5682 7.46478 30.9334 9.27802 30.9334 11.1979C30.9199 13.1434 29.7831 14.9057 28.0163 15.7202C27.2679 16.0135 26.4875 16.2176 25.6912 16.3282C25.2699 16.4082 24.8326 16.4829 24.406 16.5895C22.4008 17.0641 21.3342 18.184 21.3342 19.7305C21.3342 20.0251 21.573 20.2638 21.8675 20.2638C22.162 20.2638 22.4008 20.0251 22.4008 19.7305C22.4008 18.4453 23.6274 17.8747 24.6513 17.6187C25.0513 17.5227 25.4672 17.448 25.8725 17.3734C26.7534 17.2488 27.6163 17.0196 28.443 16.6908C30.5908 15.7013 31.9758 13.5624 32 11.1979C31.9982 8.79331 30.4207 6.67409 28.1177 5.98233Z" fill="white"/>
<path d="M14.5293 12.0085C13.8118 11.6946 13.1407 11.2836 12.5348 10.7873C10.696 9.29887 8.39419 8.50087 6.02862 8.53149C4.08965 8.52224 2.18685 9.05614 0.535729 10.0727C0.181881 10.2757 -0.0251661 10.6629 0.00245683 11.0699C0.0245176 11.4752 0.274624 11.8328 0.64772 11.9925C1.12743 12.2072 1.58027 12.4774 1.99693 12.7978C2.17854 12.9221 2.4179 12.9221 2.59957 12.7978C3.37026 12.329 4.25738 12.0869 5.15938 12.0991C6.10624 12.0847 7.03555 12.356 7.82586 12.8778C8.25614 13.1808 8.73123 13.4147 9.23375 13.571C9.4473 13.628 9.59735 13.8194 9.60173 14.0403V15.4642C9.60173 16.3478 10.318 17.0641 11.2016 17.0641C11.2921 17.0718 11.3831 17.0718 11.4736 17.0641C12.2661 16.9081 12.8299 16.2023 12.8068 15.3949V14.0297C12.7989 13.7802 12.9651 13.5587 13.2068 13.4964C13.6779 13.3681 14.1339 13.1893 14.5667 12.9631C14.6688 12.9073 14.75 12.8197 14.7976 12.7134C14.9182 12.4447 14.7981 12.1291 14.5293 12.0085ZM12.9082 12.4938C12.2152 12.6855 11.7352 13.316 11.7349 14.035V15.4002C11.7439 15.6738 11.5625 15.9173 11.2977 15.9868C11.1417 16.0147 10.9814 15.9717 10.8604 15.8695C10.74 15.7692 10.6697 15.621 10.6684 15.4643V14.0404C10.6681 13.3514 10.218 12.7433 9.55917 12.5418C9.16207 12.4232 8.78604 12.2433 8.44456 12.0085C7.4657 11.3538 6.31035 11.0133 5.13282 11.0326C4.1592 11.0237 3.19815 11.2525 2.33303 11.6992C1.93681 11.4163 1.5134 11.1733 1.06913 10.974C2.56045 10.059 4.27919 9.58222 6.02875 9.59809C8.14509 9.56791 10.2053 10.2792 11.8523 11.6086C12.2294 11.9207 12.6306 12.2025 13.0522 12.4512L12.9082 12.4938Z" fill="white"/>
<path d="M11.5804 18.2854L11.5004 18.2214C11.4707 18.2011 11.4385 18.185 11.4044 18.1734C11.3726 18.1573 11.3384 18.1465 11.3031 18.1414C11.2365 18.1257 11.1671 18.1257 11.1004 18.1414C11.0651 18.1465 11.0309 18.1573 10.9991 18.1734C10.9651 18.185 10.9328 18.2011 10.9031 18.2214L10.8231 18.2854C10.7233 18.386 10.6677 18.5222 10.6685 18.664C10.669 18.804 10.7246 18.938 10.8231 19.0373C10.9229 19.1391 11.0593 19.1967 11.2018 19.1973C11.2715 19.1965 11.3404 19.182 11.4045 19.1546C11.4704 19.1276 11.5302 19.0878 11.5805 19.0373C11.679 18.938 11.7345 18.8039 11.7351 18.664C11.7331 18.5228 11.6778 18.3876 11.5804 18.2854Z" fill="white"/>
</svg>
