<svg width="24" height="24" viewBox="0 0 24 24" fill="none" xmlns="http://www.w3.org/2000/svg">
<path d="M12 23.5C5.64974 23.5 0.5 18.3503 0.5 12C0.5 5.64974 5.64974 0.5 12 0.5C18.3503 0.5 23.5 5.64974 23.5 12C23.5 18.3503 18.3503 23.5 12 23.5Z" stroke="white"/>
<path d="M12 5.28462C14.1864 5.28462 14.4456 5.29182 15.3096 5.33262C16.1088 5.36862 16.5432 5.50302 16.8312 5.61582C17.2128 5.76462 17.4864 5.94222 17.772 6.22782C18.0576 6.51342 18.2352 6.78702 18.384 7.16862C18.4968 7.45662 18.6288 7.89102 18.6672 8.69022C18.7056 9.55422 18.7152 9.81342 18.7152 11.9998C18.7152 14.1862 18.708 14.4454 18.6672 15.3094C18.6312 16.1086 18.4968 16.543 18.384 16.831C18.2352 17.2126 18.0576 17.4862 17.772 17.7718C17.4864 18.0574 17.2128 18.235 16.8312 18.3838C16.5432 18.4966 16.1088 18.6286 15.3096 18.667C14.4456 18.7054 14.1864 18.715 12 18.715C9.8136 18.715 9.5544 18.7078 8.6904 18.667C7.8912 18.631 7.4568 18.4966 7.1688 18.3838C6.7872 18.235 6.5136 18.0574 6.228 17.7718C5.9424 17.4862 5.7648 17.2126 5.616 16.831C5.5032 16.543 5.3712 16.1086 5.3328 15.3094C5.2944 14.4454 5.2848 14.1862 5.2848 11.9998C5.2848 9.81342 5.292 9.55422 5.3328 8.69022C5.3688 7.89102 5.5032 7.45662 5.616 7.16862C5.7648 6.78702 5.9424 6.51342 6.228 6.22782C6.5136 5.94222 6.7872 5.76462 7.1688 5.61582C7.4568 5.50302 7.8912 5.37102 8.6904 5.33262C9.5544 5.29182 9.8136 5.28462 12 5.28462ZM12 3.80862C9.7752 3.80862 9.4968 3.81822 8.6232 3.85902C7.752 3.89982 7.1568 4.03662 6.6336 4.24062C6.096 4.44702 5.6376 4.72782 5.184 5.18382C4.728 5.63982 4.4496 6.09582 4.2384 6.63582C4.0368 7.15662 3.8976 7.75182 3.8568 8.62542C3.816 9.49902 3.8064 9.77742 3.8064 12.0022C3.8064 14.227 3.816 14.5054 3.8568 15.379C3.8976 16.2502 4.0344 16.8454 4.2384 17.3686C4.4472 17.9038 4.728 18.3622 5.184 18.8158C5.64 19.2718 6.096 19.5502 6.636 19.7614C7.1568 19.963 7.752 20.1022 8.6256 20.143C9.4992 20.1838 9.7776 20.1934 12.0024 20.1934C14.2272 20.1934 14.5056 20.1838 15.3792 20.143C16.2504 20.1022 16.8456 19.9654 17.3688 19.7614C17.904 19.5526 18.3624 19.2718 18.816 18.8158C19.272 18.3598 19.5504 17.9038 19.7616 17.3638C19.9632 16.843 20.1024 16.2478 20.1432 15.3742C20.184 14.5006 20.1936 14.2222 20.1936 11.9974C20.1936 9.77262 20.184 9.49422 20.1432 8.62062C20.1024 7.74942 19.9656 7.15422 19.7616 6.63102C19.5528 6.09582 19.272 5.63742 18.816 5.18382C18.36 4.72782 17.904 4.44942 17.364 4.23822C16.8432 4.03662 16.248 3.89742 15.3744 3.85662C14.5032 3.81822 14.2248 3.80862 12 3.80862Z" fill="white"/>
<path d="M11.9999 7.79259C9.67672 7.79259 7.79272 9.67659 7.79272 11.9998C7.79272 14.323 9.67672 16.207 11.9999 16.207C14.3231 16.207 16.2071 14.323 16.2071 11.9998C16.2071 9.67659 14.3231 7.79259 11.9999 7.79259ZM11.9999 14.731C10.4927 14.731 9.26872 13.5094 9.26872 11.9998C9.26872 10.4902 10.4927 9.26859 11.9999 9.26859C13.5071 9.26859 14.7311 10.4902 14.7311 11.9998C14.7311 13.5094 13.5071 14.731 11.9999 14.731Z" fill="white"/>
<path d="M16.3727 8.61094C16.9161 8.61094 17.3567 8.17038 17.3567 7.62694C17.3567 7.08349 16.9161 6.64294 16.3727 6.64294C15.8292 6.64294 15.3887 7.08349 15.3887 7.62694C15.3887 8.17038 15.8292 8.61094 16.3727 8.61094Z" fill="white"/>
</svg>
