<svg xmlns="http://www.w3.org/2000/svg" xmlns:xlink="http://www.w3.org/1999/xlink" viewBox="0 0 552.18 728.54"><defs><style>.cls-1{fill:url(#Áåçûìÿííûé_ãðàäèåíò_31);}.cls-2{fill:url(#Áåçûìÿííûé_ãðàäèåíò_31-2);}.cls-3{fill:url(#Áåçûìÿííûé_ãðàäèåíò_31-3);}</style><linearGradient id="Áåçûìÿííûé_ãðàäèåíò_31" y1="276.09" x2="552.18" y2="276.09" gradientUnits="userSpaceOnUse"><stop offset="0" stop-color="#bc945c"/><stop offset="0.28" stop-color="#966f40"/><stop offset="0.42" stop-color="#c79b61"/><stop offset="0.56" stop-color="#eebd7b"/><stop offset="0.63" stop-color="#fdca85"/><stop offset="0.71" stop-color="#ecbb79"/><stop offset="0.87" stop-color="#be935b"/><stop offset="1" stop-color="#966f40"/></linearGradient><linearGradient id="Áåçûìÿííûé_ãðàäèåíò_31-2" x1="45.55" y1="643.14" x2="506.63" y2="643.14" xlink:href="#Áåçûìÿííûé_ãðàäèåíò_31"/><linearGradient id="Áåçûìÿííûé_ãðàäèåíò_31-3" x1="146.36" y1="712.62" x2="405.82" y2="712.62" xlink:href="#Áåçûìÿííûé_ãðàäèåíò_31"/></defs><g id="Layer_2" data-name="Layer 2"><g id="Layer_1-2" data-name="Layer 1"><path class="cls-1" d="M338.56,214.78l.3-1.41-1.42.3a61.2,61.2,0,0,0-20.13,9,62.64,62.64,0,0,0,4-23.38l-.08-1.47-1.31.67a62.69,62.69,0,0,0-18.18,15.11,61.34,61.34,0,0,0-2.24-21.86l-.44-1.38-1.08,1a61.3,61.3,0,0,0-12.92,17.91,62.73,62.73,0,0,0-8.2-22.29l-.8-1.23-.81,1.23a62.65,62.65,0,0,0-8.19,22.2,61.49,61.49,0,0,0-12.86-17.84l-1.08-1-.44,1.38a61.18,61.18,0,0,0-2.25,21.94,62.53,62.53,0,0,0-18.24-15.17l-1.31-.67-.08,1.47a63,63,0,0,0,4,23.3,61.44,61.44,0,0,0-20.06-9l-1.41-.3.3,1.41a61.16,61.16,0,0,0,9,20.14,63.11,63.11,0,0,0-23.4-4l-1.47.08.67,1.31a62.36,62.36,0,0,0,15.11,18.18,61.61,61.61,0,0,0-21.86,2.24l-1.38.45,1,1.07a61.55,61.55,0,0,0,17.9,12.92,62.73,62.73,0,0,0-22.28,8.2l-1.23.81,1.23.8a62.65,62.65,0,0,0,22.2,8.19,61.4,61.4,0,0,0-17.83,12.86l-1,1.08,1.37.45A60.72,60.72,0,0,0,209,301.9c1.51,0,3.08,0,4.7-.19A62.67,62.67,0,0,0,198.51,320l-.67,1.31,1.47.08c.11,0,.62,0,1.47,0a63.92,63.92,0,0,0,21.83-4,61.6,61.6,0,0,0-9,20.05l-.3,1.42,1.41-.3a61.65,61.65,0,0,0,20.14-9,63.07,63.07,0,0,0-4,23.39l.08,1.47,1.31-.67a62.36,62.36,0,0,0,18.18-15.11,61.61,61.61,0,0,0,2.24,21.86l.45,1.38,1.07-1a61.08,61.08,0,0,0,12.92-17.89,62.64,62.64,0,0,0,8.2,22.27l.81,1.24.8-1.24A62.55,62.55,0,0,0,285.08,343a61.74,61.74,0,0,0,12.86,17.83l1.08,1,.45-1.38a61.68,61.68,0,0,0,2.24-22A62.67,62.67,0,0,0,320,353.66l1.31.67.08-1.47a62.65,62.65,0,0,0-4-23.31,61.64,61.64,0,0,0,20.05,9l1.42.3-.3-1.42a61.5,61.5,0,0,0-9-20.13,63.86,63.86,0,0,0,21.92,4.06c.84,0,1.35,0,1.46,0l1.47-.08-.67-1.31a62.63,62.63,0,0,0-15.12-18.18c1.6.13,3.16.18,4.66.18a60.61,60.61,0,0,0,17.21-2.42l1.38-.44-1-1.08a61.21,61.21,0,0,0-17.9-12.92,62.64,62.64,0,0,0,22.28-8.2l1.24-.8-1.24-.81A62.45,62.45,0,0,0,343,267.09a61.36,61.36,0,0,0,17.83-12.86l1-1.08-1.38-.44a61.18,61.18,0,0,0-21.94-2.25,62.47,62.47,0,0,0,15.17-18.24l.67-1.31-1.47-.08a63,63,0,0,0-23.31,4A61.74,61.74,0,0,0,338.56,214.78ZM319.45,201a62.59,62.59,0,0,1-5.14,23.93c-.9.71-1.79,1.47-2.66,2.27a46.58,46.58,0,0,0,2-14.62l-.07-1.47-1.32.67a47,47,0,0,0-11.57,9c.26-1.15.46-2.29.63-3.42A62.28,62.28,0,0,1,319.45,201Zm10.29,52.85c.22-.06.45-.12.67-.16-.84.48-1.67.94-2.51,1.38l-1.06.15c.41-.3.82-.59,1.21-.9Zm4.78,14.49c-.28.09-.56.16-.84.24l-1.59.41c-.5-.07-1-.13-1.53-.17.35-.14.69-.28,1-.43C332.55,268.35,333.53,268.33,334.52,268.33Zm-.85,15.32c.23.06.45.12.68.2q-1.46,0-2.88-.06l-1-.42c.5,0,1-.1,1.49-.16Zm-3.11,14.93-.84-.21-1.58-.44c-.41-.31-.82-.62-1.25-.92l1.11.15C328.85,297.61,329.71,298.09,330.56,298.58Zm-8.38,12.85.5.51c-.84-.48-1.66-1-2.47-1.49-.22-.29-.44-.58-.68-.87.46.22.93.42,1.39.62ZM312,322.8l-.61-.6c-.39-.39-.78-.78-1.16-1.18-.2-.47-.4-.94-.62-1.41.29.24.58.46.88.68h0C311,321.11,311.52,322,312,322.8Zm-13.68,6.94c.06.22.12.45.16.67-.48-.84-.94-1.67-1.38-2.51l-.15-1.09c.29.42.59.82.9,1.22C298,328.6,298.18,329.17,298.33,329.74Zm-4.12,14.07a45.91,45.91,0,0,1-8.51-12.61,79,79,0,0,0-2.17-16.57h0a40.31,40.31,0,0,0,5.39-1.44h0a78.91,78.91,0,0,0,6.36,15.35A46.2,46.2,0,0,1,294.21,343.81Zm-10.36-9.3c-.09-.27-.17-.55-.24-.83-.15-.54-.29-1.07-.41-1.61.06-.49.12-1,.16-1.51.14.34.29.69.44,1C283.83,332.55,283.85,333.53,283.85,334.51Zm-15.52-.19q0-1.45.06-2.88c.14-.32.28-.65.41-1,0,.52.1,1,.16,1.53-.14.56-.29,1.13-.44,1.69C268.46,333.89,268.4,334.1,268.33,334.32Zm-10.41,9.48a46.11,46.11,0,0,1-1.08-15.16,78.41,78.41,0,0,0,6.41-15.45h0a38.89,38.89,0,0,0,5.39,1.45h0a79.66,79.66,0,0,0-2.17,16.49A46,46,0,0,1,257.92,343.8Zm-17.18-21.62-.51.5c.48-.84,1-1.67,1.49-2.48l.87-.67c-.22.46-.42.93-.62,1.39Q241.37,321.55,240.74,322.18Zm-18.31-23.85c-.22.06-.44.12-.66.16.84-.48,1.67-.95,2.51-1.38l1.07-.15q-.63.44-1.23.9Zm-4.78-14.48c.28-.09.56-.16.84-.24.54-.15,1.08-.29,1.62-.41.49.06,1,.12,1.51.16-.35.14-.69.28-1,.44C219.62,283.83,218.64,283.85,217.65,283.85Zm.85-15.33-.65-.19q1.46,0,2.88.06c.32.14.65.28,1,.41-.52,0-1,.1-1.52.16Zm3.11-14.93q.42.09.84.21l1.58.44c.4.31.81.62,1.23.92l-1.08-.15C223.32,254.56,222.47,254.08,221.61,253.59ZM230,240.74l-.49-.5c.84.48,1.66,1,2.46,1.48.21.29.43.57.67.86l-1.38-.61Zm10.14-11.39c.22.2.43.41.64.62l1.15,1.17c.19.47.4.93.61,1.4-.29-.23-.58-.45-.88-.66C241.15,231.05,240.64,230.21,240.14,229.35Zm13.71-6.92c-.06-.22-.11-.43-.16-.65.48.83.94,1.67,1.37,2.5.05.35.09.7.15,1.05-.29-.4-.58-.8-.89-1.19C254.16,223.57,254,223,253.85,222.43ZM258,208.36a46,46,0,0,1,8.5,12.58,79.43,79.43,0,0,0,2.17,16.6h0a38.89,38.89,0,0,0-5.39,1.45h0a79.72,79.72,0,0,0-6.35-15.35A46.24,46.24,0,0,1,258,208.36Zm10.36,9.3c.09.28.17.55.24.83.14.53.28,1.06.41,1.59-.07.5-.13,1-.17,1.54-.14-.35-.28-.69-.43-1C268.35,219.62,268.33,218.64,268.33,217.66Zm15.52.16q0,1.45-.06,2.88l-.42,1c0-.5-.1-1-.16-1.49.14-.57.29-1.14.44-1.71C283.71,218.27,283.78,218,283.85,217.82Zm10.41-9.44a45.94,45.94,0,0,1,1.08,15.14A79.11,79.11,0,0,0,288.92,239v0a39.27,39.27,0,0,0-5.39-1.45h0a79.54,79.54,0,0,0,2.17-16.46A45.8,45.8,0,0,1,294.26,208.38ZM307,251.87l0,0,1-.57,1.44-.83h0l-1.69,1.69-.32.31c-.14-.2-.29-.38-.44-.57ZM315,280.92l.42.11,2.2.59h-1.54l-1.1,0H315l.09-.68Zm-2.43,9.88c.3.17.61.33.91.51l1.44.83-2.31-.62-.41-.11h0l.26-.66h0Zm-4.89,9.26,1.59,1.59-1.32-.76-1-.57,0,0h0c.14-.18.29-.35.42-.54ZM300.29,307h0l.07.12c.17.29.35.58.52.88l.83,1.44L300,307.74l-.3-.31ZM315,270.57h0l1.15,0h1.67l-2.32.62-.43.11Zm-2.44-9.14h0c-.09-.21-.17-.43-.26-.64l.41-.11,2.19-.59-1.33.77c-.3.18-.61.35-.91.51Zm-11.62-17.24c-.17.3-.35.59-.52.88l-.07.12h0l-.55-.43.31-.32,1.6-1.6Zm7.63-13.9a80.09,80.09,0,0,0-10.45,13.27,38.91,38.91,0,0,0-4.77-2.76h0A80.73,80.73,0,0,0,299.61,225a46.67,46.67,0,0,1,12.17-10.74A46.81,46.81,0,0,1,308.52,230.29Zm-17,82.37.59,2.21-.78-1.35c-.2-.34-.38-.67-.56-1h0l.64-.25C291.43,312.39,291.46,312.52,291.5,312.66Zm-.75-73,.56-1,.84-1.46-.62,2.33-.12.41h0l-.67-.26Zm7.62-17.21c-.14.53-.29,1.06-.44,1.58-.31.41-.62.83-.92,1.25.06-.37.1-.73.14-1.09.46-.86.94-1.72,1.43-2.58Q298.49,222,298.37,222.45Zm-16.75,95.33-.62-2.31c0-.14-.08-.29-.11-.43h0l.71-.09h0V315c0,.36,0,.72,0,1.1Zm-.7-80.65c0-.14.07-.28.11-.42l.59-2.2v1.55c0,.37,0,.73,0,1.1v.06h0l-.68-.08Zm-2.06-.21v0c-.92-.07-1.84-.11-2.77-.11s-1.83,0-2.74.11v0a79.89,79.89,0,0,0-2.44-16.82,46.92,46.92,0,0,1,5.18-15.39,46.86,46.86,0,0,1,5.18,15.51A79.9,79.9,0,0,0,278.86,236.92Zm-8.3-.86v-1.67l.62,2.31c0,.15.07.29.11.43h0l-.72.09h0C270.56,236.84,270.56,236.45,270.56,236.06Zm0,80.06c0-.39,0-.78,0-1.17h0l.68.09h0c0,.14-.07.28-.11.42l-.58,2.17Zm-9.13-3.61h0c-.18.34-.37.67-.56,1L260,315l.62-2.31c0-.14.07-.28.11-.41h0l.67.26Zm-.75-73-.59-2.18.77,1.32c.2.34.38.67.57,1h0l-.63.25A2.77,2.77,0,0,1,260.68,239.51Zm-8-14.39a80.39,80.39,0,0,0,6.25,15.67,38.84,38.84,0,0,0-4.77,2.75h0a80.45,80.45,0,0,0-10.51-13.34,47,47,0,0,1-3.22-15.92A46.64,46.64,0,0,1,252.65,225.12Zm-7.46,75.18c-.33.2-.66.4-1,.59l-1.45.84,1.7-1.7.31-.3h0l.45.57Zm-8-18.7h-.06l-1.1,0h-1.67l2.32-.62.42-.11h0l.09.71Zm-.09-10.35-.42-.11-2.2-.59h1.55l1.15,0h0c0,.23-.05.45-.08.68Zm2.47-9.86-.95-.53-1.44-.83,2.32.62.4.11h0c-.1.22-.18.45-.27.67h0Zm12.28-16.19v0l-.59-1-.85-1.47,1.71,1.71.31.32C252.26,244.89,252.07,245.05,251.88,245.2Zm-7.11,7.23h0l-.3-.3-1.61-1.61,1.34.77,1,.59h0C245.05,252.06,244.9,252.24,244.77,252.43Zm-5.11,38.32h0c.09.21.16.43.25.64h0l-.4.11-2.18.59,1.32-.77.95-.53ZM251.28,308c.2-.34.4-.66.59-1h0l.55.43c-.11.1-.21.21-.31.31l-1.62,1.61Zm-11.1-74.87a78.61,78.61,0,0,0,10.19,13.31h0a38.57,38.57,0,0,0-3.94,3.94h0a79.09,79.09,0,0,0-13.19-10.12,45.87,45.87,0,0,1-6.7-13.76A46.35,46.35,0,0,1,240.18,233.12Zm-9.88,10.54a80.65,80.65,0,0,0,13.25,10.45h0a40.85,40.85,0,0,0-2.75,4.76h0a81.26,81.26,0,0,0-15.78-6.3,46.41,46.41,0,0,1-10.75-12.18A46.72,46.72,0,0,1,230.3,243.66Zm-6.76,13.18A78.59,78.59,0,0,0,239,263.25h0a39.24,39.24,0,0,0-1.44,5.39h0a79.74,79.74,0,0,0-16.48-2.17,46,46,0,0,1-12.68-8.55A46.11,46.11,0,0,1,223.54,256.84ZM220.2,270.9a80.13,80.13,0,0,0,16.72,2.42h0c-.06.92-.11,1.84-.11,2.77s0,1.83.11,2.74h0a79.19,79.19,0,0,0-16.82,2.43,47.13,47.13,0,0,1-15.4-5.17A46.51,46.51,0,0,1,220.2,270.9Zm.76,14.8a79.23,79.23,0,0,0,16.58-2.17h0a39.27,39.27,0,0,0,1.45,5.39h0a78.88,78.88,0,0,0-15.32,6.35,45.76,45.76,0,0,1-15.28-1.07A46.37,46.37,0,0,1,221,285.7Zm4.16,13.82a80.3,80.3,0,0,0,15.66-6.24h0a38.52,38.52,0,0,0,2.74,4.75h0a81.18,81.18,0,0,0-13.34,10.53,46.92,46.92,0,0,1-15.92,3.22A46.52,46.52,0,0,1,225.12,299.52ZM230,311.4l1.19-1.16q.69-.28,1.38-.6c-.22.29-.44.57-.65.86,0,0,0,0,0,0-.82.5-1.66,1-2.52,1.5Zm3.16.58a78.9,78.9,0,0,0,13.3-10.18h0a40.7,40.7,0,0,0,3.94,3.94h0A78.67,78.67,0,0,0,240.24,319a46.35,46.35,0,0,1-13.74,6.69A46.14,46.14,0,0,1,233.13,312Zm10.53,9.9a80.7,80.7,0,0,0,10.45-13.26h0a40,40,0,0,0,4.76,2.75h0a80,80,0,0,0-6.3,15.8A46.94,46.94,0,0,1,240.4,337.9,46.81,46.81,0,0,1,243.66,321.88Zm10.14,7.84c.15-.54.29-1.07.45-1.6.31-.4.62-.81.91-1.23-.06.37-.1.74-.15,1.11-.45.85-.92,1.71-1.42,2.56C253.65,330.28,253.73,330,253.8,329.72Zm19.52-14.47v0c.92.07,1.84.11,2.77.11s1.83,0,2.74-.1h0a79.83,79.83,0,0,0,2.43,16.82,47,47,0,0,1-5.17,15.4A46.73,46.73,0,0,1,270.9,332,80.71,80.71,0,0,0,273.32,315.25Zm26.22,11.83a81.49,81.49,0,0,0-6.26-15.69h0a38.52,38.52,0,0,0,4.75-2.74A80.76,80.76,0,0,0,308.56,322a47,47,0,0,1,3.22,15.92A46.64,46.64,0,0,1,299.54,327.08ZM312,319a78.9,78.9,0,0,0-10.18-13.3h0a40.7,40.7,0,0,0,3.94-3.94h0a79.08,79.08,0,0,0,13.2,10.12,46.12,46.12,0,0,1,6.7,13.76A46.23,46.23,0,0,1,312,319Zm9.91-10.52a79.73,79.73,0,0,0-13.28-10.45,38.91,38.91,0,0,0,2.76-4.77,82.11,82.11,0,0,0,15.8,6.31,46.78,46.78,0,0,1,10.73,12.17A46.76,46.76,0,0,1,321.89,308.52Zm6.76-13.19a79.65,79.65,0,0,0-15.45-6.41h0a38.86,38.86,0,0,0,1.44-5.39h0a79.55,79.55,0,0,0,16.47,2.17,46,46,0,0,1,12.7,8.56A46.41,46.41,0,0,1,328.65,295.33ZM332,281.27a79.8,79.8,0,0,0-16.71-2.41h0c.06-.92.1-1.84.1-2.77s0-1.83-.1-2.74h0a80,80,0,0,0,16.83-2.44,46.68,46.68,0,0,1,15.39,5.18A46.69,46.69,0,0,1,332,281.27Zm-.72-14.8a79.44,79.44,0,0,0-16.61,2.17h0a40.31,40.31,0,0,0-1.44-5.39h0a78.21,78.21,0,0,0,15.35-6.35A46,46,0,0,1,343.81,258,45.79,45.79,0,0,1,331.24,266.47Zm-4.18-13.82a79.77,79.77,0,0,0-15.67,6.25,40.17,40.17,0,0,0-2.75-4.77h0A80.57,80.57,0,0,0,322,243.62a47,47,0,0,1,15.93-3.22A46.64,46.64,0,0,1,327.06,252.65Zm-4.85-11.87L321,241.93c-.47.19-.94.4-1.42.62l.68-.88c.84-.53,1.69-1,2.55-1.54C322.64,240.35,322.42,240.57,322.21,240.78Zm-3.16-.6a78.61,78.61,0,0,0-13.31,10.19h0a40.7,40.7,0,0,0-3.94-3.94h0a79.09,79.09,0,0,0,10.12-13.19,46.33,46.33,0,0,1,13.76-6.71A46.26,46.26,0,0,1,319.05,240.18Zm-8.6-8.21c-.29.22-.58.44-.87.68.22-.46.42-.93.62-1.39q.6-.63,1.23-1.26l.5-.49C311.45,230.34,311,231.16,310.45,232Zm-12.29-38.14a61.49,61.49,0,0,1,1.39,22.7c-.74,1-1.44,2.12-2.11,3.24a45.63,45.63,0,0,0-1.8-13.49l-.45-1.37-1.08,1a45.29,45.29,0,0,0-8.36,10.84c0-1.31-.09-2.59-.2-3.84A61.94,61.94,0,0,1,298.16,193.83Zm-22.07-4.46a62.08,62.08,0,0,1,7.51,23.31c-.42,1.06-.81,2.16-1.16,3.29a46.7,46.7,0,0,0-5.55-13.69l-.8-1.23-.81,1.23a46.51,46.51,0,0,0-5.53,13.6c-.35-1.13-.74-2.22-1.16-3.28A62.41,62.41,0,0,1,276.09,189.37Zm-22,4.44a61.91,61.91,0,0,1,12.55,18.95c-.12,1.26-.19,2.56-.21,3.88a45.28,45.28,0,0,0-8.3-10.78l-1.08-1-.45,1.38a45.43,45.43,0,0,0-1.81,13.59c-.66-1.13-1.37-2.21-2.09-3.25A61.63,61.63,0,0,1,254.08,193.81ZM232.73,201a62.2,62.2,0,0,1,18.16,16.43c.17,1.13.38,2.27.64,3.42a46.89,46.89,0,0,0-11.65-9.07l-1.31-.67-.08,1.47a46.52,46.52,0,0,0,2,14.53c-.87-.81-1.76-1.56-2.66-2.28A62.19,62.19,0,0,1,232.73,201Zm-16.84,14.85A61.54,61.54,0,0,1,236.26,226c.53,1.14,1.1,2.29,1.74,3.42a45.77,45.77,0,0,0-12.59-5.17L224,224l.3,1.42A45.67,45.67,0,0,0,229.5,238c-1.13-.64-2.28-1.22-3.42-1.74A61.66,61.66,0,0,1,215.89,215.84ZM201,232.73a62.39,62.39,0,0,1,24,5.15c.7.89,1.45,1.77,2.24,2.64a46.58,46.58,0,0,0-14.62-2l-1.47.08.67,1.31a46.56,46.56,0,0,0,9,11.59c-1.16-.26-2.31-.47-3.44-.64A62.28,62.28,0,0,1,201,232.73ZM193.83,254a61.76,61.76,0,0,1,22.7-1.39c1,.73,2.12,1.44,3.25,2.11a45.37,45.37,0,0,0-13.49,1.81l-1.38.44,1,1.08a45.47,45.47,0,0,0,10.85,8.36c-1.31,0-2.59.09-3.85.2A61.94,61.94,0,0,1,193.83,254Zm-4.46,22.08a62.08,62.08,0,0,1,23.31-7.51c1.06.41,2.15.8,3.27,1.15a46.73,46.73,0,0,0-13.67,5.55l-1.23.81,1.23.8a46.51,46.51,0,0,0,13.6,5.53c-1.13.35-2.23.75-3.3,1.17A62.28,62.28,0,0,1,189.37,276.09Zm4.44,22a61.57,61.57,0,0,1,19-12.56q1.89.18,3.87.21a45.17,45.17,0,0,0-10.78,8.31l-1,1.07,1.37.45a45.39,45.39,0,0,0,13.6,1.81q-1.68,1-3.24,2.1A62,62,0,0,1,193.81,298.1ZM201,319.44a62.42,62.42,0,0,1,16.42-18.16q1.69-.24,3.42-.63a46.47,46.47,0,0,0-9.06,11.64l-.67,1.32,1.47.07a46.43,46.43,0,0,0,14.54-2c-.8.88-1.56,1.77-2.27,2.67A62.3,62.3,0,0,1,201,319.44Zm14.85,16.84A62.06,62.06,0,0,1,226,315.92c1.15-.52,2.29-1.1,3.43-1.74a45.78,45.78,0,0,0-5.17,12.58l-.3,1.42,1.41-.3A45.72,45.72,0,0,0,238,322.66c-.64,1.13-1.21,2.28-1.74,3.42A61.76,61.76,0,0,1,215.84,336.28Zm16.89,14.91a62.6,62.6,0,0,1,5.14-23.95q1.33-1,2.64-2.25a46.69,46.69,0,0,0-2,14.61l.08,1.47,1.31-.67a46.55,46.55,0,0,0,11.59-9c-.26,1.16-.47,2.31-.64,3.45A62.64,62.64,0,0,1,232.73,351.19ZM254,358.34a61.72,61.72,0,0,1-1.39-22.7c.74-1,1.45-2.12,2.12-3.26a45.38,45.38,0,0,0,1.8,13.51l.45,1.37,1.07-1a45.91,45.91,0,0,0,8.36-10.86c0,1.31.09,2.6.2,3.86A61.85,61.85,0,0,1,254,358.34Zm22.08,4.47a62.15,62.15,0,0,1-7.51-23.32c.41-1.06.8-2.15,1.15-3.27a46.73,46.73,0,0,0,5.55,13.67l.81,1.23.8-1.23a46.84,46.84,0,0,0,5.53-13.59c.35,1.13.74,2.23,1.17,3.29A62.41,62.41,0,0,1,276.09,362.81Zm22-4.45a61.78,61.78,0,0,1-12.56-19c.12-1.26.19-2.55.21-3.86a45.46,45.46,0,0,0,8.31,10.78l1.07,1,.45-1.38a45.36,45.36,0,0,0,1.81-13.59c.66,1.13,1.36,2.2,2.1,3.23A62,62,0,0,1,298.1,358.36Zm21.35-7.17a62.55,62.55,0,0,1-18.15-16.4h0c-.17-1.14-.38-2.29-.64-3.44a46.47,46.47,0,0,0,11.64,9.06l1.32.67.07-1.47a46.43,46.43,0,0,0-2-14.54q1.32,1.2,2.67,2.28A62.53,62.53,0,0,1,319.45,351.19Zm16.84-14.86a61.78,61.78,0,0,1-20.36-10.14c-.53-1.15-1.11-2.3-1.75-3.45a45.62,45.62,0,0,0,12.58,5.18l1.42.3-.3-1.42a45.51,45.51,0,0,0-5.21-12.66c1.13.63,2.27,1.21,3.41,1.73A62,62,0,0,1,336.29,336.33Zm14.9-16.89a62.6,62.6,0,0,1-23.95-5.14c-.7-.9-1.46-1.78-2.25-2.65a46.53,46.53,0,0,0,14.61,2l1.47-.07-.67-1.32a46.71,46.71,0,0,0-9-11.58c1.15.26,2.3.47,3.43.63A62.64,62.64,0,0,1,351.19,319.44Zm7.15-21.28a61.8,61.8,0,0,1-22.71,1.39c-1-.74-2.1-1.44-3.23-2.11a45.44,45.44,0,0,0,13.49-1.81l1.38-.44-1-1.08a45.72,45.72,0,0,0-10.85-8.36c1.31,0,2.59-.09,3.85-.2A61.85,61.85,0,0,1,358.34,298.16Zm4.46-22.07a62.15,62.15,0,0,1-23.31,7.51c-1.06-.42-2.15-.81-3.28-1.16a46.72,46.72,0,0,0,13.68-5.55l1.24-.8-1.24-.81a46.84,46.84,0,0,0-13.59-5.53c1.13-.35,2.22-.74,3.28-1.16A62.35,62.35,0,0,1,362.8,276.09Zm-4.44-22a61.77,61.77,0,0,1-19,12.55c-1.26-.12-2.55-.19-3.86-.21a45.64,45.64,0,0,0,10.77-8.3l1-1.08-1.38-.45A45.6,45.6,0,0,0,333,254.77h-.67c1.13-.66,2.21-1.37,3.25-2.1A61.54,61.54,0,0,1,358.36,254.08Zm-7.17-21.35a62.6,62.6,0,0,1-16.44,18.16c-1.13.17-2.26.38-3.41.64a46.61,46.61,0,0,0,9.06-11.65l.67-1.31-1.47-.08c-.08,0-.46,0-1.1,0a48.12,48.12,0,0,0-13.42,2c.79-.87,1.55-1.76,2.26-2.66A62.27,62.27,0,0,1,351.19,232.73ZM322.73,238a45.84,45.84,0,0,0,5.19-12.58l.3-1.42-1.42.31a45.64,45.64,0,0,0-12.66,5.21c.64-1.14,1.21-2.28,1.74-3.42a61.65,61.65,0,0,1,20.45-10.2,61.78,61.78,0,0,1-10.14,20.36C325,236.77,323.88,237.36,322.73,238Zm97.54,19.69c-14.45,0-27.18,2.43-35.74,6.31-4.7,1-8.56,3.52-10.54,6.85A97.3,97.3,0,0,0,363.62,232a13.85,13.85,0,0,0,6.57,1.54,18.1,18.1,0,0,0,4.81-.67l.44-.13c9.44-.76,22-5,34.76-12.37,22.08-12.68,31.49-38.22,31.58-38.48l.42-1.15-1.21-.21c-.26,0-27.2-4.72-49.28,8-12.32,7.07-22.34,15.59-27.88,23.38a16.75,16.75,0,0,0-5.18,8.07,11.74,11.74,0,0,0-.41,2.75,98.71,98.71,0,0,0-28-28.27A16,16,0,0,0,340.51,189a53.18,53.18,0,0,0,5.38-4.33,100.82,100.82,0,0,0,18.31-23.53c12.75-22,8.05-48.76,8-49l-.22-1.19-1.14.4c-.26.1-25.94,9.45-38.69,31.42-7.14,12.3-11.55,24.72-12.4,34.25a16.7,16.7,0,0,0-.43,9.46,12.2,12.2,0,0,0,.76,2.08,97.06,97.06,0,0,0-37.87-10.24,16.19,16.19,0,0,0,5.91-9.77c4-8.52,6.45-21.29,6.45-35.79,0-25.37-17.53-46.24-17.71-46.45l-.78-.92-.79.92c-.17.21-17.71,21.08-17.71,46.45,0,14.52,2.49,27.29,6.47,35.81a16.19,16.19,0,0,0,5.89,9.75,97,97,0,0,0-37.75,10.19,12.29,12.29,0,0,0,.68-1.91,15,15,0,0,0,.49-3.87,18,18,0,0,0-1-5.71c-.85-9.53-5.26-21.95-12.4-34.25-12.75-22-38.42-31.32-38.68-31.42l-1.14-.4-.22,1.19c-.05.27-4.74,27.06,8,49,7.26,12.5,15.77,22.28,23.46,27.7a16.17,16.17,0,0,0,10.36,5.69,98.64,98.64,0,0,0-27.75,28,11.87,11.87,0,0,0-.4-2.37,15.8,15.8,0,0,0-3.11-5.92,19.29,19.29,0,0,0-2-2.07c-5.5-7.87-15.62-16.51-28.09-23.67-22.09-12.68-49-8-49.29-8l-1.2.21.41,1.15c.1.26,9.5,25.8,31.58,38.48,12.44,7.14,24.62,11.37,34,12.3a18.93,18.93,0,0,0,6.17,1.08,14.28,14.28,0,0,0,6.24-1.35,97.48,97.48,0,0,0-10.16,38.34,15.8,15.8,0,0,0-9.77-6.33c-8.56-4.1-21.63-6.68-36.52-6.68-25.5,0-46.48,17.44-46.68,17.62l-.94.79.94.78c.2.18,21.18,17.62,46.68,17.62,14.25,0,26.83-2.36,35.39-6.15,4.79-.83,8.78-3.29,10.92-6.58a97.12,97.12,0,0,0,10.28,38.33,14.16,14.16,0,0,0-6.25-1.36,18.07,18.07,0,0,0-5,.71c-9.51.63-22.27,4.92-35.31,12.41-22.08,12.69-31.48,38.22-31.58,38.48l-.41,1.15,1.2.21a77.3,77.3,0,0,0,12.41.88c9.91,0,24.2-1.56,36.88-8.84,12-6.87,21.76-15.1,27.4-22.71a17.12,17.12,0,0,0,5.91-8.69,11.64,11.64,0,0,0,.4-2.42,98.53,98.53,0,0,0,27.88,27.94,15.89,15.89,0,0,0-9.55,4.8c-8,5.24-16.94,15.35-24.53,28.43-12.75,22-8.06,48.77-8,49l.22,1.2,1.14-.41c.26-.09,25.93-9.45,38.68-31.41,6.87-11.83,11.21-23.77,12.29-33.14a17.09,17.09,0,0,0,.79-10.52,12.45,12.45,0,0,0-.72-2A97.13,97.13,0,0,0,270.26,374a15.79,15.79,0,0,0-5.66,8.6c-4.29,8.5-7,21.77-7,36.95,0,25.36,17.54,46.24,17.71,46.44l.79.92.78-.92c.18-.2,17.71-21.08,17.71-46.44,0-14-2.31-26.36-6-34.87a16.41,16.41,0,0,0-6.17-10.71,96.83,96.83,0,0,0,37.95-10.36,12.59,12.59,0,0,0-.78,2.14,16.31,16.31,0,0,0,.12,8.4c.59,9.66,5.06,22.59,12.49,35.39,12.75,22,38.43,31.32,38.69,31.41l1.14.41.22-1.2c0-.26,4.74-27.06-8-49-7.08-12.2-15.36-21.81-22.91-27.31h0a16.21,16.21,0,0,0-10.94-6.05,98.33,98.33,0,0,0,28-28.36,12.4,12.4,0,0,0,.42,2.77,16.49,16.49,0,0,0,4.45,7.37c5.41,8,15.72,16.9,28.49,24.24s27,8.84,36.87,8.84a77.3,77.3,0,0,0,12.41-.88l1.21-.21-.42-1.15c-.09-.26-9.5-25.79-31.58-38.48-12.39-7.11-24.51-11.33-33.85-12.29h0c-4.55-1.57-9.19-1.34-12.63.51A97.06,97.06,0,0,0,374,281.15a15.55,15.55,0,0,0,9.7,6.65c8.56,4.11,21.65,6.69,36.57,6.69,25.5,0,46.48-17.44,46.69-17.62l.93-.78-.93-.79C466.75,275.12,445.77,257.68,420.27,257.68Zm-31.55,7.95c7.8,0,14.14,4.64,14.14,10.35s-6.34,10.36-14.14,10.36a18.51,18.51,0,0,1-4.2-.47h0c-5.77-2.75-9.23-6.15-9.23-9.78,0-3.8,3.79-7.34,10-10.15A18,18,0,0,1,388.72,265.63Zm-20.35-54.55a17.63,17.63,0,0,1,8.65-2.42c3.82,0,7.15,1.5,8.81,4.36a8.61,8.61,0,0,1,.7,6.66A16.22,16.22,0,0,1,378.8,229a18.43,18.43,0,0,1-3.64,1.6c-6.51.54-11.32-.68-13.17-3.87a7.66,7.66,0,0,1-.42-6,24.5,24.5,0,0,1,3.79-7.5A18.1,18.1,0,0,1,368.37,211.08Zm24.37-20.85c12.3-7.06,26.17-8.58,35.81-8.58a84.2,84.2,0,0,1,10.83.67c-2.11,5.1-11.46,25.44-30.21,36.21a99.48,99.48,0,0,1-27.5,11.08,17.41,17.41,0,0,0,6.85-9.4,10.54,10.54,0,0,0-.91-8.22c-3.14-5.41-11-6.89-18.18-3.74A99.58,99.58,0,0,1,392.74,190.23Zm-51.36-5.92a19,19,0,0,1-2.15,3c-5.45,3.81-10.31,5.2-13.55,3.34a7.79,7.79,0,0,1-3.4-5,24.48,24.48,0,0,1-.49-8.25,18.72,18.72,0,0,1,1.54-3.39c2.92-5,7.71-8.06,12-8.06a8.1,8.1,0,0,1,4.09,1.06,8.59,8.59,0,0,1,4,5.45A16.11,16.11,0,0,1,341.38,184.31ZM334,143.72c10.82-18.65,31.31-27.95,36.42-30a83,83,0,0,1,.67,10.76c0,9.58-1.52,23.38-8.63,35.63a99.05,99.05,0,0,1-18.19,23.22,17.37,17.37,0,0,0,1.16-11.4,10.61,10.61,0,0,0-4.92-6.7c-5.45-3.13-13-.5-17.67,5.85C324.58,162.84,328.47,153.16,334,143.72ZM266,167.7a18.12,18.12,0,0,1-.33-3.49c0-7.76,4.67-14.06,10.42-14.06s10.42,6.3,10.42,14.06a18.12,18.12,0,0,1-.33,3.49v0c-2.82,6.05-6.33,9.7-10.09,9.7s-7.28-3.65-10.09-9.7Zm10.09-79.15c3.37,4.35,16.43,22.6,16.43,44.13a98.39,98.39,0,0,1-4.08,29.16c-.9-7.77-6.09-13.75-12.35-13.75s-11.46,6-12.35,13.75a98,98,0,0,1-4.09-29.16C259.65,111.15,272.72,92.9,276.09,88.55Zm-65.27,95.89a16.17,16.17,0,0,1-2-11.9,8.57,8.57,0,0,1,4-5.45,8.09,8.09,0,0,1,4.08-1.06c4.31,0,9.1,3,12,8.05a18.42,18.42,0,0,1,1.5,3.3,24.3,24.3,0,0,1-.49,8.22,7.79,7.79,0,0,1-3.4,5c-3.29,1.89-8.24.42-13.78-3.51A18.42,18.42,0,0,1,210.82,184.44Zm-21.06-24.38c-10.82-18.64-8.68-40.93-7.95-46.39a88.42,88.42,0,0,1,16.07,8.81c7.11,4.92,14.94,11.91,20.35,21.24s9.39,19.21,11.18,27.43c-4.67-6.34-12.21-9-17.66-5.85a10.64,10.64,0,0,0-4.92,6.7,17.23,17.23,0,0,0,1.09,11.24A99.13,99.13,0,0,1,189.76,160.06ZM173.5,229.24a16.25,16.25,0,0,1-7.73-9.34,8.61,8.61,0,0,1,.7-6.66c1.66-2.87,5-4.37,8.81-4.37a17.51,17.51,0,0,1,8.65,2.43,18.25,18.25,0,0,1,3.09,2.22s0,0,0,0a23.85,23.85,0,0,1,3.58,7.2,7.75,7.75,0,0,1-.42,6c-1.92,3.31-7,4.49-13.92,3.79A18.23,18.23,0,0,1,173.5,229.24ZM143,218.53c-18.73-10.76-28.09-31.12-30.2-36.21,5.48-.73,27.88-2.86,46.64,7.91,9.59,5.51,17.89,12,23.55,18.29-7.25-3.21-15.15-1.74-18.3,3.69a10.54,10.54,0,0,0-.91,8.22,17.21,17.21,0,0,0,6.46,9.11A99.67,99.67,0,0,1,143,218.53Zm20.71,68.06c-7.8,0-14.14-4.64-14.14-10.35s6.34-10.36,14.14-10.36a18.52,18.52,0,0,1,3.91.41c5.8,2.75,9.28,6.16,9.28,9.8,0,3.86-3.91,7.46-10.35,10.29A18.89,18.89,0,0,1,163.71,286.59Zm-31.81,5.84c-21.63,0-40-13-44.36-16.34,4.39-3.37,22.73-16.34,44.36-16.34,11.25,0,21.69,1.59,29.68,4.18-7.93.8-14.07,6-14.07,12.31,0,6.11,5.79,11.2,13.39,12.22A100,100,0,0,1,131.9,292.43Zm52.15,48.71c-6.75,3.88-14.58,3-17.46-1.94a8.57,8.57,0,0,1-.69-6.66,13.88,13.88,0,0,1,2.78-5.2,18.23,18.23,0,0,1,4.95-4.14,17.69,17.69,0,0,1,3.88-1.67c6.26-.45,10.87.79,12.68,3.89a7.75,7.75,0,0,1,.42,6,25.47,25.47,0,0,1-4.25,8.14A17.69,17.69,0,0,1,184.05,341.14Zm-24.61,20.8c-18.74,10.77-41.16,8.64-46.64,7.91,2.1-5.09,11.45-25.44,30.2-36.21,9.79-5.63,19.69-9.45,27.94-11.17a17.55,17.55,0,0,0-7,9.54,10.63,10.63,0,0,0,.91,8.22c2,3.52,6.08,5.38,10.63,5.38a18.87,18.87,0,0,0,7.07-1.43A100.09,100.09,0,0,1,159.44,361.94Zm51.6,6a18.76,18.76,0,0,1,2.69-3.57c3.53-2.34,6.78-3.63,9.47-3.63a6.53,6.53,0,0,1,3.29.82,7.79,7.79,0,0,1,3.4,5,25.79,25.79,0,0,1,.39,9.23,18.54,18.54,0,0,1-1.19,2.46c-3.89,6.72-11.11,9.85-16.09,7a8.64,8.64,0,0,1-4-5.45A16.16,16.16,0,0,1,211,367.91Zm7.19,40.54c-10.83,18.65-31.32,28-36.42,30.05a82.84,82.84,0,0,1-.68-10.78c0-9.59,1.53-23.37,8.63-35.6,5.68-9.79,12.37-18.06,18.67-23.65A17.44,17.44,0,0,0,207,380.34,10.63,10.63,0,0,0,212,387a10,10,0,0,0,5.07,1.32c4.3,0,8.92-2.45,12.22-6.69A99.41,99.41,0,0,1,218.23,408.45ZM286.76,388c0,7.76-4.68,14.06-10.42,14.06s-10.42-6.3-10.42-14.06a18.57,18.57,0,0,1,.56-4.54c2.72-5.46,6.06-8.72,9.61-8.72,3.94,0,7.61,4,10.48,10.6A17.82,17.82,0,0,1,286.76,388Zm-10.67,75.62c-3.37-4.35-16.44-22.6-16.44-44.13,0-11.3,1.63-21.78,4.28-29.75.67,8.07,6,14.38,12.41,14.38,6.12,0,11.22-5.71,12.28-13.23a99.39,99.39,0,0,1,3.9,28.6C292.52,441,279.46,459.28,276.09,463.63Zm65.51-95.85a16.15,16.15,0,0,1,2,11.91,8.64,8.64,0,0,1-4,5.44c-5,2.87-12.2-.28-16.1-7a18.3,18.3,0,0,1-1.84-4.38,23.31,23.31,0,0,1,.57-7.19,7.79,7.79,0,0,1,3.4-5,6.56,6.56,0,0,1,3.29-.82c3.07,0,6.88,1.68,11,4.69A17.58,17.58,0,0,1,341.6,367.78Zm20.81,24.34c10.82,18.63,8.69,40.93,7.95,46.38a87.79,87.79,0,0,1-16.06-8.81c-7.11-4.91-14.94-11.91-20.35-21.24-5.61-9.66-9.54-19.57-11.28-27.88,3.33,4.83,8.32,7.67,12.93,7.67a10.1,10.1,0,0,0,5.07-1.32,10.65,10.65,0,0,0,4.93-6.7,17.1,17.1,0,0,0-1-11A99.71,99.71,0,0,1,362.41,392.12ZM378.92,323a16.22,16.22,0,0,1,7.74,9.35A8.59,8.59,0,0,1,386,339c-1.67,2.87-5,4.36-8.81,4.36a17.57,17.57,0,0,1-8.65-2.42,19,19,0,0,1-3.66-2.74,23.46,23.46,0,0,1-3.27-6.75,7.67,7.67,0,0,1,.42-6c1.57-2.7,5.26-4,10.31-4,1.17,0,2.42.07,3.73.2A19.8,19.8,0,0,1,378.92,323Zm30.25,10.66c18.74,10.76,28.1,31.12,30.21,36.21-5.49.74-27.88,2.86-46.64-7.91-9.64-5.53-18-12.1-23.65-18.39a19.09,19.09,0,0,0,8,1.84c4.55,0,8.59-1.86,10.63-5.37a10.61,10.61,0,0,0,.91-8.23,17.37,17.37,0,0,0-6.47-9.12A100.43,100.43,0,0,1,409.17,333.64Zm-133.08,38a95.54,95.54,0,1,1,95.54-95.54A95.65,95.65,0,0,1,276.09,371.63Zm144.18-79.2a99.63,99.63,0,0,1-29.49-4.12c8-.78,14.14-6,14.14-12.33s-5.93-11.32-13.66-12.26a100,100,0,0,1,29-4c21.64,0,40,13,44.36,16.34C460.25,279.45,441.93,292.43,420.27,292.43ZM269.56,112.24a6.53,6.53,0,1,1,6.53,6.5A6.51,6.51,0,0,1,269.56,112.24ZM198.85,131a6.48,6.48,0,0,1-2.39,8.87,6.55,6.55,0,0,1-8.92-2.38,6.48,6.48,0,0,1,2.39-8.87A6.55,6.55,0,0,1,198.85,131Zm-60.73,66.76a6.55,6.55,0,0,1-8.92,2.37,6.48,6.48,0,0,1-2.39-8.87,6.55,6.55,0,0,1,8.92-2.37A6.48,6.48,0,0,1,138.12,197.75Zm-21.43,79.14a6.53,6.53,0,1,1-6.52-6.49A6.51,6.51,0,0,1,116.69,276.89Zm21.24,79.21a6.48,6.48,0,0,1-2.39,8.87,6.56,6.56,0,0,1-8.92-2.38,6.48,6.48,0,0,1,2.39-8.87A6.55,6.55,0,0,1,137.93,356.1ZM198.52,423a6.55,6.55,0,0,1-8.92,2.38,6.48,6.48,0,0,1-2.39-8.87,6.56,6.56,0,0,1,8.92-2.38A6.48,6.48,0,0,1,198.52,423Zm83.71,18.94a6.53,6.53,0,1,1-6.53-6.5A6.51,6.51,0,0,1,282.23,441.93Zm70.71-18.74a6.48,6.48,0,0,1,2.39-8.87,6.55,6.55,0,0,1,8.92,2.37,6.48,6.48,0,0,1-2.39,8.87A6.56,6.56,0,0,1,352.94,423.19Zm60.73-66.76a6.55,6.55,0,0,1,8.92-2.38,6.48,6.48,0,0,1,2.39,8.87,6.56,6.56,0,0,1-8.92,2.38A6.48,6.48,0,0,1,413.67,356.43Zm21.43-79.15a6.53,6.53,0,1,1,6.53,6.49A6.51,6.51,0,0,1,435.1,277.28Zm-21.24-79.2a6.48,6.48,0,0,1,2.39-8.87,6.54,6.54,0,0,1,8.92,2.37,6.48,6.48,0,0,1-2.39,8.87A6.55,6.55,0,0,1,413.86,198.08Zm-60.59-66.9a6.55,6.55,0,0,1,8.92-2.38,6.48,6.48,0,0,1,2.39,8.87,6.55,6.55,0,0,1-8.92,2.38A6.48,6.48,0,0,1,353.27,131.18Zm-107.8,43L223.56,95.92l32.12,74.62Zm-46.87,29-58.08-56.79,65.12,48.56Zm-26.1,48.52L93.8,231.49l80.67,9.5Zm1.65,55.07L95.92,328.61l74.62-32.11Zm29,46.87-56.79,58.09,48.57-65.12ZM241,377.7l10.64,2-20.14,78.7Zm65.71.33,21.91,78.22L296.5,381.63Zm46.87-29,58.09,56.8-65.12-48.57Zm26.11-48.52,78.7,20.14-80.68-9.5ZM378,245.47l78.23-21.91-74.63,32.12Zm-29-46.87,56.8-58.08-48.57,65.12Zm-37.88-24.13-10.64-2,20.14-78.71ZM276.09,0C123.85,0,0,123.85,0,276.09S123.85,552.18,276.09,552.18,552.18,428.32,552.18,276.09,428.32,0,276.09,0ZM513.25,149.92l-.13.11a1.09,1.09,0,0,0-.27.33c-.08.13-.15.26-.21.38a1.52,1.52,0,0,0-.12.43,1.47,1.47,0,0,0-.06.42,2.27,2.27,0,0,0,2.25,2.26,2.26,2.26,0,0,0,.57-.09h0a266.83,266.83,0,0,1,29.44,117.6c0,.7,0,1.4,0,2.1-4-2.22-10.51-13.38-16.85-24.22-6.16-10.52-13.55-23.14-22.31-34.64,1.58-13.47,1.66-27.31,1.73-39.48.07-13.23.14-26.86,2.88-30.8.25.45.52.9.77,1.36.78,1.4,1.55,2.81,2.29,4.22Zm-10,228.44c.08,13.58.14,23.81,2.24,29.6-6.36.91-15.69,6.23-28.15,13.33-9.28,5.3-19.72,11.24-30.53,16.21A123.44,123.44,0,0,0,451,424c7-3.45,13.68-7.27,19.76-10.73,11.09-6.32,20.67-11.8,23.95-9.89h0a.88.88,0,0,0,1.19-.32.87.87,0,0,0-.32-1.19h0c-3-1.73-3-12.36-3.11-24.67-.05-7.2-.1-15.49-.73-23.93a119.21,119.21,0,0,0,10-11C503.11,354.86,503.19,367.59,503.26,378.36ZM277,540c-4-5.06-13.23-10.47-25.62-17.71-9.22-5.39-19.6-11.46-29.3-18.35a123.75,123.75,0,0,0,12.8-2.81c6.68,4.49,13.56,8.52,19.8,12.17,11,6.44,20.54,12,20.54,15.79a.87.87,0,1,0,1.74,0c0-3.44,9.18-8.81,19.81-15,6.47-3.79,13.94-8.17,21.21-13.19a118.51,118.51,0,0,0,14.14,3c-10.32,7.47-21.3,13.9-30.61,19.35C289.8,530.1,281,535.27,277,540ZM50.94,377.08c.06-10.22.12-21.65,1.1-33a116.68,116.68,0,0,0,8.54,9c-.54,8-.58,15.84-.62,23-.07,12.77-.13,23.79-3.41,25.69a.87.87,0,1,0,.87,1.51c3-1.73,12.23,3.54,22.93,9.64,6.7,3.81,14.47,8.24,22.7,12.1a124.17,124.17,0,0,0,4.17,12.72c-11.62-5.19-22.69-11.49-32-16.83-11.8-6.72-20.69-11.78-26.76-12.85C50.81,402.15,50.87,391.42,50.94,377.08Zm-.37-203.27c-.08-13.57-.14-23.8-2.25-29.59,6.37-.91,15.69-6.23,28.15-13.33,9.28-5.3,19.72-11.24,30.54-16.21a125.45,125.45,0,0,0-4,12.63C95.35,131,88,135.17,81.37,139c-11.09,6.32-20.66,11.78-24,9.88a.89.89,0,0,0-1.19.32.87.87,0,0,0,.32,1.19c3,1.72,3,12.36,3.12,24.68,0,7.14.09,15.35.71,23.73A116.43,116.43,0,0,0,51.83,208C50.7,196,50.63,184,50.57,173.81ZM276.82,12.19c4,5.06,13.24,10.47,25.62,17.71,9.23,5.39,19.6,11.46,29.31,18.35A121.34,121.34,0,0,0,317.8,51.4c-6.83-4.63-13.91-8.78-20.3-12.51-11-6.44-20.54-12-20.54-15.8a.87.87,0,0,0-1.74,0c0,3.44-9.18,8.82-19.81,15-6.34,3.7-13.64,8-20.76,12.87a120.1,120.1,0,0,0-12.94-2.72c10.31-7.47,21.3-13.9,30.6-19.35C264,22.08,272.86,16.91,276.82,12.19ZM502.88,175.1c-.06,10.69-.12,22.7-1.23,34.55a122.3,122.3,0,0,0-10-10.84c.53-7.87.58-15.69.61-22.78.07-12.77.13-23.79,3.41-25.69a.87.87,0,0,0,.32-1.19.89.89,0,0,0-1.19-.32c-3,1.73-12.22-3.54-22.92-9.63-6.19-3.52-13.29-7.57-20.83-11.2a117.8,117.8,0,0,0-4.4-13.62c11.63,5.19,22.69,11.49,32.06,16.83,11.79,6.72,20.68,11.78,26.75,12.85C503,150,503,160.76,502.88,175.1ZM490.77,377.17c.06,11.25.11,20,2.17,24.07-4.81.1-12.73,4.62-23,10.47-5.68,3.24-11.9,6.79-18.38,10,3.12-14.17,2.79-28.17-4.24-40.34a2.18,2.18,0,0,0-1.8-1.1c2.08-3.38,4.07-6.81,6-10.32a2.19,2.19,0,0,0,1.86,1c14.11,0,26.25-6.56,36.81-16.25C490.68,362.67,490.73,370.41,490.77,377.17ZM334.6,487.35c7.7-7.67,13.51-16.42,15-26.36h0q9.15-3.64,17.83-8.16c-.11,13.87-7.59,26.08-18.17,36.7A119.85,119.85,0,0,1,334.6,487.35ZM61.41,175c-.07-11.25-.12-20-2.17-24.07,4.8-.11,12.73-4.63,23-10.48,6.22-3.55,13.09-7.46,20.25-11-3.35,14.48-3.16,28.84,4,41.27a2.08,2.08,0,0,0,.49.57q-3.27,5.25-6.22,10.73a2.2,2.2,0,0,0-1.92-1.13c-14.12,0-26.27,6.57-36.83,16.27C61.49,189.37,61.45,181.71,61.41,175ZM217.58,64.82c-7.7,7.67-13.51,16.42-15,26.35h0q-8.26,3.3-16.16,7.31c.41-13.46,7.74-25.33,18-35.69A116.44,116.44,0,0,1,217.58,64.82ZM468,302.21a.87.87,0,0,0-.23.27s0,0,0,.08a3.42,3.42,0,0,0-1.85-.42l-42,2.76,41.88,4a3.25,3.25,0,0,0,.54,0,2.93,2.93,0,0,0,.67-.11h0a191.44,191.44,0,0,1-5.88,24.59l-42.69-7.84L459,339.57h0q-1.53,4.4-3.26,8.68a.88.88,0,0,0-.46,1.12h0a193.32,193.32,0,0,1-26.26,45.31l0,0a.85.85,0,0,0-.17.06.86.86,0,0,0-.3.3,3.4,3.4,0,0,0-1.43-1.35l-37.73-18.6,34.29,24.37a3.52,3.52,0,0,0,.46.28,2.9,2.9,0,0,0,.62.23,193.26,193.26,0,0,1-17.42,18.32h0l-33-28.09,28.13,32.45h0q-3.42,3-7,5.75l0,0a.82.82,0,0,0-.71.42.85.85,0,0,0-.06.17l0,0a193.32,193.32,0,0,1-45.31,26.26.84.84,0,0,0-1,.28,3.34,3.34,0,0,0-.57-1.93l-23.37-35,17.5,38.25a3.59,3.59,0,0,0,.27.47,2.88,2.88,0,0,0,.44.53,190.33,190.33,0,0,1-24.27,7.13h0l-14.54-40.82L312,466.38q-4.22.81-8.52,1.41h0a.88.88,0,0,0-1-.07,1.05,1.05,0,0,0-.27.24A194.78,194.78,0,0,1,250,468h0a1.2,1.2,0,0,0-.26-.24.88.88,0,0,0-1,.07h0a3.42,3.42,0,0,0,.43-1.88l-2.75-42-4,41.88a2.57,2.57,0,0,0,.07,1h0a191.32,191.32,0,0,1-24.48-6l7.78-42.37-13.94,40.31h0q-4-1.41-7.91-3a.88.88,0,0,0-.8-.51.81.81,0,0,0-.31.06,193.38,193.38,0,0,1-45.32-26.26h0a.39.39,0,0,0-.06-.18.82.82,0,0,0-.71-.42l0,0a.18.18,0,0,0-.07-.05h0a3.3,3.3,0,0,0,1-1.17l18.6-37.73-24.37,34.29a3.52,3.52,0,0,0-.28.46h0a193.58,193.58,0,0,1-18.09-17.34h0l27.64-32.47-31.91,27.65h0q-2.79-3.22-5.41-6.57v0a.88.88,0,0,0-.42-.71,1.06,1.06,0,0,0-.19-.06v0a193.54,193.54,0,0,1-26.26-45.29.94.94,0,0,0,.07-.34.85.85,0,0,0-.4-.71,3.33,3.33,0,0,0,1.1-.47l35-23.37L94.36,342l-.3.17h0a193.21,193.21,0,0,1-7-24h0l40-14.25-41.28,8q-.8-4.17-1.39-8.42h0a.88.88,0,0,0,.07-1,.9.9,0,0,0-.24-.27,194.78,194.78,0,0,1,0-52.25h0a1,1,0,0,0,.24-.25.83.83,0,0,0,.09-.55,3.33,3.33,0,0,0,.84.06l42-2.75-41.88-4h-.11a193.93,193.93,0,0,1,5.91-24.27l41.56,7.63L93.3,212.16h0q1.45-4.17,3.1-8.24h0a.85.85,0,0,0,.52-.79.88.88,0,0,0-.07-.33,193.54,193.54,0,0,1,26.26-45.29l.2-.09a.9.9,0,0,0,.18-.16,3.09,3.09,0,0,0,.6.39l37.74,18.6-34.22-24.32a194.5,194.5,0,0,1,17.21-18.07h0l32.06,27.28-27.32-31.51q3.48-3,7.11-5.87h0a.88.88,0,0,0,.71-.42.73.73,0,0,0,.07-.19h0a193.8,193.8,0,0,1,45.3-26.26h0a1.09,1.09,0,0,0,.26,0,2.93,2.93,0,0,0,.37.78l23.37,35-17.5-38.26a.35.35,0,0,0,0-.08h0a192.47,192.47,0,0,1,23.94-7.1l14.2,39.87-7.95-41.18q4.6-.89,9.29-1.55a.88.88,0,0,0,1,.07,1,1,0,0,0,.26-.24,194.78,194.78,0,0,1,52.25,0s0,0,0,0a3.47,3.47,0,0,0-.15,1.21l2.76,42,4-41.88c0-.1,0-.21,0-.32h0A190.57,190.57,0,0,1,333.14,91l-7.69,41.87L339.24,93q4.56,1.56,9,3.37h0a.88.88,0,0,0,.8.53,1,1,0,0,0,.34-.07h0A193.55,193.55,0,0,1,394.56,123h0a3.52,3.52,0,0,0-.92,1.13l-18.6,37.74,24.37-34.29a2.64,2.64,0,0,0,.27-.46,192.37,192.37,0,0,1,18.2,17.22L390.16,177l32-27.78h0q3.19,3.68,6.21,7.51l0,0a.82.82,0,0,0,.42.71.77.77,0,0,0,.19.08,193.38,193.38,0,0,1,26.26,45.32.5.5,0,0,0,0,.12,3.29,3.29,0,0,0-1.69.55l-35,23.37,38.25-17.5a2.73,2.73,0,0,0,.47-.27,2.69,2.69,0,0,0,.33-.26h0a190.15,190.15,0,0,1,7.2,24.13l-40.69,14.49,42-8.11c.6,3.1,1.13,6.24,1.57,9.39a.86.86,0,0,0-.06,1,.92.92,0,0,0,.23.25h0a194.78,194.78,0,0,1,0,52.25Zm4.71-57a196.72,196.72,0,0,0-10.92-40.73c9.42,1.69,17.78,7.49,25.14,15.08C484.38,229.88,480.07,239,472.67,245.25ZM461,202.61h0q-3.47-8.72-7.73-17h.07c13.65,0,25.69,7.14,36.19,17.36a118.06,118.06,0,0,1-2.17,14.62C479.68,209.87,470.93,204.07,461,202.61Zm29-5.32c-10.61-9.58-22.76-16.12-36.62-16.12a2.19,2.19,0,0,0-1.86,1q-2.82-5.26-6-10.33a2.17,2.17,0,0,0,1.81-1.09c7.16-12.39,7.46-26.39,4.21-40.58,7,3.45,13.64,7.22,19.43,10.52,9.78,5.57,17.36,9.89,21.94,10.16-2.32,4.21-2.37,13.33-2.43,25.15C490.44,182.65,490.39,189.93,490,197.29Zm-46.46-28.73,0,.06q-5.28-8.2-11.32-15.83h0c3.81-9.44,3.15-19.91.23-30.43a121.24,121.24,0,0,1,14,5.38C450.22,142.16,450.53,156.37,443.49,168.56Zm-12.62-17.37c-2.09-2.58-4.25-5.12-6.46-7.59l0,0,0,0a3.17,3.17,0,0,0-.67-.8l-.1-.07,0,0A201.38,201.38,0,0,0,401,121.31c9-3.28,19.21-2.45,29.41.46C433.38,132,434.22,142.09,430.87,151.19ZM399.4,120q-7.12-5.66-14.76-10.64c11.81-6.73,25.76-6.53,39.93-2.93a118,118,0,0,1,5.22,13.32C419.27,116.94,408.76,116.3,399.4,120Zm-17.17-14.36a2.19,2.19,0,0,0-1.06,1.51q-4.94-3.09-10.07-5.88a2.21,2.21,0,0,0,.73-1.64c0-14.48-6.9-26.89-17-37.64,7.89-.54,15.6-.58,22.35-.62,11.25-.07,20-.12,24.07-2.17.1,4.8,4.62,12.73,10.48,23,3.35,5.89,7,12.37,10.4,19.12C408.1,98.33,394.27,98.72,382.23,105.68ZM367.4,99.33q-8.68-4.5-17.82-8.16c-1.44-10-7.24-18.75-15-26.37a119.32,119.32,0,0,1,14.5-2.29C359.77,73.07,367.27,85.23,367.4,99.33Zm-19.73-8.9c-2.86-1.11-5.74-2.15-8.66-3.13h0a3.31,3.31,0,0,0-1.58-.77,2.85,2.85,0,0,0-.87,0l0,0h0a196.83,196.83,0,0,0-29.51-7c6.17-7.3,15.37-11.64,25.62-14.22C340.22,72.6,346,80.91,347.67,90.43ZM304.92,79.2q-8.78-1.29-17.77-1.78c7-11.54,19.15-18.24,33.18-22.14a118.18,118.18,0,0,1,10.72,8.59C320.55,66.66,311.15,71.33,304.92,79.2Zm-22-3.35a2.15,2.15,0,0,0-.27,1.37c-2.17-.07-4.36-.11-6.55-.11-1.64,0-3.27,0-4.9.07a2.25,2.25,0,0,0-.28-1.33c-7.33-12.69-19.72-20-34.07-24.23,6.7-4.52,13.5-8.51,19.45-12C266,34,273.52,29.54,276.05,25.72c2.49,4.1,10.37,8.71,20.57,14.67,6,3.5,12.6,7.37,19,11.66C301.85,56.43,289.92,63.71,282.91,75.85Zm-16.29,1.49q-9.81.47-19.35,1.86c-6.27-8-15.64-12.62-26.18-15.33a120.43,120.43,0,0,1,11-8.95C246.69,58.64,259.34,65.33,266.62,77.34ZM245.24,79.5q-4.23.66-8.39,1.5h0a3.42,3.42,0,0,0-2.3,0,3.34,3.34,0,0,0-1.22.77,196.68,196.68,0,0,0-28.8,8.68C206.21,81,212,72.65,219.6,65.29,229.88,67.79,239,72.1,245.24,79.5Zm-63,21.17q-5.06,2.72-9.92,5.7a2.11,2.11,0,0,0-.73-.69c-12.79-7.39-27.3-7.47-42-3.88,3.6-7.44,7.6-14.47,11.08-20.59,5.57-9.78,9.88-17.36,10.16-21.93,4.21,2.31,13.33,2.36,25.15,2.42,7.08,0,14.9.08,22.76.61C188.84,73.09,182,85.49,182,99.67A2.09,2.09,0,0,0,182.24,100.67Zm-14,8.26q-8,5.17-15.49,11.1c-9.44-3.82-19.91-3.16-30.43-.23a116.15,116.15,0,0,1,4.85-12.75C141.66,102.93,155.94,102.31,168.27,108.93ZM151.19,121.3c-2.06,1.67-4.08,3.37-6.07,5.12h0a3.33,3.33,0,0,0-2.42,1.18,3.26,3.26,0,0,0-.76,1.68h0a198.59,198.59,0,0,0-20.61,21.9c-3.28-9-2.45-19.21.45-29.41C132,118.8,142.09,118,151.19,121.3ZM120,152.78h0q-5.54,7-10.44,14.45c-6.29-11.94-5.77-26-1.95-40.15a114.28,114.28,0,0,1,12.13-4.69C116.94,132.91,116.29,143.42,120,152.78ZM98.85,185.37l.19,0q-4.32,8.4-7.86,17.25c-10.05,1.44-18.75,7.23-26.38,15a120.34,120.34,0,0,1-2.31-14.7C73,192.54,85,185.37,98.85,185.37ZM90.44,204.5c-.94,2.41-1.82,4.84-2.66,7.3h0a3.31,3.31,0,0,0-1.22,3.67v0a195.42,195.42,0,0,0-7,29.74c-7.31-6.18-11.65-15.38-14.23-25.63C72.6,212,80.92,206.17,90.44,204.5ZM79.21,247.26q-1.3,8.91-1.8,18.07C66,258,59.46,245.53,55.72,231.25a116.23,116.23,0,0,1,8.15-10.12C66.66,231.63,71.34,241,79.21,247.26Zm-2.54,22.83a2.27,2.27,0,0,0,.54.22c0,1.92-.09,3.85-.09,5.78s0,3.86.09,5.79a2.24,2.24,0,0,0-.54.21C63.9,289.46,56.58,302,52.36,316.43c-4.83-7.05-9.06-14.28-12.73-20.54-5.68-9.71-10.09-17.24-13.91-19.76,4.1-2.49,8.71-10.37,14.67-20.57,3.61-6.18,7.6-13,12-19.61C56.77,250.33,64.12,262.84,76.67,270.09Zm.74,16.76q.5,9.13,1.79,18h0c-8,6.27-12.62,15.64-15.33,26.18a113.59,113.59,0,0,1-8.18-10C59.32,306.74,65.81,294.24,77.41,286.85Zm2.1,20.07c.4,2.58.85,5.16,1.36,7.7v0a3.42,3.42,0,0,0,0,2.12,3.23,3.23,0,0,0,.61,1h0a198.85,198.85,0,0,0,8.9,29.86C81,346,72.65,340.17,65.29,332.58,67.8,322.29,72.11,313.13,79.51,306.92Zm11.67,42.64h0q3.43,8.6,7.62,16.79c-13.62,0-25.64-7.15-36.13-17.35a118.94,118.94,0,0,1,2.15-14.42C72.49,342.3,81.24,348.1,91.18,349.56Zm-28.94,5.12c10.6,9.57,22.75,16.11,36.61,16.11a2.21,2.21,0,0,0,1.79-.92q3,5.58,6.35,11a2.13,2.13,0,0,0-.49.58c-7.3,12.65-7.47,27-4,41.48-7.7-3.69-15-7.83-21.29-11.43-9.78-5.56-17.36-9.88-21.93-10.15,2.31-4.21,2.36-13.34,2.42-25.16C61.74,369.46,61.78,362.1,62.24,354.68ZM109.62,385q4.89,7.46,10.41,14.43c-3.82,9.44-3.16,19.91-.23,30.43a115.5,115.5,0,0,1-12.08-4.54C103.77,411.08,103.22,397.09,109.62,385Zm11.68,16c1.72,2.12,3.47,4.2,5.27,6.25l0,0a3.31,3.31,0,0,0,1.56,1.76,201.42,201.42,0,0,0,23,21.84c-9,3.29-19.2,2.45-29.41-.45C118.79,420.21,118,410.08,121.3,401Zm17.17,33.76a38.38,38.38,0,0,0,14.31-2.6h0q7.49,5.92,15.52,11.12c-12.14,6.51-26.46,5.92-40.92,1.95a117.45,117.45,0,0,1-5-12.82A61.82,61.82,0,0,0,138.47,434.74Zm8.9,17.88a47.53,47.53,0,0,0,24.22-6.12,2.26,2.26,0,0,0,.74-.7q4.86,3,9.91,5.7a2.25,2.25,0,0,0-.25,1c0,14.42,6.85,26.8,16.9,37.52-8.42.64-16.7.69-23.88.73-11.25.07-20,.12-24.07,2.18-.11-4.81-4.63-12.74-10.48-23-3.43-6-7.2-12.63-10.61-19.53A76.17,76.17,0,0,0,147.37,452.62Zm39.09,1.08q7.88,4,16.14,7.29c1.44,10.05,7.23,18.76,15,26.38a115.69,115.69,0,0,1-13,2.13C194.19,479.2,186.87,467.37,186.46,453.7Zm18,8a197.54,197.54,0,0,0,40.73,10.93c-6.18,7.3-15.37,11.64-25.62,14.22C212,479.57,206.17,471.25,204.5,461.74ZM247.26,473c6.36.93,12.83,1.55,19.37,1.86-7.17,11.82-19.82,18.56-34.31,22.39a116.09,116.09,0,0,1-11.19-8.92C231.63,485.51,241,480.84,247.26,473Zm23.65,3.36a2.21,2.21,0,0,0,.28-1.34c1.63,0,3.26.07,4.9.07,2.19,0,4.38,0,6.55-.11a2.18,2.18,0,0,0,.27,1.38c7.13,12.35,19.07,19.6,32.92,23.89C309,504.88,302,509,295.89,512.54c-9.71,5.68-17.24,10.09-19.76,13.92-2.49-4.11-10.37-8.71-20.57-14.68-5.83-3.41-12.24-7.16-18.5-11.31C251.33,496.13,263.71,488.8,270.91,476.33Zm16.24-1.57q9-.5,17.75-1.78h0c6.27,8,15.64,12.61,26.17,15.33a119.38,119.38,0,0,1-10.6,8.64C306.38,493.15,294.22,486.49,287.15,474.76Zm19.78-2.09a196.28,196.28,0,0,0,40.73-10.93c-1.69,9.43-7.49,17.79-15.08,25.15C322.29,484.38,313.13,480.07,306.93,472.67Zm64.16-21.8q5.13-2.81,10.08-5.89a2.18,2.18,0,0,0,1.06,1.52,47.65,47.65,0,0,0,24.26,6.2,72.49,72.49,0,0,0,15.85-1.89c-3.55,7.28-7.46,14.16-10.88,20.15-5.56,9.78-9.88,17.36-10.15,21.93-4.21-2.31-13.34-2.36-25.16-2.42-6.61,0-13.86-.08-21.19-.52,10-10.8,16.87-23.22,16.87-37.44A2.18,2.18,0,0,0,371.09,450.87Zm13.55-8.1q7.62-5,14.75-10.62h0a38.07,38.07,0,0,0,14.33,2.65,60.31,60.31,0,0,0,16.09-2.42,117.25,117.25,0,0,1-5.08,13.28C410.57,449.39,396.64,449.61,384.64,442.77ZM401,430.88A201.93,201.93,0,0,0,430.87,401c3.28,9,2.44,19.2-.46,29.4C420.21,433.38,410.09,434.22,401,430.88Zm31.15-31.48h0q6-7.62,11.32-15.84l0,.06c6.92,12,6.65,26.21,2.91,40.62a118.86,118.86,0,0,1-14,5.55C435.24,419.26,435.88,408.76,432.14,399.4Zm21.19-32.81h-.08q4.26-8.29,7.74-17c10.05-1.44,18.76-7.24,26.38-15a121.33,121.33,0,0,1,2.3,14.52C479.21,359.43,467.21,366.59,453.33,366.59Zm8.41-18.92a196.91,196.91,0,0,0,10.93-40.73c7.3,6.18,11.64,15.37,14.22,25.63C479.57,340.22,471.25,346,461.74,347.67ZM473,304.91q1.38-9.41,1.85-19.07l.12.09c11.87,6.85,18.73,19.14,22.71,33.33a121,121,0,0,1-9.35,11.79C485.51,320.54,480.84,311.14,473,304.91Zm4.18-22.82a2.22,2.22,0,0,0-2.19,0c.06-2,.1-4,.1-6s0-4-.1-6a2.19,2.19,0,0,0,1.09.28,2.21,2.21,0,0,0,1.1-.29c12.27-7.09,19.52-18.91,23.81-32.66,4.35,6.51,8.21,13.09,11.58,18.86,5.69,9.7,10.09,17.23,13.92,19.76-4.11,2.49-8.71,10.36-14.68,20.57-3.3,5.65-6.92,11.84-10.92,17.91C496.47,300.86,489.21,289.05,477.15,282.09Zm-2.21-15.84-.12.09q-.48-9.66-1.84-19.07h0c8-6.26,12.61-15.63,15.33-26.17a120.2,120.2,0,0,1,9.4,11.65C493.84,247,487,259.28,474.94,266.25Zm13.86-47.19a115.66,115.66,0,0,0,2.33-14.5A131.29,131.29,0,0,1,501,215.87a132.64,132.64,0,0,1-2.69,14.68A117.53,117.53,0,0,0,488.8,219.06Zm-43.07-93.5a116.75,116.75,0,0,0-13.93-5.21,116.43,116.43,0,0,0-5.05-13.3,131.93,131.93,0,0,1,14.08,4.87A131.92,131.92,0,0,1,445.73,125.56Zm-21.42-23.72c-3.54-7.24-7.5-14.18-11.08-20.47-6.32-11.09-11.79-20.67-9.89-24a.87.87,0,1,0-1.51-.87c-1.72,3-12.36,3-24.67,3.12-7.2,0-15.48.09-23.92.73A120.54,120.54,0,0,0,343,51.2c12.66-1.31,25.39-1.39,36.17-1.45,13.57-.08,23.8-.15,29.59-2.25.91,6.36,6.23,15.69,13.33,28.15,5.3,9.28,11.24,19.72,16.21,30.53A122.68,122.68,0,0,0,424.31,101.84ZM347.44,60.93a117.58,117.58,0,0,0-14.38,2.43,111.83,111.83,0,0,0-10.56-8.65A129.34,129.34,0,0,1,336.79,52,131.66,131.66,0,0,1,347.44,60.93ZM229.9,54.38a115.4,115.4,0,0,0-10.84,9,111.89,111.89,0,0,0-13-2.16,131,131,0,0,1,10.63-9.16A130,130,0,0,1,229.9,54.38Zm-29.58,6.3C191.94,60.05,183.57,60,176,60c-12.76-.07-23.79-.13-25.68-3.41h0a.86.86,0,0,0-1.18-.32.87.87,0,0,0-.32,1.19h0c1.71,3-3.55,12.23-9.64,22.93-3.71,6.51-8,14-11.78,22a122.1,122.1,0,0,0-12.22,4c5.2-11.62,11.5-22.69,16.83-32.05,6.72-11.8,11.78-20.69,12.86-26.76,6,2.4,16.69,2.45,31,2.53,10.68.06,22.7.13,34.54,1.24A123.76,123.76,0,0,0,200.32,60.68Zm-75.31,47a113.34,113.34,0,0,0-4.66,12.69,111.44,111.44,0,0,0-12.09,4.52,134.83,134.83,0,0,1,4.48-12.73C116.81,110.47,120.91,109,125,107.69Zm-64.1,96.82a116.72,116.72,0,0,0,2.45,14.6,112.2,112.2,0,0,0-8.2,9.94,139.73,139.73,0,0,1-2.65-14.84A127.65,127.65,0,0,1,60.91,204.51ZM51.8,233.78c-4.79,7-9.07,14.32-12.91,20.9-6.44,11-12,20.54-15.8,20.54a.87.87,0,0,0,0,1.74c3.44,0,8.82,9.18,15,19.81,3.89,6.65,8.42,14.38,13.62,21.84A125.39,125.39,0,0,0,48.85,333c-8.06-10.85-15-22.63-20.74-32.5-6.85-11.72-12-20.55-16.74-24.51,5.06-4,10.47-13.24,17.71-25.62,5.73-9.81,12.23-20.91,19.66-31.13A129.7,129.7,0,0,0,51.8,233.78Zm3.35,89.53a114.83,114.83,0,0,0,8.22,9.8,114.6,114.6,0,0,0-2.3,14.3,126.23,126.23,0,0,1-8.4-9.5A137.21,137.21,0,0,1,55.15,323.31Zm53.19,104.13a110.13,110.13,0,0,0,12,4.38,110.55,110.55,0,0,0,4.82,12.76c-4.09-1.21-8.17-2.68-12.21-4.32A134.42,134.42,0,0,1,108.34,427.44Zm19.3,22.43c3.6,7.41,7.65,14.51,11.31,20.93,6.32,11.09,11.78,20.67,9.89,23.95a.87.87,0,0,0,.32,1.19.82.82,0,0,0,.43.12.87.87,0,0,0,.75-.44c1.72-3,12.36-3,24.68-3.11,7.63-.05,16.47-.1,25.44-.85A121.78,121.78,0,0,0,210.8,501c-12.66,1.31-25.39,1.39-36.16,1.45-13.58.08-23.81.15-29.6,2.25-.91-6.36-6.23-15.69-13.33-28.15-5.29-9.28-11.24-19.72-16.2-30.53A126.24,126.24,0,0,0,127.64,449.87Zm78.56,41.21a113.75,113.75,0,0,0,12.91-2.27,115,115,0,0,0,11,9A131.49,131.49,0,0,1,217,500.22,131,131,0,0,1,206.2,491.08Zm116.47,6.42a113,113,0,0,0,10.44-8.7,115.8,115.8,0,0,0,14.49,2.33,134.39,134.39,0,0,1-10.47,9A129.1,129.1,0,0,1,322.67,497.5Zm30.73-5.9c7.86.53,15.67.57,22.74.61,12.77.07,23.79.13,25.69,3.41h0a.86.86,0,0,0,1.19.32.87.87,0,0,0,.32-1.19h0c-1.72-3,3.54-12.22,9.64-22.92,3.63-6.38,7.81-13.74,11.54-21.53a120.09,120.09,0,0,0,14.1-4.52c-5.19,11.62-11.49,22.69-16.82,32.05-6.72,11.8-11.79,20.69-12.86,26.76-6-2.4-16.7-2.45-31-2.53-10.69-.06-22.7-.13-34.55-1.24A121.25,121.25,0,0,0,353.4,491.6Zm73.52-46.55a116.32,116.32,0,0,0,4.91-13.25,114.65,114.65,0,0,0,14-5.37A130.88,130.88,0,0,1,441.09,440,129.77,129.77,0,0,1,426.92,445.05Zm64.32-97.58a115.84,115.84,0,0,0-2.42-14.41,117,117,0,0,0,9.42-11.62A133.27,133.27,0,0,1,501.05,336,129.51,129.51,0,0,1,491.24,347.47Zm10.28-30.78c4.33-6.48,8.23-13.14,11.77-19.2,6.44-11,12-20.53,15.79-20.53a.87.87,0,0,0,0-1.74c-3.44,0-8.81-9.18-15-19.81-3.6-6.15-7.73-13.21-12.44-20.13a119.23,119.23,0,0,0,3.11-14.39c7.47,10.31,13.9,21.3,19.35,30.6,6.85,11.72,12,20.55,16.74,24.51-5.06,4-10.47,13.24-17.71,25.62-5.39,9.23-11.46,19.6-18.35,29.3A119.61,119.61,0,0,0,501.52,316.69ZM418.41,48.26h0a2.17,2.17,0,0,0-.13.71,2.25,2.25,0,0,0,.67,1.59,2.33,2.33,0,0,0,.72.48,2.3,2.3,0,0,0,.86.16,2.18,2.18,0,0,0,.85-.16,2.23,2.23,0,0,0,.67-.44,270.8,270.8,0,0,1,84.23,87.06c.45.74.88,1.49,1.32,2.23-4.51.15-15.79-6.28-26.77-12.53-10.59-6-23.3-13.27-36.63-18.84C438.85,96.05,432,84,426,73.46,419.26,61.7,412.35,49.59,413.1,45l1.21.72Q416.37,47,418.41,48.26Zm-133-40.69h0a1.88,1.88,0,0,0,.14.46,2.05,2.05,0,0,0,.49.72,2.18,2.18,0,0,0,1.58.67,2.24,2.24,0,0,0,.85-.19,2,2,0,0,0,.72-.48,2.08,2.08,0,0,0,.5-.72,1.47,1.47,0,0,0,.08-.28h0A266.9,266.9,0,0,1,406.27,41.09c.89.49,1.77,1,2.65,1.5-3.43,2.57-16.79,2.65-29.76,2.73-12.2.07-26.81.17-41.14,2-10.88-8.11-22.83-15.1-33.35-21.24C292.56,19,280.05,11.69,279.18,7.43h1.38C282.19,7.46,283.82,7.5,285.45,7.57ZM150,38.87h0a1.13,1.13,0,0,0,.1.13,2.23,2.23,0,0,0,1.59.64,2.15,2.15,0,0,0,1.57-.64,2.2,2.2,0,0,0,.66-1.59,3.15,3.15,0,0,0,0-.44l0-.13h0A266.85,266.85,0,0,1,271.37,7.45c1.09,0,2.18,0,3.27,0-.91,3.85-12.92,10.88-24.56,17.69-10.53,6.16-23.15,13.55-34.64,22.31C202,45.84,188.12,45.76,176,45.69c-14.45-.07-29.37-.15-31.63-3.7l1.37-.78Q147.84,40,150,38.87ZM48.31,133.69h0a2.18,2.18,0,0,0,.76.14,2.23,2.23,0,0,0,.85-.18,2.33,2.33,0,0,0,.72-.48,2.46,2.46,0,0,0,.5-.72,2.4,2.4,0,0,0,.17-.87,1.49,1.49,0,0,0-.06-.43,1.57,1.57,0,0,0-.13-.42,1.2,1.2,0,0,0-.2-.39,1.59,1.59,0,0,0-.26-.32,270.75,270.75,0,0,1,87-84.13c.93-.57,1.88-1.12,2.82-1.68,1.73,3.35-5.39,15.85-12.28,27.95-6,10.59-13.26,23.3-18.84,36.63C96.88,114.16,84.85,121,74.28,127,61.64,134.25,48.57,141.7,45,139.61h0l-.18-.08,1-1.66C46.59,136.46,47.45,135.07,48.31,133.69Zm-7.22,12.22c.48-.87,1-1.73,1.47-2.59.06,0,.11.09.18.13,3.23,1.86,3.32,16.37,3.4,30.39.07,11.61.16,25.42,1.75,39.08C39.18,224.28,31.75,237,25.26,248.11c-6.65,11.37-13.5,23.09-17.84,25.21v-.18q0-3.24.15-6.46h0a2.48,2.48,0,0,0,.55-.15,2.42,2.42,0,0,0,.74-.48,2.25,2.25,0,0,0,0-3.16,2.15,2.15,0,0,0-1.11-.59h0A266.82,266.82,0,0,1,41.09,145.91ZM38.88,402.19h0l.21-.17a2.25,2.25,0,0,0,0-3.18c-.1-.09-.23-.18-.34-.27l-.38-.21a4.38,4.38,0,0,0-.43-.13,2.54,2.54,0,0,0-.87,0l-.23.07h0A266.84,266.84,0,0,1,7.42,279.23c0-.25,0-.5,0-.76,4,2.2,10.53,13.38,16.88,24.23,6.5,11.11,14.36,24.54,23.77,36.53-1.4,12.95-1.48,26.15-1.54,37.83-.08,14.54-.16,29.58-3.78,31.67-.07,0-.12.09-.18.13-.45-.79-.91-1.58-1.35-2.38Q40,404.35,38.88,402.19ZM133.76,503.9h0a2.12,2.12,0,0,0,.17-.83,2.26,2.26,0,0,0-.65-1.59,1.87,1.87,0,0,0-.35-.28,1.24,1.24,0,0,0-.39-.22,3.1,3.1,0,0,0-.4-.13,2.22,2.22,0,0,0-.89,0,2.92,2.92,0,0,0-.42.13,1.92,1.92,0,0,0-.39.22,1.75,1.75,0,0,0-.33.28l0,0h0a270.73,270.73,0,0,1-84.17-87c-.38-.62-.74-1.25-1.11-1.88l.18-.08c3.24-1.87,15.84,5.31,28,12.25,10.59,6,23.3,13.26,36.63,18.84,5.37,12.46,12.22,24.49,18.25,35.06C135,491.27,142.4,504.23,140.47,508c-.87-.51-1.75-1-2.61-1.54C136.48,505.59,135.12,504.75,133.76,503.9Zm133,40.7h0c0-.06,0-.13,0-.19a2.16,2.16,0,0,0-.13-.41,1.78,1.78,0,0,0-.2-.39,3.3,3.3,0,0,0-.28-.35c-.11-.09-.22-.18-.35-.27a1.79,1.79,0,0,0-.39-.21l-.4-.13a2.66,2.66,0,0,0-.89,0l-.42.13-.39.21-.33.27a1.87,1.87,0,0,0-.28.35,1.78,1.78,0,0,0-.2.39,1.62,1.62,0,0,0-.13.41h0a266.71,266.71,0,0,1-116.45-33.34l-1.58-.9c2.07-3.15,16.43-3.24,30.33-3.32,12.2-.07,26.81-.17,41.14-2,10.88,8.11,22.84,15.1,33.35,21.24,12.12,7.08,24.63,14.4,25.5,18.66l-3,0C270,544.71,268.39,544.67,266.78,544.6Zm135.51-31.36h0a1.16,1.16,0,0,0-.18-.2,1.3,1.3,0,0,0-.34-.28,1.63,1.63,0,0,0-.38-.22,2.7,2.7,0,0,0-.43-.13,2.12,2.12,0,0,0-.87,0,4,4,0,0,0-.42.13,1.92,1.92,0,0,0-.39.22,1.44,1.44,0,0,0-.33.28,1.29,1.29,0,0,0-.28.33,2.4,2.4,0,0,0-.2.39,1.87,1.87,0,0,0-.13.42,1.49,1.49,0,0,0-.05.43,2.25,2.25,0,0,0,.11.68h0a266.74,266.74,0,0,1-117.58,29.43l-1.62,0c1-3.86,12.95-10.88,24.56-17.67,10.52-6.16,23.14-13.55,34.64-22.31,13.47,1.58,27.31,1.66,39.48,1.73,13.55.07,27.51.14,31.07,3.07l-2.46,1.4C405.09,511.73,403.69,512.5,402.29,513.24Zm101.65-94.89-.34-.11a2.22,2.22,0,0,0-.89,0,2.46,2.46,0,0,0-.41.13,1.94,1.94,0,0,0-.38.2c-.13.09-.24.19-.36.28s-.18.22-.27.35a2.42,2.42,0,0,0-.21.39,3,3,0,0,0-.12.4,3.42,3.42,0,0,0,0,.45,2.62,2.62,0,0,0,.16.87,2.83,2.83,0,0,0,.48.72h0a270.83,270.83,0,0,1-87.05,84.25l-1.4.83c-.48-4.27,6.11-15.85,12.51-27.1,6-10.59,13.27-23.3,18.85-36.63C457,438,469,431.17,479.55,425.14c11.49-6.56,23.31-13.29,28.09-12.89-.41.69-.81,1.38-1.22,2.06Q505.21,416.34,503.94,418.35Zm7.14-12.08-.87,1.53c-2.38-3.83-2.45-16.84-2.53-29.46-.07-12.2-.17-26.81-2-41.14,8.11-10.88,15.1-22.84,21.24-33.35,6.64-11.36,13.49-23.07,17.83-25.2,0,.64,0,1.27,0,1.91,0,1.61-.06,3.22-.13,4.83a2.13,2.13,0,0,0-1.23.59,2.23,2.23,0,0,0-.67,1.59,2.31,2.31,0,0,0,.17.86,2.67,2.67,0,0,0,.5.72,2.24,2.24,0,0,0,1.06.59h0A266.85,266.85,0,0,1,511.08,406.27Zm-318.81-367a2.25,2.25,0,0,1,2.25-2.15h.09a2.23,2.23,0,0,1,2.12,2.24v.11a2.22,2.22,0,0,1-.68,1.51,2.26,2.26,0,0,1-1.55.61h-.11A2.22,2.22,0,0,1,192.27,39.28ZM231.54,28a2.24,2.24,0,0,1,.68-3.08,2.21,2.21,0,0,1,1.22-.37,2.24,2.24,0,0,1,1.2,4.13,2.2,2.2,0,0,1-1.2.35A2.25,2.25,0,0,1,231.54,28ZM249.6,16.51a2.25,2.25,0,0,1,.68-3.1,2.2,2.2,0,0,1,1.2-.35,2.25,2.25,0,0,1,1.9,1,2.2,2.2,0,0,1,.35,1.2,2.25,2.25,0,0,1-1,1.9,2.2,2.2,0,0,1-1.2.35A2.29,2.29,0,0,1,249.6,16.51ZM170.87,38.28a2.22,2.22,0,0,1,2.23-2.13h.09a2.25,2.25,0,0,1,2.14,2.24v.11a2.22,2.22,0,0,1-2.23,2.12H173A2.22,2.22,0,0,1,170.87,38.28Zm42.61,1.27a2.23,2.23,0,0,1,.69-3.08,2.24,2.24,0,1,1,2.41,3.77,2.23,2.23,0,0,1-1.21.35A2.2,2.2,0,0,1,213.48,39.55Zm-100.91,41a2.26,2.26,0,0,1,2-1.2,2.25,2.25,0,0,1,2.24,2.23,2.13,2.13,0,0,1-.26,1,2.22,2.22,0,0,1-2,1.22,2.32,2.32,0,0,1-1-.26A2.24,2.24,0,0,1,112.57,80.51Zm-9.87,19a2.23,2.23,0,0,1,4.22,1,2.22,2.22,0,0,1-2.25,2.22,2.28,2.28,0,0,1-1-.24A2.24,2.24,0,0,1,102.7,99.52Zm19.75-38a2.26,2.26,0,0,1,2-1.21,2.2,2.2,0,0,1,1,.25,2.24,2.24,0,0,1,1.22,2,2.17,2.17,0,0,1-.26,1,2.23,2.23,0,0,1-2,1.2,2.13,2.13,0,0,1-1-.25A2.22,2.22,0,0,1,122.45,61.51ZM66.1,122.75a2.22,2.22,0,0,1,1-3,2.28,2.28,0,0,1,1-.25,2.24,2.24,0,0,1,2,1.21,2.27,2.27,0,0,1,.24,1,2.24,2.24,0,0,1-1.2,2,2.08,2.08,0,0,1-1,.26A2.24,2.24,0,0,1,66.1,122.75Zm19-9.84a2.24,2.24,0,0,1,2-3.28,2.24,2.24,0,0,1,2.24,2.23,2.21,2.21,0,0,1-2.25,2.25A2.25,2.25,0,0,1,85.12,112.91ZM39.91,207.54a2.27,2.27,0,0,1,2.26,2.14v.07A2.25,2.25,0,0,1,40,212a.23.23,0,0,1-.11,0,2.23,2.23,0,0,1-1.55-.62,2.25,2.25,0,0,1,1.45-3.87Zm-23,37.67a2.21,2.21,0,0,1,1.88-1,2.28,2.28,0,0,1,1.22.36,2.23,2.23,0,0,1,1,1.88,2.14,2.14,0,0,1-.37,1.2,2.23,2.23,0,0,1-3.08.68A2.21,2.21,0,0,1,16.93,245.21Zm22-59.07a2.26,2.26,0,0,1,2.24,2.14v.09a2.24,2.24,0,0,1-2.14,2.24H39a2.21,2.21,0,0,1-1.55-.62,2.23,2.23,0,0,1,1.45-3.85Zm-2.49-17.55a2.23,2.23,0,0,1,1.44-3.85H38a2.24,2.24,0,0,1,2.26,2.12V167a2.26,2.26,0,0,1-2.14,2.26H38A2.18,2.18,0,0,1,36.48,168.59Zm-8,58.56a2.24,2.24,0,0,1,1.89-1,2.17,2.17,0,0,1,1.19.35,2.23,2.23,0,0,1,.68,3.1,2.23,2.23,0,0,1-1.88,1,2.27,2.27,0,0,1-1.22-.35A2.23,2.23,0,0,1,28.49,227.15ZM41.71,357.62v.09a2.24,2.24,0,0,1-.7,1.52,2.2,2.2,0,0,1-1.54.62h-.11a2.23,2.23,0,0,1,.09-4.46h.11A2.24,2.24,0,0,1,41.71,357.62Zm-1,21.38v.13a2.17,2.17,0,0,1-.68,1.51,2.2,2.2,0,0,1-1.54.62h-.11a2.24,2.24,0,0,1,.1-4.47h.11A2.21,2.21,0,0,1,40.71,379ZM17.28,299.42a2.24,2.24,0,0,1-.67,3.08,2.25,2.25,0,0,1-1.22.36,2.24,2.24,0,1,1,1.89-3.44Zm11.54,18.06a2.2,2.2,0,0,1,.35,1.2,2.25,2.25,0,0,1-1,1.9,2.22,2.22,0,0,1-1.2.35,2.24,2.24,0,0,1-1.22-4.13,2.2,2.2,0,0,1,1.2-.35A2.27,2.27,0,0,1,28.82,317.48ZM36.56,338a2.26,2.26,0,0,1,.68-3.11,2.29,2.29,0,0,1,1.2-.35,2.25,2.25,0,0,1,1.9,1,2.2,2.2,0,0,1,.35,1.2,2.25,2.25,0,0,1-1,1.9,2.22,2.22,0,0,1-1.2.35A2.26,2.26,0,0,1,36.56,338Zm66.33,109.48a2.25,2.25,0,0,1-2.24,2.25,2.3,2.3,0,0,1-1-.26,2.24,2.24,0,0,1,1-4.23,2.13,2.13,0,0,1,1,.26A2.22,2.22,0,0,1,102.89,447.44Zm-19-9.87a2.17,2.17,0,0,1-.25,1,2.26,2.26,0,0,1-2,1.22,2.42,2.42,0,0,1-1-.26,2.27,2.27,0,0,1-1-3,2.24,2.24,0,0,1,2-1.19,2.28,2.28,0,0,1,1,.25A2.24,2.24,0,0,1,83.89,437.57ZM123.82,483a2.26,2.26,0,1,1-2-1.2A2.24,2.24,0,0,1,123.82,483ZM114,464a2.28,2.28,0,0,1,.25,1,2.24,2.24,0,1,1-3.26-2,2.13,2.13,0,0,1,1-.26A2.24,2.24,0,0,1,114,464Zm-49.09-36.3a2.25,2.25,0,0,1-2.24,2.25,2.32,2.32,0,0,1-1-.26,2.25,2.25,0,0,1-.94-3,2.24,2.24,0,0,1,4.22,1Zm147.25,84.41v.09a2.26,2.26,0,0,1-2.15,2.26h-.09a2.25,2.25,0,0,1-1.55-.62,2.2,2.2,0,0,1-.68-1.52,2.24,2.24,0,0,1,2.12-2.35h.09A2.26,2.26,0,0,1,212.12,512.09ZM169.32,514v.06a2.27,2.27,0,0,1-2.15,2.28h-.11a2.24,2.24,0,0,1-.09-4.48h.11A2.25,2.25,0,0,1,169.32,514Zm79.43,19.32a2.17,2.17,0,0,1-.35,1.19,2.26,2.26,0,0,1-1.9,1,2.21,2.21,0,0,1-1.2-.36,2.24,2.24,0,0,1,2.42-3.78A2.31,2.31,0,0,1,248.75,533.32Zm-58-20.26v.09a2.25,2.25,0,0,1-2.15,2.23h-.11a2.24,2.24,0,0,1-1.54-.61,2.27,2.27,0,0,1-.69-1.53,2.24,2.24,0,0,1,2.14-2.33h.09A2.26,2.26,0,0,1,190.72,513.06Zm40,8.69a2.21,2.21,0,0,1-.36,1.2,2.17,2.17,0,0,1-1.88,1,2.2,2.2,0,0,1-1.2-.35,2.23,2.23,0,1,1,3.44-1.89Zm71.91,13.76a2.2,2.2,0,0,1,.35,1.2,2.25,2.25,0,0,1-1,1.9,2.22,2.22,0,0,1-1.2.35,2.29,2.29,0,0,1-1.91-1,2.24,2.24,0,0,1,1.9-3.45A2.22,2.22,0,0,1,302.61,535.51Zm36.12-23a2.27,2.27,0,0,1,.35,1.22,2.22,2.22,0,0,1-1,1.89,2.38,2.38,0,0,1-1.2.35,2.25,2.25,0,1,1,1.89-3.46Zm21.21.16v.14a2.2,2.2,0,0,1-.68,1.52,2.22,2.22,0,0,1-1.53.62l-.11,0a2.21,2.21,0,0,1-2.14-2.32,2.25,2.25,0,0,1,2.25-2.15h.09A2.22,2.22,0,0,1,359.94,512.62Zm21.42,1v.11a2.21,2.21,0,0,1-.69,1.52,2.27,2.27,0,0,1-1.54.62H379a2.25,2.25,0,0,1,.11-4.49h.09A2.25,2.25,0,0,1,381.36,513.63ZM320.67,524a2.27,2.27,0,0,1,.35,1.22,2.23,2.23,0,0,1-2.23,2.23,2.32,2.32,0,0,1-1.91-1,2.25,2.25,0,1,1,3.79-2.42Zm119.22-53.53a2.25,2.25,0,0,1-3.26,2,2.25,2.25,0,0,1-1-3,2.22,2.22,0,0,1,2-1.21,2.28,2.28,0,0,1,1,.25A2.23,2.23,0,0,1,439.89,470.46Zm-9.88,19a2.24,2.24,0,0,1-.25,1,2.2,2.2,0,0,1-2,1.22,2.25,2.25,0,0,1-1-.26,2.23,2.23,0,0,1,1-4.22,2.28,2.28,0,0,1,1,.25A2.23,2.23,0,0,1,430,489.48Zm19.77-38a2.17,2.17,0,0,1-.25,1,2.23,2.23,0,0,1-2,1.22,2.32,2.32,0,0,1-1-.26,2.27,2.27,0,0,1-1-3,2.24,2.24,0,0,1,2-1.19,2.31,2.31,0,0,1,1,.25A2.23,2.23,0,0,1,449.78,451.47Zm36.33-22.21a2.25,2.25,0,0,1-1,3,2.12,2.12,0,0,1-1,.24,2.24,2.24,0,1,1,0-4.48A2.21,2.21,0,0,1,486.11,429.26Zm-19,9.86a2.23,2.23,0,1,1-2-1.21A2.24,2.24,0,0,1,467.09,439.12Zm57-115.44a2.17,2.17,0,0,1-.35,1.19,2.26,2.26,0,0,1-3.1.68,2.25,2.25,0,0,1-.68-3.1,2.29,2.29,0,0,1,1.91-1,2.25,2.25,0,0,1,1.19.35A2.31,2.31,0,0,1,524.09,323.68Zm11.55-18.08a2.31,2.31,0,0,1-.36,1.23,2.23,2.23,0,0,1-1.88,1,2.2,2.2,0,0,1-1.2-.35,2.25,2.25,0,0,1,1.21-4.14,2.32,2.32,0,0,1,1.21.35A2.23,2.23,0,0,1,535.64,305.6Zm-23.35,38.87a2.22,2.22,0,0,1-1.54-.61,2.25,2.25,0,0,1-.69-1.53A2.22,2.22,0,0,1,512.2,340h.11a2.23,2.23,0,0,1,2.22,2.14v.09a2.22,2.22,0,0,1-2.13,2.23ZM516.43,385V385a2.25,2.25,0,0,1-2.14,2.25h-.09a2.21,2.21,0,0,1-1.55-.62,2.27,2.27,0,0,1-.69-1.52,2.24,2.24,0,0,1,2.12-2.34h.11A2.25,2.25,0,0,1,516.43,385Zm-3.2-19.06a2.18,2.18,0,0,1-1.53-.62,2.23,2.23,0,0,1,1.44-3.86h.11a2.25,2.25,0,0,1,2.24,2.14v.09a2.21,2.21,0,0,1-2.14,2.23A.25.25,0,0,1,513.23,365.89Zm10.18-131.35a2.23,2.23,0,1,1,3.77-2.4,2.17,2.17,0,0,1,.35,1.19,2.23,2.23,0,0,1-1,1.89,2.2,2.2,0,0,1-1.2.35A2.23,2.23,0,0,1,523.41,234.54Zm11.52,18.07a2.25,2.25,0,0,1,.68-3.1,2.21,2.21,0,0,1,1.21-.35,2.23,2.23,0,0,1,2.25,2.22,2.31,2.31,0,0,1-1,1.92,2.45,2.45,0,0,1-1.21.35A2.24,2.24,0,0,1,534.93,252.61ZM511.5,172.9a2.25,2.25,0,0,1,2.22-2.14h.11A2.26,2.26,0,0,1,516,173v.09a2.24,2.24,0,0,1-.7,1.52,2.2,2.2,0,0,1-1.54.62.23.23,0,0,1-.11,0A2.21,2.21,0,0,1,511.5,172.9Zm4.15,41.18a2.23,2.23,0,1,1-3.1-.69,2.22,2.22,0,0,1,3.1.69Zm-5.13-19.78a2.26,2.26,0,0,1,2.24-2.14h.09A2.26,2.26,0,0,1,515,194.4v.11a2.27,2.27,0,0,1-.69,1.52,2.22,2.22,0,0,1-1.54.62h-.12A2.23,2.23,0,0,1,510.52,194.3ZM438.25,88a2.24,2.24,0,0,1,1-3,2.28,2.28,0,0,1,1-.25,2.22,2.22,0,0,1,2,1.21,2.17,2.17,0,0,1,.25,1,2.23,2.23,0,0,1-1.21,2,2.14,2.14,0,0,1-1,.26A2.26,2.26,0,0,1,438.25,88Zm30.34,25.39a2.25,2.25,0,0,1,2-1.21,2.16,2.16,0,0,1,1,.25,2.25,2.25,0,0,1,1,3,2.28,2.28,0,0,1-2,1.2,2.35,2.35,0,0,1-1-.24A2.25,2.25,0,0,1,468.59,113.43ZM428.41,69a2.25,2.25,0,0,1,1-3,2.27,2.27,0,0,1,1-.24,2.24,2.24,0,0,1,2,1.2,2.28,2.28,0,0,1,.25,1,2.22,2.22,0,0,1-1.21,2,2.26,2.26,0,0,1-1,.26A2.21,2.21,0,0,1,428.41,69Zm21.16,34.53a2.22,2.22,0,0,1,2-1.21,2.28,2.28,0,0,1,1,.25,2.22,2.22,0,0,1,1.19,2,2.32,2.32,0,0,1-.25,1.05,2.25,2.25,0,0,1-2,1.2,2.35,2.35,0,0,1-1-.24A2.24,2.24,0,0,1,449.57,103.55Zm38,19.76a2.27,2.27,0,0,1,2-1.21,2.17,2.17,0,0,1,1,.25,2.29,2.29,0,0,1,1.21,2,2.16,2.16,0,0,1-.25,1,2.25,2.25,0,0,1-2,1.21,2.35,2.35,0,0,1-1-.24A2.27,2.27,0,0,1,487.59,123.31Zm-104-83.77a2.22,2.22,0,0,1-.7-1.52,2.24,2.24,0,0,1,2.14-2.33h.09a2.23,2.23,0,0,1,2.24,2.13v.11a2.24,2.24,0,0,1-2.14,2.23h-.09A2.27,2.27,0,0,1,383.61,39.54ZM321.87,29.06a2.2,2.2,0,0,1,1.88-1,2.25,2.25,0,1,1-1.2,4.12A2.23,2.23,0,0,1,321.87,29.06Zm-18-11.55a2.2,2.2,0,0,1,1.88-1,2.13,2.13,0,0,1,1.2.36,2.22,2.22,0,0,1,.69,3.08,2.24,2.24,0,0,1-1.89,1,2.18,2.18,0,0,1-1.2-.35A2.25,2.25,0,0,1,303.83,17.51Zm37,23.93a2.23,2.23,0,0,1,1.44-3.85h.09a2.25,2.25,0,0,1,2.26,2.13v.11a2.24,2.24,0,0,1-2.14,2.23h-.11A2.27,2.27,0,0,1,340.79,41.44Zm21.41-.94a2.17,2.17,0,0,1-.69-1.52,2.25,2.25,0,0,1,2.13-2.35h.09A2.26,2.26,0,0,1,366,38.78v.11a2.21,2.21,0,0,1-2.14,2.21.13.13,0,0,1-.09,0A2.25,2.25,0,0,1,362.2,40.5ZM287.54,50.61a11.45,11.45,0,1,1-11.45-11.45A11.45,11.45,0,0,1,287.54,50.61ZM173.38,73.71a11.45,11.45,0,1,1-15.64-4.19A11.47,11.47,0,0,1,173.38,73.71ZM90.26,166.44a11.45,11.45,0,1,1-4.2-15.64A11.45,11.45,0,0,1,90.26,166.44ZM37.54,272.67A11.45,11.45,0,1,1,49,284.12,11.45,11.45,0,0,1,37.54,272.67ZM67.9,391a11.45,11.45,0,1,1,15.64,4.19A11.45,11.45,0,0,1,67.9,391Zm81.28,71.67a11.45,11.45,0,1,1,4.19,15.64A11.45,11.45,0,0,1,149.18,462.69Zm110.41,37.07A11.45,11.45,0,1,1,271,511.21,11.45,11.45,0,0,1,259.59,499.76Zm114.16-23.1a11.45,11.45,0,1,1,15.64,4.19A11.46,11.46,0,0,1,373.75,476.66Zm83.12-92.73a11.46,11.46,0,1,1,4.2,15.65A11.47,11.47,0,0,1,456.87,383.93Zm52.72-106.22a11.45,11.45,0,1,1-11.45-11.45A11.45,11.45,0,0,1,509.59,277.71ZM479.23,159.36a11.45,11.45,0,1,1-15.64-4.19A11.45,11.45,0,0,1,479.23,159.36ZM398,87.69a11.45,11.45,0,1,1-4.19-15.64A11.45,11.45,0,0,1,398,87.69Z"/><path class="cls-2" d="M46.63,663.6a5.08,5.08,0,0,0,3.7-1.54,5.32,5.32,0,0,0,1.62-3.7V612.2a5,5,0,0,0-2.74-4.49,5.07,5.07,0,0,0-2.58-.67H45.55v-.83H70.83l-.08.83h-1a5.24,5.24,0,0,0-3.74,1.5,4.83,4.83,0,0,0-1.58,3.66v46.16a5,5,0,0,0,1.58,3.7,5.2,5.2,0,0,0,3.74,1.54h1l.08.83H45.55v-.83Zm82.59,15a24.43,24.43,0,0,1-11.06,3.16,26.88,26.88,0,0,1-9-1.42q-9.9-3.57-20.21-16.38L67.09,637,86.8,610.87a2.57,2.57,0,0,0,.67-1.5,2.64,2.64,0,0,0-.25-1.16A2.41,2.41,0,0,0,84.89,607h-.83v-.75h19V607h-.33a11.49,11.49,0,0,0-9.07,4L77.49,630.24l22.62,28.12q7.56,10,14.22,14.47a28.51,28.51,0,0,0,14.8,4.9Zm37.51-15h.74v.83H140.94v-.83h.75a3.2,3.2,0,0,0,2.7-1.13,3.48,3.48,0,0,0,.88-2.12,5.08,5.08,0,0,0-.42-2l-4.07-10.23H121.31L117,658.36a5.63,5.63,0,0,0-.42,2,3.51,3.51,0,0,0,.88,2.08,3.3,3.3,0,0,0,2.78,1.13h.67v.83H103.1v-.83h.75a7.23,7.23,0,0,0,3.82-1.17,8.86,8.86,0,0,0,3.17-3.49l19.21-43.5q3.9-8.24,4.16-10.89H135l24.71,54.22a9,9,0,0,0,3.16,3.62A7.25,7.25,0,0,0,166.73,663.6Zm-44-19h16.63l-8.07-20.46Zm68.61-34.76h-3.82v48.49a5.1,5.1,0,0,0,2.66,4.57,5.62,5.62,0,0,0,2.66.67h1.08v.83H168.64v-.83h1.08a5.05,5.05,0,0,0,4.57-2.58,5.82,5.82,0,0,0,.75-2.58V612.28a5.41,5.41,0,0,0-1.62-3.7,5,5,0,0,0-3.7-1.54h-1.08v-.83h28.52a25.16,25.16,0,0,1,13.64,3.49,12.51,12.51,0,0,1,4.49,4.87,14.76,14.76,0,0,1,1.67,7.07,18.94,18.94,0,0,1-1.37,7.27,14.42,14.42,0,0,1-4.58,5.83,14.91,14.91,0,0,1-7.69,3q4.81,1.57,8.48,7.32,9,14.38,13.31,17.13a10.68,10.68,0,0,0,5.4,1.42v.83h-8.15a31,31,0,0,1-11.81-2,16.44,16.44,0,0,1-7.73-6.69A80.94,80.94,0,0,1,199,648.5c-1.55-3.24-2.58-5.56-3.07-6.94q-2.25-5-5.66-5.58v-.83h2.58a10.46,10.46,0,0,0,6.61-2.24q2.87-2.25,3.87-7.32a15.81,15.81,0,0,0,.33-2.75q0-6.81-2.74-9.85a9.32,9.32,0,0,0-7.07-3.12ZM282.91,614q8.56,7.82,8.57,21.29t-8.57,21.29q-8.57,7.82-23.29,7.82H229.43v-.83h1.08a5.06,5.06,0,0,0,3.7-1.54,5.37,5.37,0,0,0,1.63-3.7V611.78a5.37,5.37,0,0,0-1.75-3.37,5.14,5.14,0,0,0-3.58-1.37h-1.08v-.83h30.19Q274.35,606.21,282.91,614Zm-24.37,46.9a17.35,17.35,0,0,0,10.36-3.11,19.59,19.59,0,0,0,6.69-8.9,36.36,36.36,0,0,0,2.33-13.6q0-11.8-5.2-18.71a16.77,16.77,0,0,0-14.18-6.91H248.31v51.23Zm39.17,2.67a5.08,5.08,0,0,0,3.71-1.54,5.41,5.41,0,0,0,1.62-3.7V612.2a5.26,5.26,0,0,0-1.62-3.66,5.13,5.13,0,0,0-3.71-1.5h-1.08v-.83h25.29l-.09.83h-1a5.26,5.26,0,0,0-3.74,1.5,4.87,4.87,0,0,0-1.58,3.66v46.16a5,5,0,0,0,1.58,3.7,5.22,5.22,0,0,0,3.74,1.54h1l.09.83H296.63v-.83ZM393.19,607a5,5,0,0,0-3.58,1.46A5.1,5.1,0,0,0,388,612V655a50,50,0,0,0,.75,9.4l.25,1.24h-.75l-42-40v33a4.74,4.74,0,0,0,1.5,3.53,5,5,0,0,0,3.58,1.46h1.58v.83h-25.2v-.83h1.49a5,5,0,0,0,3.66-1.46,4.84,4.84,0,0,0,1.5-3.62V615.36a46.66,46.66,0,0,0-.75-9.15l-.16-1.25h.74l42,40V612.11a5.09,5.09,0,0,0-1.58-3.61,4.94,4.94,0,0,0-3.57-1.46h-1.5v-.83h25.2V607Zm64.87,56.56h.75v.83H432.28v-.83H433a3.2,3.2,0,0,0,2.7-1.13,3.52,3.52,0,0,0,.87-2.12,5.25,5.25,0,0,0-.41-2l-4.08-10.23H412.65l-4.32,10.23a5.63,5.63,0,0,0-.42,2,3.49,3.49,0,0,0,.87,2.08,3.32,3.32,0,0,0,2.79,1.13h.67v.83h-17.8v-.83h.75a7.26,7.26,0,0,0,3.82-1.17,8.76,8.76,0,0,0,3.16-3.49l19.21-43.5q3.92-8.24,4.16-10.89h.75L451,658.77a9,9,0,0,0,3.16,3.62A7.31,7.31,0,0,0,458.06,663.6Zm-44-19H430.7l-8.07-20.46Zm46.75,19a5.08,5.08,0,0,0,3.7-1.54,5.41,5.41,0,0,0,1.62-3.7V612.28a5.41,5.41,0,0,0-1.62-3.7,5,5,0,0,0-3.7-1.54h-1.09v-.83H485l-.09.83h-1a5.18,5.18,0,0,0-3.75,1.54,5,5,0,0,0-1.58,3.7v48.57h10.9a15.21,15.21,0,0,0,10.19-3.49,20.68,20.68,0,0,0,6.11-9.9h.83l-3.83,17H459.72v-.83Z"/><path class="cls-3" d="M172.54,705.74a8.3,8.3,0,0,0-.84-3.28,6.71,6.71,0,0,0-1.87-2.29,7.8,7.8,0,0,0-2.67-1.34,11.34,11.34,0,0,0-3.22-.45,13.9,13.9,0,0,0-5.25,1,10.3,10.3,0,0,0-4,2.77,11.46,11.46,0,0,0-2.38,4.33,18.93,18.93,0,0,0-.78,5.59,20.23,20.23,0,0,0,.8,5.75,13.63,13.63,0,0,0,2.39,4.68,11.08,11.08,0,0,0,4,3.12,12.32,12.32,0,0,0,5.23,1.13,10.27,10.27,0,0,0,1.26-.1,16.38,16.38,0,0,0,1.9-.35,8.19,8.19,0,0,0,1.89-.67,1.2,1.2,0,0,0,.81-1.05v-6.21a3.58,3.58,0,0,0-.19-1.27,1.61,1.61,0,0,0-.76-.84,4.61,4.61,0,0,0-1.64-.5,27.51,27.51,0,0,0-2.82-.22l.06-1.21h1.68l1.8,0,1.78,0h3.45l1.49,0,1.27,0H177l.1,1.14a7.38,7.38,0,0,0-1.5.29,1.87,1.87,0,0,0-.91.64,2.58,2.58,0,0,0-.44,1.19,12.79,12.79,0,0,0-.11,1.93v2q0,1.53,0,2.94a14.85,14.85,0,0,0,.19,2.31c-1.72.47-3.52.88-5.38,1.24a28.15,28.15,0,0,1-5.32.54,21.19,21.19,0,0,1-7.09-1.11,16,16,0,0,1-5.41-3.15,14.25,14.25,0,0,1-3.55-4.92,15.73,15.73,0,0,1-1.28-6.42,16.48,16.48,0,0,1,1.45-7.12,14.44,14.44,0,0,1,4-5.08,16.81,16.81,0,0,1,5.89-3,26.14,26.14,0,0,1,7.48-1c.66,0,1.38,0,2.17.09s1.58.16,2.37.27,1.59.25,2.39.4,1.51.31,2.15.48q-.19,2-.21,3.84c0,1.2,0,2.48,0,3.83Zm41.89,18.06a7.8,7.8,0,0,0,.09,1.29,1.43,1.43,0,0,0,.53.87,2.85,2.85,0,0,0,1.26.53,12.67,12.67,0,0,0,2.32.21l-.06,1.21c-1,0-2.08,0-3.19,0s-2.31,0-3.63,0l-1.56,0h-1.46l-1.34,0-1.08,0-.07-1.15a10.4,10.4,0,0,0,2-.3,2.45,2.45,0,0,0,1.16-.64,2.21,2.21,0,0,0,.56-1.18,10.33,10.33,0,0,0,.15-2v-21.3a5.67,5.67,0,0,0-.13-1.28,1.6,1.6,0,0,0-.53-.84,2.59,2.59,0,0,0-1.19-.49,15.34,15.34,0,0,0-2.14-.23l.07-1.21,1.19,0,1.48,0h1.74l1.7,0a22,22,0,0,0,3-.18,17.83,17.83,0,0,1,2.18-.17,23.83,23.83,0,0,1,4.05.32,11.12,11.12,0,0,1,3.45,1.14,6.78,6.78,0,0,1,2.5,2.25,6.3,6.3,0,0,1,1,3.61,8.17,8.17,0,0,1-.46,2.77,8.7,8.7,0,0,1-1.29,2.38,9.42,9.42,0,0,1-2,1.87,10.31,10.31,0,0,1-2.5,1.33q1,1.93,2,3.72t1.83,3.27c.56,1,1.07,1.85,1.53,2.59s.83,1.33,1.13,1.75a10.52,10.52,0,0,0,1.05,1.29,3.58,3.58,0,0,0,1,.74,4.26,4.26,0,0,0,1.22.39c.47.09,1.08.16,1.82.23l-.06,1.21c-.64,0-1.47,0-2.5,0s-2.1,0-3.2,0l-1.42,0-1,0c-.22-.45-.54-1.1-1-2s-1-1.86-1.59-3-1.3-2.37-2-3.7-1.52-2.7-2.33-4.08c-.12-.21-.25-.4-.36-.58a1.85,1.85,0,0,0-.45-.43,2.7,2.7,0,0,0-.62-.27,3.34,3.34,0,0,0-.83-.09h-.51l-.62,0-.87,0Zm0-11.66.51.05.51,0H216a8.22,8.22,0,0,0,5.37-1.69c1.36-1.13,2.05-3,2.05-5.54a5.48,5.48,0,0,0-2-4.68,7.6,7.6,0,0,0-4.76-1.5,3.87,3.87,0,0,0-1.1.17,1.58,1.58,0,0,0-.81.53,1.78,1.78,0,0,0-.32.86,9.88,9.88,0,0,0-.06,1.15Zm63.09-15.44a18.44,18.44,0,0,1,6.61,1.1,14.06,14.06,0,0,1,5,3.13,14.42,14.42,0,0,1,3.23,4.92,17.19,17.19,0,0,1,1.16,6.45,17.81,17.81,0,0,1-1.15,6.51,15.27,15.27,0,0,1-3.21,5.15,14.49,14.49,0,0,1-5,3.37,17.09,17.09,0,0,1-6.66,1.21,18.55,18.55,0,0,1-6.59-1.09,14.37,14.37,0,0,1-5-3.14,14.18,14.18,0,0,1-3.25-4.92,17,17,0,0,1-1.16-6.45,18,18,0,0,1,1.14-6.51,15.45,15.45,0,0,1,3.22-5.15,14.49,14.49,0,0,1,5-3.37A17.07,17.07,0,0,1,277.52,696.7Zm-.19,1.78a12,12,0,0,0-3.77.68,9,9,0,0,0-3.57,2.28,11.53,11.53,0,0,0-2.47,4.13,18.17,18.17,0,0,0-.92,6.16,21.18,21.18,0,0,0,1,7.16,13.29,13.29,0,0,0,2.71,4.67,9.1,9.1,0,0,0,3.71,2.48,11.18,11.18,0,0,0,3.64.72,12,12,0,0,0,3.78-.68,9,9,0,0,0,3.57-2.28,11.37,11.37,0,0,0,2.46-4.13,17.91,17.91,0,0,0,.93-6.16,21.18,21.18,0,0,0-1.05-7.16,13.44,13.44,0,0,0-2.71-4.67A9.1,9.1,0,0,0,281,699.2,11.23,11.23,0,0,0,277.33,698.48ZM331,717.21a9.71,9.71,0,0,0,.72,3.93,6.9,6.9,0,0,0,2,2.67,8.55,8.55,0,0,0,2.83,1.53,9.74,9.74,0,0,0,2.93.5,10.2,10.2,0,0,0,3.28-.53,7.3,7.3,0,0,0,2.77-1.69,7.47,7.47,0,0,0,1.86-3,13,13,0,0,0,.66-4.41V703.13a9.85,9.85,0,0,0-.21-2.26,2.5,2.5,0,0,0-.76-1.34,3.32,3.32,0,0,0-1.48-.67,19.36,19.36,0,0,0-2.49-.28l.07-1.21,2.69,0c1.05,0,2.15,0,3.29,0,.94,0,1.91,0,2.93,0s1.87,0,2.55,0l0,1.15q-1.39.13-2.28.3a2.76,2.76,0,0,0-1.4.69,2.71,2.71,0,0,0-.71,1.49,14.85,14.85,0,0,0-.19,2.71v13.41a11.94,11.94,0,0,1-1.06,5.29,10.3,10.3,0,0,1-2.75,3.55,10.81,10.81,0,0,1-3.85,2,15.56,15.56,0,0,1-4.38.62,17,17,0,0,1-4.29-.54,9.31,9.31,0,0,1-3.66-1.84,9.67,9.67,0,0,1-2.5-3.19,10,10,0,0,1-.92-4.43V701.6a4.89,4.89,0,0,0-.15-1.3,1.6,1.6,0,0,0-.6-.91,3.24,3.24,0,0,0-1.32-.56,13.5,13.5,0,0,0-2.3-.25l.07-1.21h1.35l1.64,0h1.8l1.93,0,1.86,0h1.58l1.51,0h1.26l.09,1.14a13,13,0,0,0-2.22.32,2.85,2.85,0,0,0-1.34.7,2.54,2.54,0,0,0-.66,1.26,9.64,9.64,0,0,0-.17,2Zm59.94,6.59a6.75,6.75,0,0,0,.1,1.29,1.33,1.33,0,0,0,.57.87,3.5,3.5,0,0,0,1.45.53,17.54,17.54,0,0,0,2.72.21l-.06,1.21c-1.15,0-2.35,0-3.6,0s-2.54,0-3.85,0l-1.56,0h-1.47l-1.34,0-1.08,0-.06-1.15a10.4,10.4,0,0,0,2-.3,2.5,2.5,0,0,0,1.16-.64,2.29,2.29,0,0,0,.56-1.18,11.37,11.37,0,0,0,.14-2v-21.3a5.15,5.15,0,0,0-.13-1.28,1.58,1.58,0,0,0-.52-.84,2.63,2.63,0,0,0-1.2-.49,15.35,15.35,0,0,0-2.13-.23l.06-1.21,1.2,0,1.48,0h1.73l1.71,0a23.55,23.55,0,0,0,2.83-.16,20.44,20.44,0,0,1,2.68-.16,22,22,0,0,1,4.54.44,10.66,10.66,0,0,1,3.6,1.47,7.58,7.58,0,0,1,2.46,2.69,8.33,8.33,0,0,1,.93,4.09,8.57,8.57,0,0,1-1,4.27,9.55,9.55,0,0,1-2.65,3,11.66,11.66,0,0,1-3.63,1.81,14.33,14.33,0,0,1-4.23.61,10.71,10.71,0,0,1-2-.16,7.88,7.88,0,0,1-1.39-.42Zm0-10.54a11.28,11.28,0,0,0,1.34.33,8.77,8.77,0,0,0,1.62.11,7.35,7.35,0,0,0,2.17-.38,6.55,6.55,0,0,0,2.31-1.26,6.64,6.64,0,0,0,1.77-2.37,9,9,0,0,0,.7-3.76c0-2.44-.67-4.23-2-5.38a7.52,7.52,0,0,0-5.11-1.72,6,6,0,0,0-1.44.13,2.05,2.05,0,0,0-.84.4,1.22,1.22,0,0,0-.43.71,5,5,0,0,0-.1,1.12Z"/></g></g></svg>