<svg width="32" height="32" viewBox="0 0 32 32" fill="none" xmlns="http://www.w3.org/2000/svg">
<path d="M6.0095 20.3949C5.79787 20.184 5.4545 20.1842 5.24269 20.3952C5.03087 20.6063 5.03075 20.9485 5.24237 21.1594C5.45406 21.3703 5.79731 21.3702 6.00918 21.1591C6.22099 20.948 6.22112 20.6058 6.0095 20.3949Z" fill="white"/>
<path d="M5.70145 23.7575C5.4897 23.5466 5.14645 23.5467 4.93457 23.7577C4.72276 23.9689 4.72263 24.311 4.93432 24.5219C5.14595 24.7329 5.48926 24.7327 5.70114 24.5217C5.91295 24.3105 5.91307 23.9684 5.70145 23.7575Z" fill="white"/>
<path d="M9.99607 21.9217C9.78438 21.7109 9.44113 21.711 9.22926 21.9221C9.01745 22.1332 9.01732 22.4753 9.22895 22.6863C9.44057 22.8972 9.78388 22.8971 9.99576 22.6859C10.2076 22.4748 10.2077 22.1327 9.99607 21.9217Z" fill="white"/>
<path d="M3.91306 21.8732C3.70137 21.6622 3.35806 21.6624 3.14624 21.8735C2.93443 22.0846 2.9343 22.4268 3.14599 22.6377C3.35762 22.8486 3.70093 22.8485 3.91281 22.6374C4.12462 22.4263 4.12475 22.0841 3.91306 21.8732Z" fill="white"/>
<path d="M6.98246 15.7585C6.7707 15.5475 6.42745 15.5476 6.21558 15.7588C6.00377 15.9699 6.00364 16.312 6.21533 16.523C6.42695 16.7339 6.77027 16.7338 6.98214 16.5227C7.19396 16.3115 7.19408 15.9694 6.98246 15.7585Z" fill="white"/>
<path d="M12.0935 17.7943C11.8818 17.5834 11.5386 17.5835 11.3267 17.7947C11.1148 18.0058 11.1148 18.3479 11.3264 18.5588C11.538 18.7698 11.8813 18.7696 12.0932 18.5585C12.3051 18.3474 12.3052 18.0053 12.0935 17.7943Z" fill="white"/>
<path d="M11.0727 13.7192C10.8611 13.5082 10.5178 13.5083 10.3059 13.7195C10.0941 13.9306 10.094 14.2727 10.3057 14.4837C10.5173 14.6946 10.8606 14.6945 11.0725 14.4833C11.2842 14.2722 11.2843 13.9301 11.0727 13.7192Z" fill="white"/>
<path d="M17.7185 13.2072C17.5068 12.9963 17.1635 12.9964 16.9517 13.2075C16.7399 13.4186 16.7397 13.7607 16.9514 13.9717C17.163 14.1826 17.5063 14.1824 17.7182 13.9714C17.93 13.7602 17.9301 13.4181 17.7185 13.2072Z" fill="white"/>
<path d="M31.7628 9.82799C31.7419 9.54411 31.6593 9.27311 31.5215 9.0303C31.3517 8.54717 31.1381 8.05998 30.8817 7.57442L31.415 7.04292C31.7759 6.68323 31.9747 6.20342 31.9747 5.69179C31.9747 5.18017 31.7759 4.70029 31.415 4.34066C30.9117 3.83898 30.1925 3.67479 29.547 3.85491C29.4613 3.5416 29.2844 3.2376 29.03 2.98304C28.6078 2.56054 28.0494 2.34891 27.5365 2.41679L27.3494 2.4416C27.448 1.85003 27.266 1.22491 26.8156 0.776095C26.07 0.0329684 24.8567 0.0329684 24.111 0.776095L23.69 1.19572C22.5763 0.80147 21.4787 0.639407 20.4988 0.727532C19.3648 0.829532 18.3816 1.26603 17.6554 1.98978L1.29113 18.2989C0.446501 19.1407 0 20.3073 0 21.6725C0 24.0369 1.34119 26.7851 3.58769 29.024C4.82313 30.2553 6.44569 30.8708 8.06907 30.8707C8.27582 30.8707 8.48251 30.8606 8.68851 30.8406C8.68263 30.8548 8.67732 30.8695 8.67276 30.8846C8.59795 31.1325 8.7382 31.394 8.98601 31.4688C9.67957 31.6783 10.3441 31.7815 10.961 31.7815C12.1021 31.7815 13.0793 31.428 13.7697 30.7399L28.3651 16.1939C29.2864 16.0243 30.0877 15.6229 30.7088 15.0039C31.581 14.1347 32.027 12.9246 31.9987 11.5041C31.988 10.9634 31.9075 10.4011 31.7628 9.82799ZM29.5402 4.87279C29.9197 4.63198 30.4259 4.6786 30.7533 5.00485C30.9364 5.18729 31.0372 5.43129 31.0372 5.69179C31.0372 5.95235 30.9364 6.19635 30.7533 6.37885L29.928 7.20136C29.7972 6.89742 29.6092 6.61817 29.3702 6.37998C29.3615 6.37142 29.3518 6.3631 29.343 6.35454L29.5402 4.87279ZM24.9603 10.1489L26.3334 9.96699C26.5925 9.93255 26.9337 10.1694 27.0649 10.4735C27.1059 10.5686 27.122 10.6612 27.1112 10.7417L26.9382 12.0419C26.9041 12.2985 27.0845 12.5342 27.341 12.5684C27.362 12.5711 27.3828 12.5725 27.4035 12.5725C27.6348 12.5725 27.8362 12.4011 27.8675 12.1655L28.0405 10.8654C28.0598 10.7209 28.0537 10.5711 28.0245 10.4219L29.166 9.28424C29.3143 9.13642 29.5049 9.04248 29.7171 9.01255C30.0273 8.96867 30.33 9.0678 30.5472 9.2843C30.5942 9.33117 30.6355 9.38217 30.6713 9.43636C30.7316 9.61399 30.7843 9.79036 30.8308 9.96555C30.8308 9.96749 30.8311 9.96942 30.8311 9.97136C30.8311 10.2319 30.7302 10.4759 30.5472 10.6584L27.477 13.7182C26.8919 13.7421 26.2075 13.6226 25.4828 13.3607C25.5247 13.3187 25.5602 13.269 25.5845 13.2108C25.9925 12.2332 25.74 11.0269 24.9603 10.1489ZM26.8157 3.47854C26.8233 3.47097 26.8308 3.46304 26.8383 3.45522L27.6597 3.34629C27.882 3.31679 28.1528 3.4316 28.3669 3.64585C28.5796 3.85866 28.6936 4.12741 28.6643 4.34716L28.6364 4.55698C28.6364 4.5571 28.6364 4.55716 28.6364 4.55729L28.4719 5.79379C28.2477 5.70585 28.0115 5.6481 27.7685 5.62398C27.511 5.59854 27.2813 5.78648 27.2557 6.04417C27.2302 6.30179 27.4183 6.53136 27.6758 6.55698C27.9982 6.58898 28.3025 6.71098 28.5561 6.90998C28.6123 6.95411 28.6621 6.99792 28.7084 7.04404C29.004 7.33867 29.1794 7.72998 29.2023 8.14592C29.2029 8.15723 29.2029 8.16861 29.2033 8.17992C28.9415 8.27348 28.7038 8.42148 28.5044 8.6203L27.5612 9.5603C27.2123 9.20011 26.7299 8.99255 26.2676 9.03292C26.3594 8.64686 26.428 8.23436 26.4712 7.79923C26.5062 7.44486 26.5241 7.07948 26.5242 6.71311C26.5242 6.69554 26.524 6.67811 26.5237 6.66067L26.5234 6.63192C26.5198 6.08923 26.4778 5.55848 26.3988 5.05435C26.346 4.71804 26.2773 4.39779 26.1938 4.09835L26.8157 3.47854ZM24.7727 1.44035C25.1535 1.06085 25.7731 1.06078 26.1539 1.44028C26.501 1.78616 26.5346 2.33835 26.2322 2.72441C26.203 2.7616 26.1782 2.79016 26.1539 2.81435L25.8367 3.13047C25.4566 2.34172 24.9543 1.89041 24.3805 1.83122L24.7727 1.44035ZM23.4832 3.58854C23.7211 3.0786 24.0148 2.76179 24.25 2.76166H24.25C24.5142 2.76172 24.9158 3.17835 25.2182 4.10916C25.3252 4.43835 25.4107 4.80523 25.4725 5.19954C25.5443 5.65779 25.5825 6.14179 25.5858 6.63823L25.5867 6.71286C25.5865 7.04848 25.5702 7.38292 25.5382 7.70667C25.4857 8.23592 25.393 8.7248 25.2633 9.16298L24.0113 9.32886L24.769 8.5738C25.1298 8.21417 25.3287 7.73436 25.3287 7.22279C25.3287 6.71117 25.1299 6.23129 24.769 5.8716C24.2918 5.39598 23.6202 5.22373 23.0014 5.36085C23.096 4.67748 23.261 4.0651 23.4832 3.58854ZM19.6592 5.51792C19.689 5.48823 19.7248 5.45835 19.7716 5.42398C20.1575 5.14123 20.703 5.1816 21.0404 5.51792C21.3773 5.85367 21.4178 6.39629 21.1347 6.77992C21.1003 6.82654 21.0703 6.86211 21.0404 6.89192C20.857 7.07467 20.8565 7.37148 21.0392 7.55486C21.1308 7.64679 21.251 7.69273 21.3713 7.69273C21.491 7.69273 21.6106 7.64717 21.7021 7.55598C21.7181 7.54004 21.734 7.52354 21.7497 7.50648C21.7541 7.50173 21.7584 7.49654 21.7628 7.49173C21.7742 7.47904 21.7856 7.46642 21.797 7.45304C21.7971 7.45279 21.7974 7.45254 21.7976 7.45229C21.7996 7.45079 21.8015 7.44873 21.8035 7.44723C21.8215 7.43386 21.839 7.41954 21.8553 7.40329L22.7256 6.53592C22.7321 6.5296 22.7389 6.52404 22.7456 6.51823L22.7674 6.49904C23.1536 6.15579 23.7421 6.17179 24.1071 6.53561C24.2902 6.71811 24.391 6.96211 24.391 7.22267C24.391 7.48323 24.2902 7.72717 24.1071 7.90961L22.9472 9.06561C22.8561 9.05455 22.7643 9.04792 22.6722 9.04542C22.6621 9.04455 22.6521 9.04361 22.6419 9.04342C22.6303 9.0433 22.6193 9.04336 22.6066 9.04367C22.6059 9.04367 22.6052 9.0438 22.6045 9.0438C22.5682 9.0438 22.5323 9.04423 22.4964 9.04548H22.4961C22.496 9.04548 22.4958 9.04548 22.4958 9.04548H22.4954L22.4889 9.04573C22.4889 9.04573 22.4885 9.04573 22.4883 9.04573C22.4852 9.04586 22.4821 9.04598 22.479 9.04605C22.4647 9.04661 22.4503 9.04717 22.436 9.04799L22.4356 9.04805C22.4183 9.04905 22.4011 9.0503 22.3839 9.05167C22.3631 9.05336 22.3424 9.0553 22.3216 9.05736H22.3212L22.309 9.05855C22.3086 9.05855 22.3082 9.05861 22.3082 9.05861L22.3075 9.05867C22.2928 9.06005 22.2781 9.06155 22.2634 9.06336C22.2633 9.06336 22.2633 9.06336 22.2633 9.06336H22.263C22.2628 9.06336 22.2626 9.06342 22.2626 9.06342C22.262 9.06348 22.2615 9.06361 22.2611 9.06367C22.2207 9.06861 22.1808 9.07492 22.1409 9.08173C22.1408 9.08173 22.1407 9.0818 22.1407 9.0818H22.1406L22.1325 9.08305C22.1189 9.08517 22.1053 9.0873 22.092 9.08986C21.8378 9.13855 21.6704 9.38417 21.719 9.63842C21.762 9.86299 21.9578 10.0194 22.1783 10.0194C22.2073 10.0194 22.2369 10.0167 22.2665 10.011L22.299 10.0059C22.299 10.0059 22.2991 10.0058 22.2992 10.0058C22.3251 10.0014 22.3511 9.99711 22.3774 9.99386L22.3777 9.9938L22.4148 9.99011C22.439 9.98767 22.4631 9.98549 22.4872 9.98405C22.4882 9.98399 22.4893 9.98386 22.4903 9.9838C22.5011 9.98317 22.512 9.9828 22.5228 9.98242L22.5288 9.98224H22.5291C22.5509 9.98142 22.5728 9.98111 22.5947 9.98111C22.5983 9.98111 22.6021 9.98086 22.6057 9.98092L22.6261 9.98124C22.7556 9.9833 22.8846 9.99805 23.0094 10.0249C23.2075 10.0677 23.4029 10.1403 23.5902 10.2408C23.7971 10.3519 23.9878 10.4937 24.1572 10.6624C24.7801 11.2832 25.006 12.1621 24.7192 12.8492C24.6958 12.9053 24.6845 12.9632 24.6834 13.0205C24.5982 12.9789 24.5129 12.936 24.4282 12.8914C24.006 12.6692 23.5145 12.7073 23.138 12.9474C22.8241 12.1924 22.3611 11.499 21.7643 10.9042C20.3111 9.45586 19.2914 7.68036 19.0069 6.16798L19.6592 5.51792ZM18.9975 4.85379L18.9582 4.89292C19.0216 4.45816 19.1801 4.10466 19.4312 3.83748C19.4818 3.8481 19.5349 3.85091 19.5891 3.84366L22.1951 3.49841C22.2483 3.49141 22.307 3.49591 22.3694 3.51185C22.4071 3.52154 22.4452 3.53566 22.4829 3.55304C22.287 4.07266 22.142 4.6856 22.0577 5.34785C21.9684 5.16835 21.8498 5.00098 21.7021 4.85379C21.0408 4.19454 19.9726 4.11448 19.2174 4.66779C19.1326 4.73004 19.0606 4.79085 18.9975 4.85379ZM8.06901 29.9338C6.68563 29.9338 5.30226 29.4091 4.24944 28.3599C2.17563 26.2931 0.937501 23.7931 0.937501 21.6725C0.937501 20.5619 1.28863 19.625 1.95288 18.963L18.3171 2.65397C19.3454 1.62928 21.0411 1.37766 22.9441 1.93903L22.3208 2.56029C22.237 2.55566 22.1538 2.55816 22.072 2.56897L20.2493 2.81041C20.2328 2.75091 20.2043 2.69366 20.1631 2.64247C20.001 2.44072 19.706 2.40847 19.5041 2.57066L18.8425 3.10235C18.8294 3.11279 18.817 3.12397 18.8051 3.13572C18.2711 3.66791 17.9888 4.43498 17.9888 5.35392C17.9888 7.27298 19.182 9.65417 21.1025 11.5682C22.1202 12.5826 22.6807 13.9337 22.6807 15.3727C22.6807 16.8135 22.1191 18.1666 21.0993 19.1829L11.8945 28.3567C10.8394 29.4081 9.4542 29.9338 8.06901 29.9338ZM30.0472 14.3397C29.2073 15.1767 27.9168 15.5092 26.4137 15.2762C26.1577 15.2368 25.9183 15.4118 25.8786 15.6676C25.8389 15.9234 26.0142 16.163 26.27 16.2027C26.5028 16.2389 26.7313 16.2619 26.956 16.2747L13.108 30.0757C12.3604 30.8209 11.1102 31.0324 9.63901 30.675C10.7086 30.4045 11.721 29.8533 12.5563 29.0208L21.7612 19.8471C22.9588 18.6536 23.6183 17.0646 23.6183 15.3728C23.6183 14.8901 23.5644 14.4159 23.4598 13.9569C23.4845 13.9293 23.5065 13.8987 23.5247 13.8647C23.6138 13.697 23.8234 13.6329 23.9915 13.7214C24.1637 13.8121 24.3382 13.8977 24.5105 13.9761C25.5115 14.4312 26.477 14.6577 27.3242 14.6577C27.4398 14.6577 27.5532 14.6535 27.6642 14.6451C27.6697 14.6452 27.6753 14.6459 27.6808 14.6459C27.7162 14.6459 27.7515 14.6414 27.7861 14.6334C28.5055 14.5572 29.1171 14.2987 29.5593 13.858C29.7427 13.6752 29.7432 13.3784 29.5605 13.1951C29.5201 13.1545 29.4739 13.1234 29.4248 13.1007L31.0595 11.4716C31.06 11.4886 31.0612 11.5058 31.0615 11.5228C31.0845 12.6814 30.7338 13.6555 30.0472 14.3397Z" fill="white"/>
</svg>
