<svg width="32" height="32" viewBox="0 0 32 32" fill="none" xmlns="http://www.w3.org/2000/svg">
<g clip-path="url(#clip0)">
<path d="M31.9135 18.8374C31.8431 18.7172 31.735 18.6237 31.6059 18.5714L29.3109 17.632L31.6879 16.2323C31.9884 16.0564 32.0894 15.6702 31.9135 15.3697C31.8431 15.2495 31.735 15.1559 31.6059 15.1037L29.3109 14.1642L31.6879 12.7645C31.8955 12.6396 32.0131 12.4068 31.9905 12.1655C31.9723 11.9273 31.8209 11.7197 31.5996 11.6296L22.5645 7.92858L18.1132 6.03707C18.0409 6.00846 17.9639 5.99357 17.8862 5.99294L10.6354 3.04219C10.4574 2.96826 10.2553 2.97993 10.0869 3.07372L0.370854 8.53386C0.0598594 8.69046 -0.0652952 9.06955 0.0913056 9.38054C0.16271 9.52241 0.285106 9.63211 0.433904 9.68768L2.77937 10.6586L0.370854 12.0016C0.0678194 12.1731 -0.0388141 12.5579 0.132682 12.8609C0.200855 12.9813 0.306622 13.0759 0.433904 13.1302L2.77937 14.1012L0.383464 15.4442C0.0630907 15.5807 -0.0858653 15.9511 0.0506383 16.2714C0.121806 16.4384 0.261462 16.5665 0.433904 16.6232L2.77937 17.5879L0.383464 18.9308C0.0804295 19.1023 -0.0262041 19.4871 0.145292 19.7901C0.213465 19.9105 0.319232 20.0051 0.446514 20.0594L8.5989 23.5209C8.62869 23.5426 8.66037 23.5615 8.69347 23.5776L13.1511 25.4691L21.3476 28.9558C21.5321 29.0341 21.7427 29.02 21.9151 28.918L31.6879 23.1678C31.9884 22.9919 32.0894 22.6057 31.9135 22.3052C31.8431 22.185 31.735 22.0915 31.6059 22.0392L29.3109 21.0998L31.6879 19.7C31.9884 19.5242 32.0893 19.1379 31.9135 18.8374ZM29.9477 15.7784L21.5431 20.7278L14.0275 17.5375V15.4379L21.3413 18.5463C21.4191 18.5794 21.5027 18.5966 21.5872 18.5967C21.7004 18.5967 21.8114 18.5662 21.9088 18.5085L27.9427 14.9587L29.9477 15.7784ZM29.9729 12.3043L21.5431 17.2538L14.7148 14.3535L22.4069 9.21488L29.9729 12.3043ZM8.28995 22.033L2.10473 19.4038L4.22952 18.2121L8.29626 19.9397L8.28995 22.033ZM8.28995 18.5652L2.10473 15.936L4.22952 14.7318L8.29626 16.4593L8.28995 18.5652ZM8.28995 15.0975L2.10473 12.4746L4.22952 11.2829L8.29626 13.0105L8.28995 15.0975ZM2.10473 9.00681L10.44 4.32219L16.4865 6.80006L8.87001 11.8819L2.10473 9.00681ZM13.0439 13.9626C12.8702 14.08 12.7662 14.2761 12.7665 14.4859V23.9434L9.55726 22.5815V12.9411L17.9114 7.37381L21.0198 8.63482L13.0439 13.9626ZM29.9477 22.7139L21.5431 27.657L14.0275 24.4667V22.3734L21.3413 25.4503C21.5258 25.5286 21.7364 25.5145 21.9088 25.4125L27.9427 21.8627L29.9477 22.7139ZM21.5431 24.1893L14.0275 20.999V18.9057L21.3476 22.0141C21.5321 22.0923 21.7427 22.0783 21.9151 21.9762L27.949 18.4265L29.9477 19.2462L21.5431 24.1893Z" fill="#D0C9D6"/>
</g>
<defs>
<clipPath id="clip0">
<rect width="32" height="32" fill="white"/>
</clipPath>
</defs>
</svg>
