<svg width="32" height="32" viewBox="0 0 32 32" fill="none" xmlns="http://www.w3.org/2000/svg">
<g clip-path="url(#clip0)">
<path d="M31.7883 11.0878C30.4585 6.00751 27.0593 6.89691 21.4265 8.37103C20.5786 8.59271 19.4145 8.7309 18.1816 8.87689C17.1538 8.99896 16.0651 9.1308 15.0082 9.32391C14.6303 8.93695 14.238 8.51801 13.8278 8.07733C12.2944 6.42792 10.5558 4.55829 8.72845 3.61346C5.91229 2.15692 3.62249 2.67743 1.52361 5.25262C-1.09407 8.46381 -0.267894 13.7231 3.45745 17.8596C3.40716 18.0878 3.36175 18.3224 3.32488 18.5693C2.97845 20.9191 3.91009 23.3005 5.95013 25.2751C7.93841 27.1996 10.7551 28.5131 13.8815 28.9748C14.6874 29.0937 15.4897 29.1528 16.2792 29.1528C18.5527 29.1528 20.7182 28.6655 22.5434 27.7236C25.0666 26.4223 26.6467 24.4116 26.9934 22.0617C27.0769 21.498 27.1071 20.9885 27.0937 20.5204C30.8144 18.069 32.6552 14.4011 31.7883 11.0878ZM3.8598 16.5478C0.911306 12.9416 0.285818 8.61835 2.42864 5.98944C3.53606 4.63104 4.60735 3.97382 5.83172 3.97382C6.55291 3.97382 7.32733 4.20209 8.19256 4.6496C9.84002 5.50165 11.5048 7.29193 12.9736 8.87201C13.1911 9.1059 13.4052 9.33637 13.6147 9.55878C12.7424 9.77533 12.0129 10.0322 11.4037 10.3361C9.80145 11.1349 8.81537 12.1708 8.40203 13.4929C8.36883 13.4958 8.33978 13.5029 8.30706 13.5063C7.7846 13.5588 7.30511 13.6535 6.86688 13.7912C6.85345 13.7953 6.84002 13.8 6.82659 13.8039C5.89813 14.1039 5.15716 14.6005 4.59271 15.3066C4.58221 15.3195 4.57244 15.3334 4.56243 15.3464C4.44109 15.5016 4.32781 15.6662 4.22283 15.8417C4.20647 15.8691 4.18841 15.8947 4.17254 15.9223C4.07171 16.0986 3.97894 16.2841 3.89373 16.4802C3.88397 16.5034 3.87054 16.5239 3.8598 16.5478ZM25.8391 21.8906C25.5485 23.8583 24.1884 25.5617 22.009 26.6855C19.7651 27.8427 16.9387 28.2441 14.0524 27.8193C11.1652 27.3935 8.5766 26.1918 6.76239 24.436C5.00018 22.7304 4.18963 20.7067 4.48016 18.739C4.52801 18.4135 4.5888 18.1113 4.66107 17.8281C4.72308 17.5861 4.79583 17.3613 4.8764 17.1489C4.88567 17.1245 4.89446 17.0998 4.90374 17.0761C4.98602 16.8693 5.0783 16.6769 5.18035 16.4985C5.19134 16.4792 5.20257 16.4609 5.21356 16.4423C5.32098 16.2621 5.43768 16.0947 5.56732 15.9435C5.57147 15.9389 5.57611 15.9348 5.58001 15.9301C5.716 15.7729 5.8637 15.6306 6.02532 15.5041C6.0263 15.5034 6.02703 15.5024 6.02825 15.5016C6.18353 15.3803 6.35369 15.2746 6.53411 15.1789C6.55462 15.1684 6.5744 15.1567 6.59466 15.1462C6.77044 15.0583 6.95819 14.9824 7.15838 14.9169C7.1889 14.9069 7.21966 14.8976 7.25067 14.8884C7.4533 14.8271 7.66693 14.7751 7.89447 14.7355C7.92352 14.7302 7.95452 14.7267 7.98358 14.7221C8.22406 14.6835 8.47503 14.6537 8.74457 14.6374C8.86761 14.6298 9.00653 14.6345 9.13958 14.6345C9.29071 14.6335 9.44476 14.6374 9.60052 14.6457C9.76044 14.655 9.92572 14.6672 10.1 14.6852C10.1723 14.6923 10.2436 14.6982 10.3159 14.7067C10.3754 14.7138 10.4333 14.7184 10.4933 14.7267C10.6508 14.7477 10.8115 14.7758 10.9719 14.8032C11.0641 14.819 11.155 14.8317 11.2477 14.8493C11.3942 14.8766 11.5427 14.9086 11.6901 14.9401C11.7946 14.9623 11.8979 14.9824 12.0024 15.0056C12.2253 15.0563 12.4494 15.1105 12.6728 15.1672C12.697 15.173 12.7214 15.1784 12.7453 15.1848C13.5148 15.3813 14.2834 15.6071 15.0163 15.8207C16.2451 16.1796 17.4064 16.518 18.353 16.6581C21.3996 17.1074 23.3408 17.4587 24.4956 18.0883C24.5031 18.0925 24.5107 18.0964 24.5183 18.1005C25.4099 18.5937 25.8242 19.257 25.9106 20.2702L25.9345 20.549C25.944 20.9313 25.9155 21.3725 25.8391 21.8906ZM26.904 19.2414C26.9006 19.2304 26.8959 19.2209 26.8923 19.2106C26.8549 19.0891 26.8103 18.9743 26.7622 18.8615C26.7407 18.8102 26.7185 18.759 26.6945 18.7094C26.6403 18.5961 26.5825 18.4858 26.5173 18.3813C26.4992 18.3522 26.4782 18.3246 26.4589 18.2961C26.2248 17.9455 25.9238 17.6403 25.5544 17.3764C25.5346 17.3625 25.5153 17.3478 25.4953 17.3339C25.4331 17.2907 25.3793 17.2429 25.3127 17.2018C25.2443 17.1599 25.1662 17.1245 25.0944 17.0847C25.0932 17.0842 25.0915 17.0829 25.0903 17.0825C24.6965 16.8647 24.247 16.6791 23.7353 16.5175C23.6577 16.4924 23.5825 16.4662 23.5024 16.4421C23.4213 16.4182 23.3352 16.3954 23.2504 16.3727C23.0624 16.3207 22.8688 16.2707 22.6694 16.2233C22.6477 16.2182 22.6262 16.2136 22.6044 16.2082C21.4291 15.9345 20.0598 15.7297 18.5251 15.5034C18.3081 15.4711 18.0751 15.4269 17.8288 15.3725C17.8261 15.372 17.822 15.3708 17.819 15.3703C17.0825 15.2075 16.2307 14.9582 15.3408 14.6982C13.6462 14.2026 11.7787 13.6589 10.0598 13.5058C9.98285 13.4977 9.90448 13.489 9.82977 13.4826C10.2109 12.6481 10.945 11.977 12.091 11.4052C13.7495 10.5783 16.1774 10.29 18.3195 10.0363C19.5935 9.88568 20.7966 9.74286 21.7228 9.50043C27.8586 7.89471 29.6699 7.60175 30.6601 11.384C31.3627 14.0712 29.8994 17.0859 26.904 19.2414Z" fill="white"/>
<path d="M8.14556 18.9719C8.06719 18.6591 7.75029 18.469 7.43755 18.5471C7.1248 18.6252 6.9351 18.9421 7.01274 19.2548L7.59648 21.5888C7.66289 21.854 7.90044 22.0307 8.16191 22.0307C8.20928 22.0307 8.2564 22.0253 8.30425 22.0131C8.61699 21.935 8.80669 21.6181 8.72905 21.3054L8.14556 18.9719Z" fill="white"/>
<path d="M20.9832 11.3859C20.9048 11.0732 20.5887 10.883 20.2752 10.9611C19.9624 11.0395 19.7728 11.3562 19.8504 11.6689L20.4341 14.0031C20.5005 14.268 20.7381 14.4448 20.9996 14.4448C21.0469 14.4448 21.094 14.4394 21.1419 14.4274C21.4546 14.3491 21.6443 14.0324 21.5667 13.7194L20.9832 11.3859Z" fill="white"/>
<path d="M17.7585 24.2925L15.7593 25.6311C15.4914 25.81 15.4197 26.1731 15.5989 26.4404C15.7114 26.6084 15.8957 26.6994 16.0842 26.6994C16.1958 26.6994 16.3091 26.6672 16.4082 26.6008L18.4075 25.2622C18.6753 25.083 18.7471 24.7202 18.5679 24.4529C18.3879 24.185 18.0251 24.1133 17.7585 24.2925Z" fill="white"/>
<path d="M5.82933 8.61012C5.94091 8.61012 6.05394 8.57814 6.15331 8.51149L8.15233 7.17287C8.42015 6.99367 8.49193 6.63088 8.31273 6.36354C8.13304 6.09572 7.77074 6.02443 7.5034 6.20314L5.50438 7.54177C5.23656 7.72072 5.16478 8.08376 5.34398 8.35109C5.45653 8.51906 5.64086 8.61012 5.82933 8.61012Z" fill="white"/>
<path d="M17.6599 20.6851C17.916 20.6851 18.1511 20.5147 18.2224 20.2556C18.3076 19.9451 18.1249 19.6236 17.8139 19.5386L15.4936 18.9012C15.1826 18.815 14.8618 18.9986 14.7765 19.3096C14.6913 19.6201 14.874 19.9417 15.185 20.0269L17.5051 20.6641C17.5566 20.6787 17.6091 20.6851 17.6599 20.6851Z" fill="white"/>
<path d="M5.52869 12.8115C5.72253 12.8115 5.91223 12.7153 6.02307 12.5395C6.19519 12.2671 6.11365 11.9072 5.84094 11.7349L3.80628 10.4512C3.53479 10.2803 3.17322 10.3608 3.00159 10.6333C2.82947 10.9058 2.91101 11.2659 3.18347 11.438L5.21838 12.7217C5.31409 12.7825 5.422 12.8115 5.52869 12.8115Z" fill="white"/>
<path d="M28.2253 13.4295L26.4436 15.0464C26.2051 15.263 26.187 15.6324 26.4033 15.8711C26.519 15.9981 26.677 16.0625 26.8359 16.0625C26.9758 16.0625 27.116 16.013 27.2273 15.9114L29.0088 14.2945C29.2476 14.0779 29.2656 13.7085 29.0491 13.4698C28.8328 13.2313 28.4639 13.2137 28.2253 13.4295Z" fill="white"/>
</g>
<defs>
<clipPath id="clip0">
<rect width="32" height="32" fill="white"/>
</clipPath>
</defs>
</svg>
