<svg width="26" height="24" viewBox="0 0 26 24" fill="none" xmlns="http://www.w3.org/2000/svg">
<g clip-path="url(#clip0)">
<path d="M21.3506 3.17088H17.5089V1.6229C17.5089 0.728022 16.7808 0 15.886 0H10.114C9.2191 0 8.49108 0.728022 8.49108 1.6229V3.17088H4.64929C4.0446 3.17088 3.55273 3.66274 3.55273 4.26743V6.2771C3.55273 6.88178 4.0446 7.37365 4.64929 7.37365H5.28616V22.4647C5.28616 23.3113 5.97488 23.9999 6.82134 23.9999H19.1785C20.025 23.9999 20.7137 23.3113 20.7137 22.4647V7.37374H21.3506C21.9553 7.37374 22.4472 6.88187 22.4472 6.27719V4.26743C22.4472 3.66283 21.9552 3.17088 21.3506 3.17088ZM9.80694 1.6229C9.80694 1.45648 9.94756 1.31586 10.114 1.31586H15.886C16.0524 1.31586 16.193 1.45648 16.193 1.6229V3.17088H9.80694V1.6229ZM19.3978 22.4648C19.3978 22.5837 19.2974 22.6841 19.1785 22.6841H6.82134C6.70247 22.6841 6.60202 22.5837 6.60202 22.4648V7.37374H19.3978V22.4648ZM21.1313 6.05788H4.8686V4.48674H21.1313V6.05788Z" fill="#000002"/>
<path d="M9.14914 20.8241C9.5125 20.8241 9.80707 20.5295 9.80707 20.1661V10.1296C9.80707 9.76626 9.5125 9.47168 9.14914 9.47168C8.7857 9.47168 8.49121 9.76626 8.49121 10.1296V20.1661C8.49121 20.5295 8.7857 20.8241 9.14914 20.8241Z" fill="#000002"/>
<path d="M12.9997 20.8241C13.3632 20.8241 13.6577 20.5295 13.6577 20.1661V10.1296C13.6577 9.76626 13.3632 9.47168 12.9997 9.47168C12.6363 9.47168 12.3418 9.76626 12.3418 10.1296V20.1661C12.3418 20.5295 12.6364 20.8241 12.9997 20.8241Z" fill="#000002"/>
<path d="M16.8508 20.8241C17.2142 20.8241 17.5087 20.5295 17.5087 20.1661V10.1296C17.5087 9.76626 17.2142 9.47168 16.8508 9.47168C16.4874 9.47168 16.1929 9.76626 16.1929 10.1296V20.1661C16.1929 20.5295 16.4874 20.8241 16.8508 20.8241Z" fill="#000002"/>
</g>
<defs>
<clipPath id="clip0">
<rect width="24.8945" height="23.9999" fill="white" transform="translate(0.552734)"/>
</clipPath>
</defs>
</svg>
