<svg width="32" height="32" viewBox="0 0 32 32" fill="none" xmlns="http://www.w3.org/2000/svg">
<path fill-rule="evenodd" clip-rule="evenodd" d="M0 1.6C0 0.716352 0.67384 0 1.50505 0H3.93338C6.73673 0 9.16906 2.05702 9.79942 4.9609L10.1118 6.4H25.9774C29.8287 6.4 32.6897 10.1915 31.8542 14.1883L30.8508 18.9883C30.2387 21.9166 27.7957 24 24.974 24H15.6322C12.8289 24 10.3966 21.943 9.76622 19.039L6.86639 5.68045C6.55122 4.22851 5.33505 3.2 3.93338 3.2H1.50505C0.67384 3.2 0 2.48365 0 1.6ZM10.8064 9.6L12.6992 18.3195C13.0144 19.7715 14.2305 20.8 15.6322 20.8H24.974C26.3849 20.8 27.6064 19.7582 27.9125 18.2942L28.9158 13.4942C29.3336 11.4957 27.903 9.6 25.9774 9.6H10.8064ZM15.0505 30.4C15.8817 30.4 16.5555 29.6837 16.5555 28.8C16.5555 27.9163 15.8817 27.2 15.0505 27.2C14.2192 27.2 13.5454 27.9163 13.5454 28.8C13.5454 29.6837 14.2192 30.4 15.0505 30.4ZM15.0505 32C16.713 32 18.0606 30.5674 18.0606 28.8C18.0606 27.0326 16.713 25.6 15.0505 25.6C13.3881 25.6 12.0404 27.0326 12.0404 28.8C12.0404 30.5674 13.3881 32 15.0505 32ZM27.0909 28.8C27.0909 29.6837 26.4171 30.4 25.5858 30.4C24.7546 30.4 24.0808 29.6837 24.0808 28.8C24.0808 27.9163 24.7546 27.2 25.5858 27.2C26.4171 27.2 27.0909 27.9163 27.0909 28.8ZM28.5959 28.8C28.5959 30.5674 27.2483 32 25.5858 32C23.9234 32 22.5757 30.5674 22.5757 28.8C22.5757 27.0326 23.9234 25.6 25.5858 25.6C27.2483 25.6 28.5959 27.0326 28.5959 28.8Z" fill="#111111"/>
</svg>
