<svg width="24" height="24" viewBox="0 0 24 24" fill="none" xmlns="http://www.w3.org/2000/svg">
<path d="M23.5 12C23.5 18.3513 18.3513 23.5 12 23.5C5.64873 23.5 0.5 18.3513 0.5 12C0.5 5.64873 5.64873 0.5 12 0.5C18.3513 0.5 23.5 5.64873 23.5 12Z" stroke="white"/>
<path d="M15.8546 5.36491C13.297 4.87836 10.7032 4.87836 8.14502 5.36491C7.02614 5.61411 5.61849 6.96299 5.34329 8.04796C4.88557 10.1473 4.88557 12.2754 5.34329 14.3747C5.61849 15.4597 7.02614 16.8086 8.14502 17.0578C8.1453 17.0578 8.14558 17.0579 8.14586 17.058C8.19571 17.0677 8.23204 17.1109 8.23204 17.1617V20.237C8.23204 20.3907 8.41965 20.4665 8.52645 20.3551L9.98721 18.856C9.98721 18.856 11.1512 17.661 11.3606 17.4462C11.381 17.4251 11.4093 17.4138 11.4385 17.4146C12.9134 17.4554 14.3898 17.3363 15.8546 17.0578C16.9734 16.8086 18.3816 15.4598 18.6563 14.3748C19.1146 12.2755 19.1146 10.1473 18.6563 8.04802C18.3816 6.96299 16.974 5.61411 15.8546 5.36491ZM15.8936 14.5313C15.6698 15.0064 15.3442 15.4017 14.8745 15.654C14.742 15.7252 14.5836 15.7482 14.434 15.7943C14.262 15.7421 14.098 15.707 13.9458 15.6438C12.3683 14.9893 10.9165 14.145 9.76643 12.8506C9.11245 12.1146 8.60054 11.2836 8.1679 10.4042C7.96272 9.98719 7.7898 9.55382 7.61355 9.12328C7.45278 8.73065 7.68955 8.32503 7.93881 8.0292C8.17271 7.75157 8.47367 7.5391 8.79962 7.38251C9.05402 7.26028 9.30498 7.33075 9.49078 7.54639C9.89245 8.01259 10.2614 8.50264 10.5602 9.04303C10.7439 9.37542 10.6935 9.78172 10.3605 10.0079C10.2796 10.0629 10.2058 10.1274 10.1305 10.1895C10.0643 10.244 10.0021 10.2989 9.95681 10.3726C9.87397 10.5074 9.87001 10.6665 9.92336 10.8131C10.334 11.9414 11.026 12.8189 12.1617 13.2914C12.3435 13.3671 12.526 13.4551 12.7354 13.4307C13.086 13.3897 13.1995 13.0051 13.4452 12.8042C13.6854 12.6078 13.9923 12.6052 14.251 12.7689C14.5098 12.9327 14.7606 13.1085 15.0099 13.2861C15.2547 13.4605 15.4983 13.6311 15.7241 13.8299C15.941 14.021 16.0158 14.2718 15.8936 14.5313ZM13.8567 10.8543C13.7588 10.8561 13.7973 10.8542 13.8345 10.8531C13.6767 10.8475 13.5909 10.7546 13.5739 10.6036C13.5615 10.4932 13.5518 10.3814 13.5254 10.274C13.4735 10.0626 13.3611 9.8666 13.1833 9.73702C13.0993 9.67582 13.0042 9.63118 12.9045 9.60247C12.7779 9.56591 12.6464 9.57597 12.52 9.545C12.3828 9.51144 12.3069 9.40028 12.3284 9.27156C12.3481 9.15441 12.462 9.06298 12.59 9.07225C13.39 9.13 13.9618 9.54359 14.0434 10.4854C14.0491 10.5519 14.0559 10.6221 14.0412 10.6856C14.0172 10.789 13.9434 10.8428 13.8687 10.8526C13.8748 10.8527 13.8736 10.8532 13.8567 10.8543ZM13.3593 8.70025C13.1138 8.58005 12.8483 8.50535 12.5792 8.46082C12.4616 8.44138 12.3428 8.42957 12.2246 8.41312C12.0814 8.39323 12.005 8.30197 12.0118 8.16087C12.0181 8.02864 12.1147 7.93353 12.2588 7.94167C12.7324 7.96857 13.1898 8.07091 13.6108 8.29383C14.4669 8.74721 14.9559 9.46284 15.0986 10.4184C15.1051 10.4617 15.1155 10.5046 15.1188 10.548C15.1269 10.6553 15.1319 10.7627 15.1402 10.9042C15.1368 10.9299 15.135 10.9905 15.1199 11.0476C15.0652 11.2547 14.7511 11.2807 14.6788 11.0716C14.6574 11.0096 14.6541 10.939 14.654 10.8722C14.6533 10.4351 14.5583 9.99854 14.3379 9.61829C14.1114 9.22759 13.7652 8.89905 13.3593 8.70025ZM16.0046 11.6535C15.8392 11.6554 15.7648 11.5171 15.754 11.3687C15.7328 11.0751 15.7181 10.7802 15.6776 10.489C15.464 8.95188 14.2383 7.6802 12.7084 7.40732C12.4781 7.36624 12.2424 7.35544 12.0093 7.33097C11.8618 7.31549 11.6688 7.30656 11.6361 7.1233C11.6087 6.96966 11.7384 6.84731 11.8847 6.83946C11.9245 6.83731 11.9645 6.83912 12.0044 6.83929C13.9859 6.89484 12.1254 6.84358 12.0097 6.83957C14.0707 6.89964 15.7629 8.26829 16.1258 10.3065C16.1877 10.6541 16.2097 11.0094 16.2372 11.3622C16.2488 11.5106 16.1647 11.6516 16.0046 11.6535Z" fill="white"/>
</svg>
