<svg width="24" height="24" viewBox="0 0 24 24" fill="none" xmlns="http://www.w3.org/2000/svg">
<path d="M23.5 12C23.5 18.3513 18.3513 23.5 12 23.5C5.64873 23.5 0.5 18.3513 0.5 12C0.5 5.64873 5.64873 0.5 12 0.5C18.3513 0.5 23.5 5.64873 23.5 12Z" stroke="white"/>
<path fill-rule="evenodd" clip-rule="evenodd" d="M11.5469 17.2631H12.4888C12.4888 17.2631 12.7733 17.2318 12.9185 17.0752C13.0522 16.9315 13.0479 16.6615 13.0479 16.6615C13.0479 16.6615 13.0295 15.3977 13.6161 15.2116C14.1943 15.0283 14.9368 16.4331 15.7237 16.9732C16.3188 17.382 16.771 17.2924 16.771 17.2924L18.8753 17.2631C18.8753 17.2631 19.9761 17.1952 19.4541 16.3298C19.4114 16.259 19.1502 15.6895 17.8896 14.5194C16.5702 13.2948 16.7469 13.4929 18.3362 11.3745C19.3042 10.0844 19.6912 9.29678 19.5703 8.95944C19.455 8.63815 18.7431 8.72307 18.7431 8.72307L16.3738 8.73783C16.3738 8.73783 16.1982 8.71387 16.0679 8.79173C15.9406 8.8681 15.8587 9.04608 15.8587 9.04608C15.8587 9.04608 15.4837 10.0444 14.9836 10.8934C13.9286 12.6849 13.5068 12.7795 13.3343 12.6682C12.9333 12.409 13.0334 11.6267 13.0334 11.071C13.0334 9.33486 13.2967 8.61098 12.5206 8.42359C12.2631 8.36135 12.0736 8.32027 11.4149 8.31364C10.5695 8.30487 9.85401 8.31621 9.44886 8.51472C9.17933 8.6467 8.97141 8.94083 9.09804 8.95773C9.25463 8.97869 9.60929 9.05335 9.79732 9.3094C10.0401 9.63968 10.0316 10.3815 10.0316 10.3815C10.0316 10.3815 10.171 12.4252 9.70576 12.6791C9.38639 12.8533 8.9483 12.4977 8.00774 10.8725C7.52579 10.0399 7.16193 9.11966 7.16193 9.11966C7.16193 9.11966 7.09177 8.94768 6.96663 8.85569C6.81475 8.74425 6.60255 8.70874 6.60255 8.70874L4.35113 8.7235C4.35113 8.7235 4.01315 8.73291 3.88909 8.87987C3.77871 9.01057 3.88031 9.28095 3.88031 9.28095C3.88031 9.28095 5.64294 13.4047 7.63874 15.4829C9.46875 17.3882 11.5469 17.2631 11.5469 17.2631Z" fill="white"/>
</svg>
