<svg width="24" height="24" viewBox="0 0 24 24" fill="none" xmlns="http://www.w3.org/2000/svg">
<path d="M12.0517 23.8078C5.58293 23.8078 0.370426 18.539 0.398551 11.9812C0.426676 5.47496 5.67199 0.215587 12.1923 0.290587C18.5579 0.365587 23.7517 5.58746 23.6954 12.15C23.6439 18.614 18.4642 23.789 12.0517 23.8078ZM12.0517 1.21402C6.23449 1.19059 1.37824 5.92965 1.3173 11.925C1.25168 18.0421 6.14074 22.8328 11.9486 22.8843C17.8361 22.9359 22.7439 18.1687 22.7767 12.1453C22.8048 6.07028 18.0189 1.21402 12.0517 1.21402Z" fill="white"/>
<path d="M4.75781 19.6171C4.95 19.0359 5.12812 18.5062 5.30625 17.9765C5.53594 17.2875 5.76563 16.6031 6.00469 15.914C6.04219 15.8062 6.03281 15.7312 5.97656 15.6328C5.32969 14.5031 5.01094 13.2843 5.02031 11.9859C5.03906 8.3812 7.80937 5.3062 11.3766 4.91245C15.1781 4.49527 18.5484 6.9937 19.275 10.7718C20.0109 14.625 17.3578 18.4593 13.4953 19.125C11.8969 19.4015 10.3734 19.1812 8.925 18.45C8.775 18.375 8.65781 18.3703 8.50312 18.4218C7.35469 18.7968 6.20156 19.1625 5.05313 19.5281C4.97813 19.5515 4.89375 19.575 4.75781 19.6171ZM6.62812 17.7796C7.35937 17.5453 8.03906 17.3343 8.71406 17.1093C8.85 17.0625 8.95313 17.0718 9.08438 17.1515C10.4156 17.9531 11.8453 18.2062 13.3781 17.9203C16.9734 17.2546 19.1484 13.2937 17.7797 9.88589C16.4625 6.59995 12.7547 5.13277 9.58125 6.70308C7.44375 7.76245 6.33281 9.55308 6.23906 11.9484C6.1875 13.2187 6.5625 14.3812 7.275 15.4312C7.34531 15.5343 7.35469 15.614 7.3125 15.7312C7.1625 16.1578 7.02187 16.589 6.87656 17.0156C6.80156 17.25 6.72187 17.4937 6.62812 17.7796Z" fill="white"/>
<path d="M9.87199 8.53587C9.97981 8.54525 10.0876 8.564 10.2001 8.564C10.3689 8.55931 10.4673 8.64837 10.5236 8.789C10.7204 9.29994 10.9126 9.80619 11.1001 10.3218C11.1611 10.4859 11.0907 10.6312 10.997 10.7578C10.8704 10.9171 10.7392 11.0718 10.5986 11.2124C10.4767 11.3343 10.4486 11.4515 10.5329 11.6062C11.1001 12.6421 11.9111 13.4062 12.9986 13.8796C13.1439 13.9453 13.2517 13.9031 13.3501 13.7906C13.5329 13.5796 13.7298 13.3781 13.9032 13.1531C14.0298 12.989 14.1657 12.9421 14.3486 13.0359C14.8314 13.289 15.3142 13.5421 15.797 13.7953C15.9282 13.8609 15.9564 13.9734 15.947 14.1093C15.8954 14.9249 15.4595 15.3703 14.5501 15.5999C14.2173 15.6843 13.8939 15.6374 13.5611 15.5437C11.7564 15.0234 10.4017 13.9312 9.41262 12.3562C9.08449 11.8312 8.75637 11.3109 8.65793 10.6874C8.53137 9.89994 8.77043 9.239 9.36106 8.70931C9.50168 8.58275 9.67512 8.51712 9.87199 8.53587Z" fill="white"/>
</svg>
